<?xml version="1.0" encoding="UTF-8"?><svg id="Layer_1" xmlns="http://www.w3.org/2000/svg" width="150" height="196" viewBox="0 0 150 196"><defs><style>.cls-1{stroke-linejoin:round;}.cls-1,.cls-2{stroke-linecap:round;}.cls-1,.cls-2,.cls-3{stroke:#000;}.cls-1,.cls-2,.cls-3,.cls-4{fill:none;}.cls-2,.cls-5,.cls-3,.cls-4{stroke-miterlimit:10;}.cls-5,.cls-4{stroke:#fff;}.cls-5,.cls-6{fill:#00a553;}.cls-7,.cls-8,.cls-9,.cls-10,.cls-11,.cls-12,.cls-13,.cls-14,.cls-15,.cls-16,.cls-17,.cls-18,.cls-6,.cls-19,.cls-20,.cls-21{stroke-width:0px;}.cls-8{fill:#77533a;}.cls-9{fill:#2d251c;}.cls-10{fill:#5b2ac2;}.cls-11{fill:#369a52;}.cls-12{fill:#1a1a1a;}.cls-13{fill:#126321;}.cls-14{fill:#de8d1f;}.cls-15{fill:#ad442d;}.cls-16{fill:#cf713f;}.cls-17{fill:#b52d00;}.cls-18{fill:#332921;}.cls-19{fill:#926350;}.cls-20{fill:#fff;}.cls-21{fill:#f1ba0d;}</style></defs><path class="cls-15" d="m107.2,188.9c.2.9.3,1.7.4,2.4-3,.7-6.2,1.3-9.4,1.7,0-.9-.2-2-.3-3.2,4.1-.2,7.2-.5,9.3-1Z"/><path class="cls-16" d="m107.2,188.9c-2,.5-5.2.8-9.3,1-.1-1.4-.3-3-.5-4.7,3.4,0,6.4-.2,9-.2.3,1.3.6,2.6.8,3.9Z"/><path class="cls-15" d="m105.2,180c.4,1.8.8,3.5,1.2,5.1-2.5,0-5.5,0-9,.2-.2-1.6-.4-3.3-.6-5,3.3-.2,6,0,8.4-.2Z"/><path class="cls-16" d="m105.2,180c-2.4.2-5.1,0-8.4.2-.2-1.3-.3-2.6-.5-3.9,2.7,0,5.4-.1,8-.2.3,1.3.6,2.6.9,3.9Z"/><path class="cls-15" d="m103.1,171.3c.4,1.6.7,3.1,1.1,4.7-2.6,0-5.2.2-7.9.2-.2-1.7-.5-3.4-.7-5.1,2.8,0,5.3,0,7.5.2Z"/><path class="cls-16" d="m102.2,167.3c.3,1.3.6,2.7.9,4-2.2-.1-4.7-.2-7.5-.2-.2-1.5-.4-2.9-.6-4.3,3,0,5.4.2,7.3.4Z"/><path class="cls-21" d="m100.8,135.3c.6,3.7.7,5.6.7,7.4-.7-1-3.1-1.6-6.4-1.9,1.5-1.7,2.3-4,3.7-5.7.8,0,1.5.1,2.1.2Z"/><path class="cls-15" d="m101.4,162.9c.3,1.4.5,2.9.9,4.4-1.8-.3-4.3-.4-7.3-.4-.2-1.5-.5-2.9-.7-4.2,2.7,0,5.1.1,7.1.2Z"/><path class="cls-9" d="m101.5,142.7c0,1.6-.2,3.2-.5,5.9-.7-.4-1.7-.8-3-1.1-1.3-2.3-1.6-4.1-3.1-6.6,0,0,0,0,.1-.1,3.4.3,5.8,1,6.4,1.9Z"/><path class="cls-16" d="m100.9,159.6c.1,1.1.3,2.2.5,3.3-2-.1-4.4-.2-7.1-.2-.2-1.6-.6-3-.8-4.2,3,.2,5.5.6,7.4,1.1Z"/><path class="cls-11" d="m100.7,134.6c0,.2,0,.5.1.7-.6,0-1.4-.1-2.1-.2,0,0,0,0,0-.1-1.1-1.7-3.1-5-4.5-6.4,1.9,0,3.5.1,4.7.3.8,1.9,1.5,3.8,1.8,5.7Z"/><path class="cls-21" d="m101,148.7c-.1,1.3-.2,2.9-.3,4.8-1.7-.9-3.6-1.6-5.8-2.1,1.3-1.1,2.1-2.1,3.3-3.6,0,0-.1-.2-.2-.3,1.3.4,2.3.7,3,1.1Z"/><path class="cls-14" d="m94.8,151.4c2.2.5,4.1,1.2,5.8,2.1-.2,2,0,3.7.3,6.1-12.6-2.8-27.6-.9-40.4,2.3-.1-1.8-.5-4.4-1-6.9,11.2-3.6,24-5.9,35.3-3.6Z"/><path class="cls-8" d="m68.5,113.9c-1.5-4.2-3.4-8.9-10-14.1-7.4,3.1-17.9-15.6-5.1-12.3,1.7-4-.9-12.6,3.1-23,4-8.9,9-13.4,14-14,6.7-.1,19.6,6.7,22.6,14,1,1.6,1.1,8,2.4,9.8h0c7.6,9.2,6,20.8-6.9,31.4,0,0-2.1,4.3-2,7.9,1.1.2,2.2.5,3.2.6,1.1,12-25.5,12.3-25,0l3.8-.3Zm21.4-36.5c1.7-.5-.8-6.8-2.4-6.1-1.6.5.8,6.8,2.4,6.1Zm-3.2,16.4c2.5-1.3,3.5-4.5,3.2-7.3-4.4,3.3-11,5.3-15.8,3.6,2.8,3.6,8.3,5.8,12.6,3.7Zm2.6-29.5c1.2-1.3-10.3-.6-8.1,1.7,3.1-1.1,5.4-1.6,8.1-1.7Zm-18.1,17.4c1.9-.6-.8-7.6-2.7-6.7-1.9.6.8,7.6,2.7,6.7Zm-.8-12.7c.7-2.7-4.1-1.4-6-.2-.9.6-4,3.4-3.5,4.8.7.5,2.6-3.8,9.5-4.6Z"/><path class="cls-21" d="m98.8,135s0,0,0,.1c-3.5-.3-8.3-.5-13.4-.5h0s0,0,0,0c.8-2.2,2.3-3.9,3.5-5.9,2,0,3.9,0,5.5,0,1.5,1.4,3.4,4.7,4.5,6.4Z"/><path class="cls-9" d="m98,147.5c0,0,.1.2.2.3-1.2,1.5-2,2.5-3.3,3.6-1.5-.3-3.2-.6-4.9-.7-1.3-1.4-2.7-3.3-4-4.7,4.9.2,9.2.8,12,1.5Z"/><path class="cls-21" d="m96.3,124.2c1,1.4,2,3,2.7,4.7-1.2-.2-2.9-.2-4.7-.3,0,0,0,0,0,0,.2-1,1.4-3.4,2.1-4.4Z"/><path class="cls-13" d="m97.9,189.9c.1,1.2.2,2.3.3,3.2-3.8.5-7.7.8-11.7.9,0-1.2,0-2.4,0-3.7,4.3,0,8.2-.1,11.5-.3Z"/><path class="cls-11" d="m97.4,185.2c.2,1.7.4,3.3.5,4.7-3.3.2-7.2.3-11.5.3,0-1.5,0-3.1-.1-4.7,4.1-.1,7.8-.3,11.1-.3Z"/><path class="cls-11" d="m89.1,140.1c-1.3-1.8-2.5-3.6-3.8-5.4h0c5.1,0,9.9.2,13.4.5-1.3,1.6-2.2,4-3.7,5.7-1.8-.2-4-.3-6.3-.3,0-.1.2-.4.3-.5Z"/><path class="cls-13" d="m96.8,180.2c.2,1.7.4,3.4.6,5-3.3,0-7,.2-11.1.3,0-1.6-.1-3.2-.2-4.9,3.8-.2,7.5-.3,10.7-.4Z"/><path class="cls-21" d="m94.9,140.9c1.5,2.5,1.8,4.3,3.1,6.6-2.8-.8-7.1-1.4-12-1.5,0,0,0,0,0,0,1-2.2,1.6-3.5,2.8-5.5,2.3,0,4.4.1,6.3.3,0,0,0,0-.1.1Z"/><path class="cls-11" d="m96.3,176.3c.2,1.3.3,2.6.5,3.9-3.2.1-6.9.3-10.7.4,0-1.4-.2-2.8-.3-4.2,3.6,0,7.1-.1,10.5-.2Z"/><path class="cls-13" d="m95.6,171.2c.2,1.7.5,3.4.7,5.1-3.4,0-6.9.1-10.5.2-.1-1.7-.2-3.4-.4-5,3.7-.2,7.1-.2,10.2-.2Z"/><path class="cls-11" d="m95.6,171.2c-3.1,0-6.5,0-10.2.2-.1-1.5-.3-2.9-.4-4.3,3.6-.2,7-.2,10-.2.2,1.4.4,2.8.6,4.3Z"/><path class="cls-9" d="m96.3,124.2c-.6,1-1.8,3.4-2.1,4.4,0,0,0,0,0,0-1.7,0-3.5,0-5.5,0,0,0,0,0,0,0-1-1-1.5-2.1-2.5-3,2.7-.9,5.5-2.6,6.6-5.3,1.2,1,2.3,2.3,3.4,3.8Z"/><path class="cls-13" d="m95,166.9c-2.9,0-6.3,0-10,.2-.2-1.5-.3-2.9-.5-4.3,3.5-.1,6.8-.1,9.8-.1.2,1.3.5,2.7.7,4.2Z"/><path class="cls-11" d="m94.3,162.7c-2.9,0-6.2,0-9.8.1-.2-1.6-.4-3.1-.6-4.4,3.5-.2,6.8-.1,9.6,0,.2,1.2.5,2.6.8,4.2Z"/><path class="cls-14" d="m92.9,120.4c-5.3,10.5-34.6,9.1-31.3-5.9l3.1-.3c-.5,12.2,26.1,11.9,25,0,.9.1,1.8.2,2.6.4h0c1.3,1.6,1.4,3.9.6,5.8Z"/><path class="cls-7" d="m89.9,73.8c1.6,4-1,5-2.5,1-1.6-3.9,1-4.9,2.5-1Z"/><path class="cls-20" d="m89.8,86.5c1.3,9.8-11.4,10.1-15.8,3.6,4.9,1.7,11.4-.3,15.8-3.6Z"/><path class="cls-12" d="m83.1,64.1c2.7-.7,6.4-.7,6.1.2-2.7,0-5,.5-8.1,1.7-.7-.6-.7-1.2,1.9-1.9Z"/><path class="cls-21" d="m85.2,134.7c1.3,1.8,2.6,3.6,3.8,5.4-.2,0-.2.3-.3.5-4.2,0-9,.2-13.6.5,1.7-3.1,2-4.4,3.3-6.3,2.3,0,4.6-.1,6.9,0h0Z"/><path class="cls-11" d="m75.1,141c4.6-.4,9.4-.6,13.6-.5-1.2,2-1.8,3.3-2.8,5.5,0,0,0,0,0,0-2.1,0-4.3,0-6.6,0,0,0,0,0,0-.1-2.1-2.1-2.2-2.9-4.4-4.8,0,0,0,0,0-.1Z"/><path class="cls-21" d="m88.7,128.7s0,0,0,0c-4.4.1-9.3.4-14,.7.3-1,.7-1.7,1.4-2.5,3.4.2,6.9,0,10.2-1.2.9.9,1.4,2,2.5,3Z"/><path class="cls-21" d="m86,146c1.3,1.4,2.7,3.3,4,4.7-4.2-.4-9-.2-13.9.5.8-1.9,1.9-3.6,3.3-5.1,2.3-.1,4.5-.1,6.6,0Z"/><path class="cls-15" d="m86.4,190.2c0,1.3,0,2.6,0,3.7-6.2.1-12.7-.2-19.3-.9.2-.9.3-1.9.5-2.9,6.6.1,13.1.2,18.9.1Z"/><path class="cls-16" d="m86.3,185.6c0,1.6,0,3.2.1,4.7-5.8,0-12.2,0-18.9-.1.2-1.2.4-2.6.5-4,6.6-.2,12.7-.4,18.2-.6Z"/><path class="cls-15" d="m86.1,180.6c0,1.7.2,3.3.2,4.9-5.5.2-11.6.4-18.2.6.2-1.5.4-3.1.5-4.7,5.9-.2,11.9-.5,17.5-.8Z"/><path class="cls-16" d="m85.8,176.4c0,1.4.2,2.8.3,4.2-5.6.3-11.6.5-17.5.8.1-1.4.3-2.9.4-4.4,5.8-.4,11.4-.5,16.8-.6Z"/><path class="cls-9" d="m88.7,128.7c-1.1,2-2.7,3.7-3.5,5.9h0c-2.2,0-4.6,0-6.9.1-1-2.1-2.5-3.2-3.7-5.2,0,0,0,0,0-.1,4.7-.3,9.7-.6,14-.7Z"/><path class="cls-15" d="m85.4,171.4c.1,1.7.3,3.4.4,5-5.4.1-11.1.3-16.8.6.1-1.5.3-3.1.4-4.6,5.8-.5,11.2-.9,16.1-1.1Z"/><path class="cls-16" d="m85,167.1c.2,1.4.3,2.8.4,4.3-4.9.2-10.2.6-16.1,1.1.1-1.5.2-2.9.3-4.2,5.2-.5,10.5-.9,15.4-1.1Z"/><path class="cls-15" d="m84.5,162.8c.2,1.4.3,2.8.5,4.3-4.9.2-10.2.6-15.4,1.1.1-1.6.2-3,.2-4.4,5-.6,10-.9,14.7-1Z"/><path class="cls-16" d="m83.9,158.5c.2,1.3.4,2.8.6,4.3-4.6.2-9.6.5-14.7,1,0-1.5,0-2.9,0-3.9,4.8-.8,9.6-1.3,14-1.5h0Z"/><path class="cls-21" d="m79.5,146s0,0,0,.1c-5.1.3-10.5,1-15.8,2.5,1-2,1.8-4.6,2.8-6.6,2.7-.4,5.7-.7,8.7-.9,0,0,0,0,0,.1,2.2,2,2.3,2.7,4.4,4.8Z"/><path class="cls-21" d="m78.4,134.7c-5.4.2-10.8.7-15.4,1.6.8-2.1,1.7-4.2,2.6-6.2,2.8-.2,5.9-.5,9.2-.7,0,0,0,0,0,.1,1.2,2,2.7,3.1,3.7,5.2Z"/><path class="cls-9" d="m78.4,134.7c-1.2,1.9-1.6,3.2-3.3,6.3-3.1.2-6,.6-8.7.9,0,0,0,0,0-.1-.9-1.7-2.7-3.8-3.5-5.5,4.6-1,10-1.4,15.4-1.6Z"/><path class="cls-11" d="m79.4,146.1c-1.3,1.6-2.4,3.3-3.3,5.1-3.2.4-6.4,1.1-9.7,1.9-1.1-1.6-1.9-2.9-2.9-4.5h0c5.3-1.5,10.8-2.3,15.8-2.5Z"/><path class="cls-11" d="m76.1,126.9c-.7.9-1.1,1.5-1.4,2.5-3.2.2-6.4.5-9.2.7-.8-1.4-1.2-2.9-2.3-4,.5-1,.9-1.8,1.5-2.5,3.2,2.4,7.5,3.1,11.4,3.3Z"/><path class="cls-7" d="m71.3,77.7c1.8,4.4-1.2,5.6-2.9,1.2-1.7-4.4,1.3-5.5,2.9-1.2Z"/><path class="cls-12" d="m70,67.7c.3.2.8.8.3,1.3-6.9.8-8.8,5.1-9.5,4.6,0-3.7,6.4-7,9.2-5.9Z"/><path class="cls-21" d="m69.9,159.9c0,1.1,0,2.4,0,3.9-3.2.3-6.3.8-9.4,1.3,0-1.4,0-2.5,0-3.2,3.1-.9,6.3-1.5,9.5-2.1Z"/><path class="cls-14" d="m69.9,163.8c0,1.3-.1,2.8-.2,4.4-3.2.3-6.4.7-9.4,1.1.1-1.5.2-2.9.2-4.1,3.1-.5,6.2-1,9.4-1.3Z"/><path class="cls-21" d="m69.6,168.2c0,1.4-.2,2.8-.3,4.2-3,.3-6.2.6-9.5,1,.1-1.4.2-2.8.3-4.1,3-.4,6.2-.8,9.4-1.1Z"/><path class="cls-14" d="m69.4,172.5c-.1,1.5-.2,3-.4,4.6-3.1.2-6.3.4-9.5.8.2-1.5.3-3,.4-4.4,3.3-.4,6.4-.7,9.5-1Z"/><path class="cls-21" d="m69,177c-.1,1.5-.3,2.9-.4,4.4-3.3.1-6.5.3-9.6.3.2-1.3.3-2.6.5-3.9,3.2-.3,6.4-.6,9.5-.8Z"/><path class="cls-14" d="m68.6,181.4c-.2,1.6-.3,3.2-.5,4.7-3.2,0-6.4.2-9.8.3.3-1.4.5-3,.7-4.7,3.1,0,6.3-.2,9.6-.3Z"/><path class="cls-21" d="m68.1,186.2c-.2,1.4-.3,2.8-.5,4-3.3,0-6.7-.1-10-.2.3-.9.5-2.1.8-3.5,3.4,0,6.7-.2,9.8-.3Z"/><path class="cls-14" d="m67.5,190.1c-.2,1.1-.3,2-.5,2.9-3.4-.4-6.8-.8-10.2-1.4.2-.4.4-1,.6-1.7,3.3,0,6.7.2,10,.2Z"/><path class="cls-21" d="m66.5,141.8s0,0,0,.1c-4.2.6-7.7,1.3-9.6,2.1.7-2.3,1.4-4.5,2.2-6.6,1.2-.4,2.5-.7,3.9-1,.9,1.7,2.7,3.8,3.5,5.5Z"/><path class="cls-11" d="m65.5,130.1c-.8,2.1-1.8,4.2-2.6,6.2-1.4.3-2.8.6-4,1,.9-2.3,1.5-4.6,2.3-6.9,1.3-.1,2.7-.2,4.3-.4Z"/><path class="cls-9" d="m66.4,142c-1,2-1.8,4.6-2.8,6.6-1.8.5-3.5,1.1-5.2,1.7-.5-1.7-1.1-3.1-1.8-4.1h-.4c.2-.8.4-1.5.6-2.2,1.9-.8,5.4-1.5,9.6-2.1Z"/><path class="cls-21" d="m63.6,148.6c1.1,1.6,1.9,2.9,2.9,4.5-2.3.6-4.7,1.2-7,2-.3-1.6-.7-3.3-1.2-4.7,1.7-.7,3.5-1.3,5.2-1.7Z"/><path class="cls-21" d="m63.3,126.2c.9,1.2,1.5,2.6,2.2,3.9-1.6.1-3,.3-4.3.4.6-1.6,1.2-3.1,1.9-4.4h.1Z"/><path class="cls-19" d="m50.9,171.6c.1.3.3.6.4.9-.2-.1-.3-.2-.5-.3,0-.2,0-.4.1-.7Z"/><path class="cls-18" d="m105.3,44.6c-1.4-4.3-4.5-3.3-6.2-3.3,3.1-5.5-5.3-10.4-8.5-4.9-1.5-5.3-8.3-5-7.8,1.1-3.8-.7-7.9.4-5.9,4.6-5.4-1.5-11.2-1.5-15,2.1-3.1-.7-10.2.6-13.3,5.8-1.6-4.4-7.2-4-9.9-.7-.3-5.9-6.6-6.1-7.4-.3-4.8-6.2-13.6-1.5-9.4,5.3-6.3-.8-7.6,8.8-1.3,9.8-4.3,3.4-1.4,9.6,4,6.8,1.3,5.2,4.6,7.2,8.1,2.1,4.3,6.3,6.8-.7,6.7-4.6-.6,8.4,1.3,16.7,7.9,22.4-.6-3.4,3.5-4.6,6-3.3,1.7-4-.9-12.6,3.1-23,4-8.9,9-13.4,14-14,6.7-.1,19.6,6.7,22.6,14,1,1.6,1.1,8,2.4,9.8.3-3,.4-5.8.3-8.4h0c3.5-1.6,4.3-2.8,1.7-7.1,5.5,2,8.1-3.8,3.1-6.7,2.8-1.5,6.1-2.3,4.9-7.4Zm-62.6,24c-9.7,3.1.4-19.5,3.3-8.9-1.6,2.9-2.6,4.9-3.3,8.9Z"/><path class="cls-8" d="m140.9,143.1c-4.3-1.5-9.5.2-13,3-2.6-1.1-6.7.9-7,3.6-2-.7-4.8-.7-7.2-.2-4.8-9.1-11-28.2-14-32.6-1.2-1.7-4-2-7.4-2.4h0c1.3,1.6,1.4,3.9.6,5.8,9.6,8.6,9,21.5,7.7,33.1,0,0,0,0,0,0,6.5,12,5.1,18.2,20.1,10.3-1.3,5.2,7.4,4.4,5.3-.8,1-.3,1.8-1,2.3-1.9,2.1,1.7,5.9,1.8,6.2-1.5,1.2-.1,2.6.6,3.6-.3,1.5-2.4,4-8.8-1.5-6.4h0c-2.3.5-4.8-1.1-3.2-3.4,1.8-2.7,6.5-3.6,7.5-6.4Z"/><path class="cls-8" d="m61.6,114.7v-.2s-5.1.4-5.1.4c-3.9.5-8.9,11.6-10,15.3,0,1.7-8.9,34-8,35-6.9.8-15.8,12-2.1,6.4,2.6,2.4-1,12.6,6.2,8.2,1,2.4,4.2,1.9,5.9.5,10,5.8,10.5-10.6,5.3-4.9-.4,1-1.3,2.4-2.5,1.6.7-1.4,1.4-4.1-.5-4.8.7-9.2,2.5-16.7,6-28.2h0c2.5-6.9,4-14.3,7.9-20.5-2.7-2-4.3-5.7-3.1-8.9Z"/><path class="cls-21" d="m44.2,56.9c1.1.4,1.5,1.1,1.8,2.8-1.6,2.9-2.6,4.9-3.3,8.9-7.5,2.4-3.4-12,1.5-11.7Z"/><path class="cls-3" d="m68.9,115.1c-1.8-5.1-3.3-9.5-10.4-15.2"/><path class="cls-3" d="m86.4,113.6c0,.4,0,.8,0,1.2"/><path class="cls-1" d="m95.4,74.3c7.6,9.2,6,20.8-6.9,31.3,0,0-2.1,4.3-2,7.9"/><path class="cls-3" d="m93,64.6c1,1.6,1,8,2.4,9.8"/><path class="cls-1" d="m81.2,66c-2.3-2.3,9.2-3,8.1-1.7-2.7,0-5,.5-8.1,1.7Z"/><path class="cls-1" d="m70.4,69c.7-2.7-4.1-1.4-6-.2-.9.6-4,3.4-3.5,4.8.7.5,2.6-3.8,9.5-4.6Z"/><path class="cls-1" d="m87.4,74.8c1.5,4,4.1,3,2.5-1-1.5-4-4.1-3-2.5,1Z"/><path class="cls-1" d="m68.3,78.9c1.7,4.4,4.7,3.2,2.9-1.2-1.7-4.4-4.7-3.2-2.9,1.2Z"/><path class="cls-1" d="m74,90c4.9,1.7,11.4-.3,15.8-3.6,1.3,9.8-11.4,10.1-15.8,3.6Z"/><path class="cls-1" d="m53.4,87.5c-4.1-1.8-7.4,1.2-5.6,5.3,1.7,2.9,6.4,8.9,10.8,7,.6-.3.9-.9.7-1.7"/><path class="cls-1" d="m82,84.1c.8-2.7,4.4-5.3,6.4-2.1"/><path class="cls-1" d="m93,64.6c-3.5-7.8-17.1-15.4-24.7-13.7-15.1,7-13.8,25.9-15,36.6"/><path class="cls-3" d="m56.8,144c1-3.4,2.1-6.5,3.3-9.6"/><path class="cls-3" d="m51.3,166.3c.6-4.2,3.1-14.6,5.5-22.3"/><path class="cls-3" d="m61.6,114.5c-16.5-2.3-18.7,37.3-22.8,48"/><line class="cls-3" x1="64.7" y1="114.2" x2="61.6" y2="114.5"/><path class="cls-3" d="m68.5,113.9c0,0-3.8.3-3.8.3"/><path class="cls-3" d="m86.5,113.6c3.9,1.2,11,.6,13.2,3.4,3.1,4.3,8.9,23.3,14,32.2"/><path class="cls-3" d="m105,162c2.3,9.2,10.1,4.2,15.7,1.8"/><path class="cls-3" d="m121,149.8c-2-.7-4.8-.7-7.2-.2h0c-6,1.4-12,6-8.7,12.4"/><path class="cls-3" d="m50.9,171.6c.4-2.3.2-4.2.4-5.3"/><path class="cls-3" d="m38.7,162.5c-.2,1-.2,1.8-.2,2.7"/><path class="cls-2" d="m107.6,191.4c-16.4,3.9-33.9,3-50.7.3,3.4-14.3,6.3-31.6-.4-45.4"/><path class="cls-2" d="m104.3,176.1c1.2,5.1,2.5,10.2,3.3,15.3"/><path class="cls-2" d="m100.9,159.6c.7,5.5,2.1,11,3.4,16.4"/><path class="cls-3" d="m92.7,120.2c12.2,10.3,7.4,25.7,8.2,39.5"/><path class="cls-1" d="m48.6,50.1c3.1-5.2,10.2-6.6,13.3-5.8,5.7-5.3,15.8-2.6,22.3.9,11.1,5.5,12.6,17.6,11.3,29.3"/><path class="cls-1" d="m47.6,91.1c-6.7-5.8-8.9-14-8.2-22.7"/><path class="cls-3" d="m64.5,123.8c-1.9,3.1-3.5,6.8-4.4,10.5"/><path class="cls-3" d="m100.7,153.5c1.4,3.2,2.8,5.3,4.3,8.5"/><path class="cls-3" d="m59.3,155.1c13.1-3.9,28.7-7.5,41.4-1.6"/><path class="cls-3" d="m60.3,162c12.9-3.3,28-5.2,40.6-2.4"/><line class="cls-3" x1="134.6" y1="159.6" x2="134.6" y2="159.6"/><line class="cls-3" x1="51.4" y1="177" x2="51.4" y2="177"/><path class="cls-3" d="m121,151.4c-1-3.7,3.7-6.5,6.9-5.3,3.5-2.8,8.7-4.4,13-3-1,2.8-5.8,3.7-7.5,6.4-1.6,2.3,1,3.9,3.2,3.4"/><path class="cls-3" d="m128.6,156.2c1.4,2.4,3.2-1.8,4.9-1.2,3.3,3.8-.4,10.1-5.4,6"/><path class="cls-3" d="m120.9,150c-5.4,1.2-6,13,0,13.5"/><path class="cls-3" d="m134.2,155.5c.8-1.9,4.2-4.4,5.9-2.2.3,2-1.2,4.2-2,6-.9.9-2.4.2-3.5.3"/><path class="cls-3" d="m123.1,159.4c-2.4.8-2.9,5.1-2,7.1,1,.9,3.1,1,4.3.3,2-1.6,0-7.7-2.3-7.5Z"/><path class="cls-3" d="m126,163c1.1-.3,1.9-1.1,2.4-2.1"/><path class="cls-3" d="m51.3,172.5c-1.1-4.3-4.3-5.3-8-6.2-6.9-5.8-23.6,11.9-6.9,5.3,2.5,2.2-.5,7.5,2.9,9.1,3.6.7,6.5-4.1,7.8-7,.1-4.4-5.2-1.1-6.6.9"/><path class="cls-3" d="m42.6,179.6c2,4.2,7.5.5,8.7-2.6,2.3-3.8-1.2-6.9-4.2-3.3"/><path class="cls-3" d="m48.3,180.1c5.5,5.3,13-4.7,6.7-5.8-1.5.5-1.6,3.8-3.6,2.8"/><path class="cls-3" d="m61.6,114.7c-4.6,16.7,38.1,16.5,30.7-.2"/><path class="cls-3" d="m64.7,114.4c-.3,12.3,26,11.4,24.9.2"/><path class="cls-1" d="m63.6,148.6c11.8-3.1,26.8-4.1,37.5.1"/><path class="cls-1" d="m58.3,150.3c1.7-.7,3.5-1.3,5.2-1.7"/><path class="cls-1" d="m56.8,144c12-2.8,33.1-6.1,44.7-1.3"/><path class="cls-1" d="m59,137.4c12.5-3.6,29.2-3,41.8-2.1"/><path class="cls-1" d="m61.3,130.5c12.1-.9,25.7-2.4,37.7-1.6"/><path class="cls-1" d="m78.4,134.7s0,0,0,0c-1.2,1.8-1.6,3.3-3.3,6.4"/><path class="cls-1" d="m85.2,134.7h0c1.3,1.8,2.6,3.7,3.9,5.5"/><path class="cls-1" d="m75,141.1c2.2,2,2.3,2.7,4.4,4.8"/><path class="cls-1" d="m88.9,140.1c-1.2,2.1-2,3.5-3,5.8"/><path class="cls-1" d="m85.3,134.4c1-2.1,2.3-3.7,3.5-5.7,0,0,0,0,0,0"/><path class="cls-1" d="m74.7,129.5c1.2,2,2.7,3.1,3.7,5.2"/><path class="cls-1" d="m62.9,136.4c.9,1.7,2.7,3.8,3.5,5.5-1.1,2.1-1.8,4.7-2.9,6.7"/><path class="cls-1" d="m94.2,128.6c1.5,1.5,3.5,4.7,4.6,6.5-1.4,1.7-2.3,4.2-3.9,5.9,1.5,2.6,1.8,4.5,3.2,6.9"/><path class="cls-1" d="m63.6,148.6h0c1.1,1.6,1.9,2.9,2.9,4.5"/><path class="cls-1" d="m79.5,146c-1.4,1.6-2.5,3.3-3.3,5.2"/><path class="cls-1" d="m85.9,146c1.3,1.4,2.8,3.4,4.1,4.8"/><path class="cls-1" d="m98.1,147.8c-1.2,1.5-2,2.5-3.3,3.6"/><path class="cls-1" d="m74.7,129.5c.3-1.1.7-1.8,1.5-2.6"/><path class="cls-1" d="m88.7,128.7c-1-1-1.5-2.1-2.5-3"/><path class="cls-1" d="m94.2,128.6c.2-1,1.4-3.4,2.1-4.4"/><path class="cls-1" d="m60.5,165.2c13.3-2.3,27.8-2.8,40.9-2.2"/><path class="cls-1" d="m57.5,189.9c16.1.2,34.5,1.3,49.6-1"/><path class="cls-1" d="m60.3,169.3c13.5-1.6,28.8-3.2,42-2"/><path class="cls-1" d="m59.9,173.4c14.6-1.6,29.2-2.7,43.2-2.1"/><path class="cls-1" d="m59.5,177.8c15-1.6,30-1.3,44.8-1.8"/><path class="cls-1" d="m59,181.8c15-.4,31.3-1.6,45.9-1.7"/><path class="cls-2" d="m97.4,185.2c3.4,0,6.4-.2,9-.2"/><path class="cls-1" d="m58.3,186.4c13.2-.3,26.7-.9,39.1-1.2"/><path class="cls-1" d="m83.9,158.5c1.8,11.5,2.5,23.8,2.5,35.5"/><path class="cls-1" d="m93.5,158.6c2.1,11.1,3.6,23.2,4.6,34.5"/><path class="cls-1" d="m69.9,159.9c-.2,10.8-1.2,22.5-2.9,33.2"/><path class="cls-1" d="m63.3,126.2c.9,1.2,1.5,2.6,2.2,3.9-.9,2.1-1.7,4.1-2.6,6.2"/><path class="cls-1" d="m61.8,44.2c3.8.9,6.3,3,8.6,6.1-.2-.1-.3-.2-.5-.3"/><path class="cls-1" d="m44,57c10.2-4.4,1.7-15.1-5.3-7.6-.3-5.9-6.6-6.1-7.4-.3-4.8-6.2-13.6-1.5-9.4,5.3-6.3-.8-7.6,8.8-1.3,9.8-4.3,3.4-1.4,9.6,4,6.8,1.3,5.2,4.6,7.2,8.1,2.1,4.2,6.5,7.1-1.1,6.7-4.6"/><path class="cls-1" d="m39.5,68.4c-3.5-3.2,4.2-17.5,6.5-8.7-1.6,2.9-2.6,4.9-3.3,8.9-1.2.3-2.4.5-3.2-.2Z"/><path class="cls-1" d="m95.7,65.9c3.5-1.6,4.3-2.8,1.7-7.1,5.5,2,8.1-3.8,3.1-6.7,7.6-2.1,6.5-12-1.4-10.7,3.1-5.5-5.3-10.4-8.5-4.9-1.5-5.3-8.3-5-7.8,1.1-3.8-.7-7.9.4-5.9,4.7"/><rect class="cls-17" x="117.8" y="34.5" width="23.9" height="23.9" transform="translate(2.1 98.4) rotate(-41.9)"/><rect class="cls-10" x="117.8" y="101.9" width="23.9" height="23.9" transform="translate(-36.9 69) rotate(-26.2)"/><polygon class="cls-6" points="95.8 7.1 91.7 30.6 68.2 26.5 72.3 3 95.8 7.1"/><polygon class="cls-17" points="44.1 25.3 29.6 44.2 10.6 29.7 25.2 10.7 44.1 25.3"/><polygon class="cls-10" points="26.5 78.5 32.5 101.6 9.3 107.6 3.4 84.5 26.5 78.5"/><polygon class="cls-4" points="68.2 26.5 91.7 30.6 95.8 7.1 72.3 3 68.2 26.5"/><rect class="cls-4" x="117.8" y="101.9" width="23.9" height="23.9" transform="translate(-36.9 68.8) rotate(-26.2)"/><polygon class="cls-4" points="32.5 101.6 9.3 107.6 3.4 84.5 26.5 78.5 32.5 101.6"/><polygon class="cls-4" points="29.6 44.2 10.6 29.7 25.2 10.7 44.1 25.3 29.6 44.2"/><rect class="cls-4" x="117.8" y="34.5" width="23.9" height="23.9" transform="translate(2.1 98.3) rotate(-41.8)"/><rect class="cls-5" x="43.1" y="148.3" width="20.8" height="20.8" transform="translate(-112.2 182.8) rotate(-79.7)"/></svg>