<?xml version="1.0" encoding="UTF-8"?><svg id="Layer_1" xmlns="http://www.w3.org/2000/svg" width="150" height="196" viewBox="0 0 150 196"><defs><style>.cls-1,.cls-2,.cls-3{stroke-linecap:round;}.cls-1,.cls-2,.cls-3,.cls-4{stroke:#000;}.cls-1,.cls-2,.cls-3,.cls-4,.cls-5{fill:none;}.cls-1,.cls-3{stroke-linejoin:round;}.cls-2,.cls-6,.cls-4,.cls-5{stroke-miterlimit:10;}.cls-6{fill:#5b2ac2;}.cls-6,.cls-5{stroke:#fff;}.cls-3{stroke-width:.5px;}.cls-7,.cls-8,.cls-9,.cls-10,.cls-11,.cls-12,.cls-13,.cls-14,.cls-15,.cls-16,.cls-17{stroke-width:0px;}.cls-8{fill:#f8ce96;}.cls-9{fill:#30281f;}.cls-10{fill:#3a2c29;}.cls-11{fill:#d2164f;}.cls-12{fill:#90623c;}.cls-13{fill:#b52d00;}.cls-14{fill:#00a553;}.cls-15{fill:#926350;}.cls-16{fill:#fff;}.cls-17{fill:#ebae52;}</style></defs><path class="cls-12" d="m125.9,143.6c-4.1-1.4-9.2.2-12.6,2.9-2.5-1-6.5.8-6.8,3.5-2-.7-4.6-.7-7-.2-2.1-4.4-3.3-6.8-5.5-12.9-1.6,1.3-3.4,2.5-5.2,3.1.1,3-.3,6-2.1,12.6,6.2,11.8,4.6,19.2,19.7,11.1-1.3,5.1,7.2,4.3,5.1-.8,0,0,0,0,0,0h0c1-.3,1.8-1,2.2-1.9,2,1.6,5.7,1.7,6-1.5,1.1-.1,2.5.6,3.5-.3,1.5-2.4,3.9-8.5-1.4-6.2h0c-2.2.5-4.7-1.1-3.2-3.3,1.7-2.6,6.3-3.5,7.3-6.2Z"/><path class="cls-17" d="m89.2,103.5c.9.2.7,2.5.5,3.4-1.9.6-5.2,2.1-5.8-.8-1-2.5,3.7-2.6,5.3-2.6Z"/><path class="cls-17" d="m88.4,99.4c1.8-.4,1.5,2.2,1.3,3.5-1.3.6-3.3.7-4.8.8-2.8-2.8.3-4.3,3.6-4.3Z"/><path class="cls-17" d="m89,122.9c0,1.3-.9,4.5-2.2,7.7-9.6,2.4-8.6,2.6-5.4-5.9,2.2-.9,5.2-1.6,7.7-1.8Zm-4,5.6c.4-1,.7-2,.7-2.4-.8,0-1.7.3-2.4.6-.9,2.4-1.4,2.7,1.7,1.8Z"/><path class="cls-7" d="m85,70.2c-.2-.8-.3-1.5-.4-1.7-4.2-.3-11.6,1.2-13.8,2.5,2.1,4,1.6,10.8,6.2,10.9,9.2-1.7,10.6-2.2,8-11.7Zm1.1-3.3c1.8,10.6,4.5,15.4-9,17.1-6.8.5-6.4-10-8.8-14.7,5.5-2.8,11.6-4.2,17.7-3.5v.3s0,.3,0,.8Z"/><path class="cls-16" d="m85,70.2c2.7,9.5,1.2,10-8,11.7-4.7-.1-4.1-6.9-6.2-10.9,2.2-1.3,9.7-2.8,13.8-2.5,0,.3.2.9.4,1.7Zm-5.7,7.5c1.3-.3-.3-5.5-1.6-5-1.3.3.3,5.5,1.6,5Z"/><path class="cls-17" d="m86.2,157.3c0,2.2.4,4.8.9,7.4-5.9-1.4-21.8-.7-39.9.3.5-1.6.5-3.6.4-5.9,20.3-3,29.3-1.8,38.6-1.8Z"/><path class="cls-12" d="m73.1,113.4c3.4.8,7.6,1.3,10.6,2.4v.3c.3,13.4-18.5,15.6-28.7,10.1-5-2.4-7.5-10.2-12.4-10.1,3.2-.5,8.3-1.4,11.6-1.9-1-3.5-4.5-7.9-8.1-11.5-3.4,1.6-8.3-2.3-10-4.7-1.8-4.1.3-7.5,5-5.6-.3-2.6-1-5-1.8-7.4,2.1-1,4.2-2,6.2-3,1.2,4.5,3.2,10.1,9.2,8.4,5.7-1.7,14.2-2.6,11.6-10.3,3-.6,3.2-.5,5.1-1.2,1.4,8.2,8.1,3.7,13.4,3.5,2.5,9.1-2.6,20.1-11.1,23.8,0,.4-.5,5.7-.5,7.2Z"/><path class="cls-8" d="m85.7,126.1c0,.4-.3,1.4-.7,2.4-3,.9-2.6.6-1.7-1.8.7-.3,1.6-.5,2.4-.6Z"/><path class="cls-17" d="m81.8,105.6c1.2,0,.8,2,.7,2.6-4.9,2.4-6.7-2.8-.7-2.6Z"/><path class="cls-17" d="m79.3,111.8c-1.8.6-4.2.9-4-1.5.6-1.2,2.9-1.4,4.1-1.2.6.2.5,1.9.3,2.6-.1,0-.2.1-.4.2Z"/><path class="cls-7" d="m79.5,74.8c1,3.2-1.1,3.9-2,.6-1-3.2,1-3.9,2-.6Z"/><path class="cls-12" d="m43.2,75.7s.1.3.3.6h-.2c0,0,0,.4,0,.4-1.1,1-3.3,3-5.2,4.7-3.6-8.8,5-18.1,12.1-21.9,1.6-.7,6-1.9,5.6-4.2-.4-2-3.5-.8-4.9-.5,4.5-3.2.1-4.1-3.4-2.6.8-.5,1.1-1.3.4-1.9.1-.2.2-.4.2-.7.5.3,1.8,0,2.3-.3,0,1,1.8,1.5,2.7,1.5.7,1,4.4,1.4,6.2,1.1-1.6.3-3.2,1-2.8,2,.6,1.9,6.2,1.2,7.7,1.5,7,0,11.7,4.3,14.7,10.4-.8,0-1.6.2-2.4.4-1.8-.7-4,0-5.1,1.6-.5.2-2.8,1.2-3.3,1.4.6,2,1.1,3.6,1.7,5.3-1.4.4-2.6.6-4.3,1.1-.3-1.7-.6-3.5-1-5.6-2.1,0-4.2,0-6.3.3-2.7-1.2-6.1-.5-8,1.8-2.5.8-4.9,1.9-7.2,3.2v.3c0,0,0,0,0,0Z"/><path class="cls-17" d="m77.8,132.2c.4.2.7.4,1.1.6-1.1,1.3-4.5,3.5-8.5,5.5-12.5-4.9-10.5-3.9-.9-9.4,2.6.6,5.8,1.9,8.4,3.3Zm-7.7,2.9c1.3-.6,2.4-1.3,2.7-1.7-.9-.5-2-1-3-1.2-2.9,1.6-3.6,1.5.3,2.9Z"/><path class="cls-8" d="m72.9,133.4c-.3.4-1.5,1.1-2.7,1.7-3.9-1.4-3.2-1.3-.3-2.9,1,.2,2.1.7,3,1.2Z"/><path class="cls-7" d="m71.4,79c-2,.7-2.1.6-5.1,1.2-.2-1.5-.4-2.9-.7-4.5,1.7-.4,2.8-.6,4.3-1.1.5,1.5,1,2.9,1.5,4.4Z"/><path class="cls-11" d="m89.7,122.6c-2.5-3.8-2.3-5.4-5.9-6.8v.3c.3,13.9-20.1,15.9-30,9.3-6.4-5.6-10.3-15.1-16.3-4-2.5,4-4.7,9.3-5.6,12.4,4.2,2.9,8.2,4.4,13.4,5.6-.7,2-1.3,4-1.9,6.1h0c2.2,3.1,4,9.3,4.3,13.5,20.3-3,29.3-1.8,38.6-1.8,0-5.9,3.3-14.1,2.6-17.2,2.6-.8,5.2-2.8,7.1-4.9-1.6-4-4.1-8.9-6.2-12.6Zm-39.3,13c-9.8-9.4-8-7.5,2.8-9,2.5,1.8,5.3,4.6,7.2,7.2-1.5.8-5.5,1.5-9.9,1.9Zm20,2.7c-12.5-4.9-10.5-3.9-.9-9.4,3,.7,6.6,2.2,9.4,3.9-1.1,1.3-4.5,3.5-8.5,5.5Zm16.5-7.7c-9.6,2.4-8.6,2.6-5.4-5.9,2.2-.9,5.2-1.6,7.7-1.8,0,1.3-.9,4.5-2.2,7.7Z"/><path class="cls-11" d="m47.2,165.1h0c-1.3,5.8-3.4,19.9-5.2,24,15.2,4.6,36.2,5.8,51,0-1.2-6.4-4.4-16.1-6-24.4-5.9-1.4-21.8-.7-39.9.3Z"/><path class="cls-7" d="m46.2,77.2s0,0,0,0h0Zm0,.1c1,1.5,1.6,12.9,7.4,11.1,4.5-1.7,12.5-1.3,10.4-7.9.7,0,1.6-.2,2.2-.3,2.7,7.7-5.9,8.6-11.6,10.3-8.7,2.4-8.8-10.1-11.5-14.7,0,0,0,0,0,0v-.3c2.3-1.3,4.7-2.4,7.2-3.2-.7.8-1.2,1.8-1.5,2.9l.4.8c-1,.4-2,.9-3,1.5Z"/><path class="cls-7" d="m65.6,75.7c.2,1.6.5,3,.7,4.5-.6.1-1.6.3-2.2.3-.2-1.4-.4-2.8-.6-4.4.1,0,1-.1,1.1-.2h0c.4,0,.7-.2,1.1-.2Z"/><path class="cls-7" d="m58.4,70.3c2.1-.3,4.2-.3,6.3-.3.4,2.1.7,3.9,1,5.6-.3,0-.7.2-1.1.3h0c0,0-1,.1-1.1.2-.2-1-.3-2.1-.6-3.4-2.8,0-8.1.7-13.6,3.1l-.4-.8c.2-1.1.8-2.1,1.5-2.9,2.6-.9,5.3-1.5,8-1.8Z"/><path class="cls-16" d="m64.3,82.7c-.3,4.8-7,4-10.7,5.7-5.7,1.9-6.3-9.6-7.4-11.1,5-3,13.6-4.8,16.7-4.6.6,3.5,1,6.6,1.4,10Zm-5.7.2c1.6-.4-.2-6.2-1.7-5.6-1.6.4.2,6.2,1.7,5.6Z"/><path class="cls-7" d="m59,79.7c1.1,3.7-1.4,4.4-2.5.8-1.1-3.7,1.4-4.4,2.5-.8Z"/><path class="cls-17" d="m53.1,126.6c2.5,1.8,5.3,4.6,7.2,7.2-1.5.8-5.5,1.5-9.9,1.9-9.8-9.4-8-7.5,2.8-9Zm-1.7,5.9c1.4,0,2.7-.3,3.2-.5-.6-.8-1.5-1.7-2.3-2.2-3.3.3-3.9,0-.8,2.8Z"/><path class="cls-8" d="m54.5,132c-.5.2-1.7.4-3.2.5-3.1-2.8-2.5-2.4.8-2.8.8.6,1.7,1.4,2.3,2.2Z"/><path class="cls-10" d="m45.3,57.1c2.3-1.5,3-1.9,5.6-2.3,0,0-3.1,1-5.6,2.3Z"/><path class="cls-7" d="m46.2,77.2s0,0,0,0h0Z"/><path class="cls-7" d="m45.5,82c-2.1,1-4.2,2-6.2,3-.4-1.2-.8-2.4-1.2-3.6,1.9-1.7,4.1-3.8,5.2-4.7v-.3s.2,0,.2,0c.4,1,1.2,3.2,2.1,5.7Z"/><path class="cls-10" d="m45.3,57.1c-.6.4-1.3.8-2.1,1.4.5-.5,1.3-1,2.1-1.4Z"/><path class="cls-17" d="m41.2,114.1c.5.2.3,1.9.1,2.6-2.5,1-3.5.2-3.2-2.5,0,0,0-.2.1-.4.6,0,2.5.1,2.9.3Z"/><path class="cls-17" d="m40.4,110.7c1.5-.2,1.1,1.7.8,2.7-.7.4-2,.4-3,.4.2-.9.4-2.3,0-2.9.7-.2,1.5-.2,2.2-.2Z"/><path class="cls-10" d="m35.6,67.7c2.2-4.3,5.3-7.6,7.6-9.2-2.1,1.9-5.6,5.9-7.6,9.2Z"/><path class="cls-10" d="m39.3,85c.8,2.3,1.5,4.8,1.8,7.4-1.7-.7-5.4-.8-5.6,1.7-.1-2.3-.2-4.8-.1-7.2,1.3-.6,2.6-1.3,3.9-1.9Z"/><path class="cls-7" d="m39.3,85c-1.3.6-2.6,1.2-3.9,1.9,0-1.1,0-2.3.2-3.4.7-.4,1.6-1.2,2.6-2.1.4,1.2.8,2.4,1.2,3.6Z"/><path class="cls-17" d="m38.3,110.9c.4.6.3,2,0,2.9,0,0-.1.2-.1.4-.2,0-.5.1-.7.2,0,0,0,0,0,0-.8.2-1.8.3-2.7.3,0,0,0,0,0,0h0c-1.8.5-2.5-1.4-2.4-2.7.8-1.4,4.6-1.9,5.9-1Z"/><path class="cls-17" d="m37.6,106.4c.8.3.5,2.6.2,3.5-1.3.4-4.4,1.4-5-.2-1.4-3.5,2.3-3.9,4.7-3.2Z"/><path class="cls-10" d="m36.9,75.8c.2,1.9.7,3.7,1.2,5.6-1,.9-1.9,1.6-2.6,2.1.2-2.9.6-5.6,1.3-7.7Z"/><path class="cls-15" d="m35.7,96.7c0,0,0,.1,0,.2-.2-.8-.4-1.8-.2-2.7,0,.9,0,1.7.2,2.5Z"/><path class="cls-10" d="m35.6,67.7c-4.2,7.5-4.7,18.6-4,27.2-.7-9-.7-19.6,4-27.2Z"/><path class="cls-12" d="m42.4,173.8c-1.5.5-1.6,3.8-3.6,2.7.6-1.3,1.2-3.3,0-4.4-.1-.3-.2-.6-.4-.9.6-9.3,2.9-20.6,6.7-31.8-4.6-1.1-8-2.3-11.9-4.7-.1,1.2-7.6,29.9-6.8,30.3-6.7.8-15.4,11.6-2.1,6.2,2.5,2.4-.9,12.2,6.1,7.9,1,2.3,4.1,1.9,5.7.5,5.2,4.6,12.4-4.8,6.3-5.9Z"/><path class="cls-17" d="m34.2,110.4c0,.1.1.2.2.4-2.1.4-2.3,1.3-1.5,3.2-2.4.3-4.7.7-4.5-2.6.6-1.3,3.4-1.4,4.7-1.4.2.6.7.3,1.2.4Z"/><path class="cls-17" d="m33.5,105.9c.2,0,.3.2.4.5-1.7.4-1.3,1.6-1.1,3.3-2,.2-4.5,1.2-4.3-2-.4-2.4,3.6-2.1,4.9-1.7Z"/><path class="cls-17" d="m25.4,104.5c1.8-.3,5-1.4,4.7,1.3-1.1.2-1.6.6-1.5,1.6-1.2.2-2.8.5-3.7.5-1-.7-1.5-3.1.5-3.4Z"/><path class="cls-17" d="m30.1,109.9c0,.2,0,.3,0,.4-.9.2-1.6.6-1.7,1.1-2.1.3-4.2.5-4-2.3.7-1.2,2.8-1.4,4.3-1.5.1,1.6.2,2.5,1.5,2.3Z"/><path class="cls-9" d="m88.8,107.3c-1.2.4-2.8.4-4,.4-1.5-1.3-1.7-3.7,1.2-4-1.6.6-2.3-1.2-2.3-2.6.3-1.1,3.1-1.7,4.7-1.7,0-7.6-.1-13.9-.8-19.4l-.5-.2c-.7,1.3-2,2.2-3.4,2.5h1.2c2.5,9.2-2.6,20.2-11.1,23.8,0,.4-.5,5.7-.5,7.2,1.8.4,3.7.8,5.5,1.1,0-.6.2-1.6,0-2.5-1.9.4-3.4.4-3.4-1.7.6-1.2,2.9-1.4,4.1-1.2.6.2.5,1.9.3,2.6-.1,0-.2.1-.4.2-.8,1.7,1.8,4.5,2.3.8.2-2.7,0-2.9.1-4.1-1.8.5-3.8.7-3.7-1.6.3-1,3-1.4,4.1-1.2.8.4.5,2,.4,2.6-.1,0-.2.1-.4.2,1.4,12.4,3.9,5.7,3-.4-.6,8.7,4.4,6.1,3.6-.6Z"/><path class="cls-9" d="m78.9,65.7s0,.1,0,.2c1.4-.2,2.9-.2,4.3-.2-7.7-15.6-15.4-22.6-29.8-19.5-1.9-1.4-6.7-.8-7.2,1.3-2-.9-5.1-.1-6,1.9-21,2.3-22.6,44.3-15.5,59.3.8-.6,2.7-1,3.9-1,0,0,0-.1,0-.2-1.2.2-2.8.5-3.7.5-1-.7-1.5-3.1.5-3.4,1.8-.3,5.1-1.5,4.7,1.3,1.4-.1,3.2-.5,3.8.6,3-.7,5.2-.1,3.9,3.5-.3.1-.6.2-.9.3,0,.1,0,.2,0,.4.6,0,1,0,1.3.4,2.3-.6,4-.2,3,2.5-.6.3-1.8.4-2.8.4,2.4,0,3.6,0,2.9,2.8h0c3.6-1.3,9.1-1.5,12.9-2.4-1-3.5-4.5-7.9-8.1-11.5-3.4,1.6-8.3-2.3-10-4.7-1.5-7.1-1.1-16.4,1.2-23.3,6.5-16.9,16.9-13.8,18.5-19.4-1.2-2.8-6.7.2-10.5,1.8,2.3-1.5,3-1.9,5.6-2.3,4.5-3.2.1-4.1-3.4-2.6.8-.5,1.1-1.3.4-1.9.1-.2.2-.4.2-.7.5.3,1.8,0,2.3-.3,0,1,1.8,1.5,2.7,1.5.7,1,4.4,1.4,6.2,1.1-1.6.3-3.2,1-2.8,2,.6,1.9,6.2,1.2,7.7,1.5,6.9,0,11.6,4.2,14.6,10.2Zm-35.6-7.2c-10.3,8.1-13.1,23.6-11.6,36.4-1.7-13.5,1.5-31,13.7-37.8-.6.4-1.3.8-2.1,1.4Z"/><path class="cls-9" d="m74.4,66c-1.2.2-2.3.9-3,1.8,1.7-.7,3.4-1.2,5.1-1.6-.7-.2-1.4-.3-2.1-.2Z"/><path class="cls-9" d="m53.3,70.1c-1.1.4-2.1,1.1-2.9,2,2.6-.9,5.3-1.5,8-1.8-1.6-.7-3.5-.8-5.1-.2Z"/><path class="cls-9" d="m34.8,114.7c-.8-.1-1.6.3-2-.7-.8.1-1.6.2-2.4.2,1.2,7,4.3,9.4,3.5.5,1.6,10.9,4.9,7.9,3.6-.3-.8.2-1.8.3-2.7.3Z"/><path class="cls-9" d="m28.3,111.4s0,0,0,0c-.8.1-1.6.1-2.4,0,.5,1.7,1.1,5.7,2.2,5.3,1.6.3,1.3-1.1,1.4-2.7-.9.3-1.4-2-1.3-2.7Z"/><path class="cls-4" d="m54.7,115.5c-1.2-4.3-4.4-8.6-8.5-12.7"/><path class="cls-4" d="m83.6,116.1c.5,13.4-18.4,15.6-28.5,10.1-5-2.4-7.5-10.2-12.4-10.1"/><path class="cls-2" d="m84.8,82.5c2.5,9.1-2.6,20.1-11.1,23.8,0,1-.6,6.9-.6,8.7"/><path class="cls-1" d="m77.5,75.5c1,3.2,3.1,2.6,2-.6-1-3.2-3.1-2.6-2,.6Z"/><path class="cls-1" d="m56.6,80.5c1.1,3.7,3.6,2.9,2.5-.8-1.1-3.7-3.6-2.9-2.5.8Z"/><path class="cls-1" d="m62.5,94.2c4.7,1.6,9.7.6,14-2.6"/><path class="cls-1" d="m41.1,92.4c-4.5-1.8-7,1.5-5,5.6,1.3,2.3,9.7,8.3,10.6,3.1"/><path class="cls-1" d="m67,88.1c1.8-3,5.5-5.7,7.7-1.1"/><path class="cls-1" d="m36.8,74.8c.3,6.1,3.6,11.5,4.3,17.6"/><path class="cls-2" d="m45.8,139.7c.4-1.1.8-2.2,1.2-3.3"/><path class="cls-4" d="m38.9,166.1c.7-5.4,3.4-18.8,6.3-26.6"/><path class="cls-4" d="m33.3,134.8s-6.7,27.6-6.7,27.7"/><path class="cls-4" d="m42.6,116.2c3.2-.5,8.3-1.4,11.6-1.9"/><path class="cls-2" d="m45.8,139.6c-5.3-1.2-9.6-2.8-13.9-5.8,1.6-4.6,5.2-15.4,10.8-17.7"/><path class="cls-4" d="m93.9,136.8c2.3,5.9,3.2,8.6,5.5,12.7"/><path class="cls-2" d="m88.7,140.1c2.6-.8,5.2-2.8,7.1-4.9-2.1-5.4-6.3-13.2-9.2-17.6-3.2-3.2-9.2-2.9-13.6-4.2"/><path class="cls-4" d="m91.1,162c2.3,8.9,9.8,4.1,15.3,1.8"/><path class="cls-4" d="m106.5,150.1c-6.9-2.4-19.9,3.1-15.5,11.9"/><path class="cls-4" d="m38.5,171.3c.3-2.2.2-4.1.4-5.1"/><path class="cls-4" d="m26.6,162.4c-.2.9-.2,1.8-.2,2.7"/><path class="cls-2" d="m93,189.1c-14.8,5.8-35.8,4.6-51,0,2-4.9,4-19.3,5.6-25.7.5-5.2-1.4-13.5-4.3-17.7"/><path class="cls-2" d="m86.6,152.7c-2.1,11.3,4.9,26.5,6.4,36.4"/><path class="cls-4" d="m87.8,132.6c1.2,8.9,1.6,9.5-1.2,20.1"/><path class="cls-4" d="m86.6,152.7c1.3,3.1,3,6.2,4.4,9.3"/><path class="cls-4" d="m47.6,159.1c20-2.9,29.4-1.8,38.2-1.8"/><path class="cls-4" d="m47.2,165.1c18-1.1,33.9-1.8,39.9-.3"/><line class="cls-3" x1="86" y1="66.9" x2="86" y2="67.1"/><line class="cls-3" x1="86" y1="66.8" x2="86" y2="66.9"/><line class="cls-3" x1="65.4" y1="80.3" x2="65.1" y2="80.4"/><line class="cls-3" x1="64.5" y1="75.9" x2="64.4" y2="76"/><line class="cls-3" x1="69.7" y1="74.7" x2="69.5" y2="74.8"/><line class="cls-3" x1="71.2" y1="79.1" x2="70.8" y2="79.2"/><line class="cls-3" x1="43.3" y1="76.4" x2="43.3" y2="76.7"/><line class="cls-3" x1="68.3" y1="70.3" x2="68.3" y2="70.3"/><path class="cls-3" d="m84.7,69.4s0,0,0,0"/><path class="cls-3" d="m87.4,79.1c.9-3.5-1.6-10.3-1.5-12.8"/><path class="cls-3" d="m69.5,74.8c-1.5.4-3.2.8-4.9,1.2"/><path class="cls-3" d="m70.8,79.2c-1.4.4-3,.7-5.4,1.1"/><path class="cls-3" d="m83.5,65.7c.1,0,2.4.1,2.5.1"/><path class="cls-3" d="m46.3,77.3c1,1.5,1.6,12.9,7.4,11.1,13.1-2.9,11.3-3.6,9.3-15.7-3.1-.2-11.7,1.7-16.7,4.6"/><path class="cls-3" d="m46.2,77.2s0,0,0,0h0Z"/><path class="cls-3" d="m46.3,77.3s0,0,0-.1t0,0"/><path class="cls-3" d="m43.2,75.7s0,0,0,0c2.6,4.6,2.8,17.1,11.5,14.7,16.1-3.3,11.9-7,10-20.4"/><path class="cls-3" d="m43.3,75.9c0-.1,0-.2,0-.2"/><path class="cls-3" d="m43.2,75.4c6.6-3.7,14-5.6,21.5-5.3"/><path class="cls-3" d="m84,80.1c-11.3,4-9.7.6-13.3-9.2,2.2-1.3,9.7-2.8,13.8-2.5,0,3.2,4,10-.6,11.7Z"/><path class="cls-3" d="m87.4,79.1c-1.5,4.1-6.9,3.8-10.4,4.9-6.8.5-6.4-10-8.8-14.7,4.8-2.3,10-4,15.3-3.6"/><path class="cls-3" d="m59.4,51.9c-1.6.3-3.2,1-2.8,2,.6,1.9,6.2,1.2,7.7,1.5,7.5,0,12.1,5,15.3,11.3"/><path class="cls-3" d="m59.9,51.8c-.2,0-.3,0-.5.1"/><path class="cls-3" d="m83.6,66.7c-4.1-9.6-12.7-16.3-23.7-14.9"/><path class="cls-3" d="m88.4,99.6c0-7.6-.1-14.1-.8-19.5"/><path class="cls-3" d="m85.2,107.9c-.7,8.1,4.1,6.7,3.7-.4"/><path class="cls-3" d="m37.5,114.4c0,.6.5,5.8,0,7-2.3,1.9-3.1-4.9-3.5-6.7"/><path class="cls-3" d="m37,110.6c0-.1,0-.2,0-.4"/><path class="cls-3" d="m31.7,96.1c.3,3.2.8,6,1.5,9.7"/><path class="cls-3" d="m45.3,57.1c-12.2,6.5-15.2,24.6-13.7,37.8"/><path class="cls-3" d="m36.5,106.2c-1.9-16.2-3.3-38.2,13.8-46.6,1.6-.7,6-1.9,5.6-4.2-.7-2.8-8.8.4-10.5,1.8"/><path class="cls-3" d="m79.3,60.4c-10.1-22-39.5-8.1-19.4-8.6"/><path class="cls-3" d="m33.9,114.7c.7,8.9-2.3,6.4-3.5-.5"/><path class="cls-3" d="m47.5,52.2c-21.6,6.4-21.6,32.2-18.4,51.8"/><path class="cls-3" d="m31.7,96.1c-2-14.2,1-31.2,13.6-39,2.4-1.3,5.6-2.3,5.6-2.3,4.5-3.2.1-4.1-3.4-2.6"/><path class="cls-3" d="m52.8,50.7c-3.8,0-2.5-4,.6-4.5,14.6-3.4,23,4.7,30.3,20.5"/><path class="cls-3" d="m26,111.5c.5,1.7,1.1,5.7,2.2,5.3,1.6.3,1.3-1.1,1.4-2.7"/><path class="cls-3" d="m47.3,52.4c0,0,.2,0,.2-.1,0,0,0,0,0,0,2.6-2.5-2.1-2.6-4.5-2.2-21.6,7.1-20.9,35.3-17.6,54.5"/><path class="cls-3" d="m81.8,105.7c0-1.5-.2-3.8-.3-4.7"/><path class="cls-3" d="m79.3,111.7c0,.3-.2.6,0,1.4.2,1.6,2.2,2,2.4-.5.2-2.9,0-2.9.1-4.4"/><path class="cls-3" d="m75.8,109.9c0-1.6,0-1.8-.1-2.5"/><path class="cls-3" d="m76,114.2c0-.7-.2-1.4-.2-2.3"/><path class="cls-3" d="m78.7,112.2c0,1.2,0,1.9-.2,2.8"/><path class="cls-3" d="m85.2,107.9c1,6.2-1.7,12.7-3,.4"/><path class="cls-3" d="m46.3,47.4c.5-2,5.2-2.6,7.1-1.2"/><path class="cls-3" d="m50.4,49.3s0,0,0,0c-.5.3-1.8.6-2.3.3"/><path class="cls-3" d="m47.9,50.3c1.4-4.5-9-4-7.6.4"/><path class="cls-3" d="m39.8,101.4c.2,3.1.4,6.3.6,9.4"/><path class="cls-3" d="m45.1,115.8c-.4-1.3-1.2-10.1-1.5-12.8"/><path class="cls-3" d="m48.2,105.8c.3,1.7.4,5.9.2,9.2"/><path class="cls-3" d="m75.8,111.9c-1.7-2.4,1.4-2.9,3.1-2.9,1.3-.2,1,1.7.8,2.6-1.1.4-3.2,1-4,.3"/><path class="cls-3" d="m88.4,103.4c1.8-.3,1.5,2.2,1.3,3.5-1.4.7-3.4.8-4.8.8-2.9-2.9.6-4.4,3.6-4.3Z"/><path class="cls-3" d="m88.4,99.4c1.8-.4,1.5,2.2,1.3,3.5-1.3.7-3.3.8-4.8.8-2.8-2.8.3-4.3,3.6-4.3Z"/><path class="cls-3" d="m34.4,110.8c1.3-.2,3-.6,3.9.1"/><path class="cls-3" d="m34.8,114.7c-.8-.1-1.6.3-1.9-.7"/><path class="cls-3" d="m37.5,114.4c-.8.2-1.8.3-2.7.3"/><path class="cls-3" d="m38.3,113.8c0,.1,0,.3-.2.4"/><path class="cls-3" d="m34.8,114.7h0s0,0,0,0Z"/><path class="cls-3" d="m37.5,114.4s0,0,0,0c.2,0,.4-.2.6-.2-.2,0-.4.2-.6.2"/><path class="cls-3" d="m81.8,105.6c1.2,0,.8,2,.7,2.6-4.9,2.4-6.7-2.8-.7-2.6Z"/><path class="cls-3" d="m38.5,113.8c2.4,0,3.6,0,2.9,2.8-2.7,1.2-3.7-.2-3-2.8"/><path class="cls-3" d="m28.6,107.4c-1.2.2-2.8.5-3.7.5-1-.7-1.5-3.1.5-3.4,1.8-.3,5.1-1.5,4.7,1.3"/><path class="cls-3" d="m30.1,109.9c0,.2,0,.3,0,.4"/><path class="cls-3" d="m28.3,111.4c-2.1.3-4.2.5-4-2.3.7-1.2,2.8-1.4,4.3-1.5"/><path class="cls-3" d="m33.9,106.4c3-.7,5.2-.1,3.9,3.5-1.1.5-2.5.6-3.7.5"/><path class="cls-3" d="m33,110c0-.1,0-.2-.1-.4"/><path class="cls-3" d="m85,69.8s0,.3,0,.3"/><path class="cls-3" d="m40.1,49.3c-20.9,2.8-22.4,44.2-15.4,59.3"/><path class="cls-3" d="m32.8,114c-2.4.3-4.7.7-4.5-2.6.6-1.3,3.4-1.4,4.7-1.4.2.6.7.3,1.2.4,0,.1.1.2.2.4-2.1.4-2.3,1.3-1.5,3.2Z"/><path class="cls-3" d="m32.9,109.7c-2.7.5-4.8.8-4.3-2.9.7-1.4,4.5-1.6,5.3-.4-1.7.4-1.3,1.6-1.1,3.3Z"/><path class="cls-3" d="m40.4,110.7c1.5-.2,1.1,1.7.8,2.7-.7.4-2,.4-3,.4.2-.9.4-2.3,0-2.9.7-.2,1.5-.2,2.2-.2Z"/><path class="cls-4" d="m43.3,76.7c-1.6,1.4-5.6,5.4-7.9,6.9"/><path class="cls-4" d="m45.4,82.1c-3.4,1.6-6.7,3.2-10.1,4.8"/><path class="cls-3" d="m59.8,71.2c-3.8-3.1-10-.9-11,3.9"/><path class="cls-3" d="m70.8,69c1.1-3.3,5.9-4,7.9-1.1"/><path class="cls-3" d="m69.5,128.9c3,.7,6.6,2.2,9.4,3.9-1.1,1.3-4.5,3.5-8.5,5.5-12.5-4.9-10.5-3.9-.9-9.4Z"/><path class="cls-3" d="m69.9,132.2c1,.2,2.1.7,3,1.2-.3.4-1.5,1.1-2.7,1.7-3.9-1.4-3.2-1.3-.3-2.9Z"/><path class="cls-3" d="m53.1,126.6c2.5,1.8,5.3,4.6,7.2,7.2-1.5.8-5.5,1.5-9.9,1.9-9.8-9.4-8-7.5,2.8-9Z"/><path class="cls-3" d="m52.2,129.8c.8.6,1.7,1.4,2.3,2.2-.5.2-1.7.4-3.2.5-3.1-2.8-2.5-2.4.8-2.8Z"/><path class="cls-3" d="m81.2,125c0-.1,0-.2.1-.3,2.2-.9,5.2-1.6,7.7-1.8,0,1.3-.9,4.5-2.2,7.7-9.1,2.2-8.7,2.9-5.6-5.6Z"/><path class="cls-3" d="m83.3,126.7c.7-.3,1.6-.5,2.4-.6,0,.4-.3,1.4-.7,2.4-3,.9-2.6.6-1.7-1.8Z"/><path class="cls-4" d="m106.6,151.7c-1-3.6,3.6-6.4,6.7-5.1,3.4-2.7,8.5-4.3,12.6-2.9-1,2.7-5.6,3.6-7.3,6.2-1.5,2.3,1,3.8,3.2,3.3"/><path class="cls-4" d="m114,156.4c1.5,2.6,3.7-3,5.4-.7h0c2,4.4-1.4,8.9-5.8,5.3"/><path class="cls-4" d="m106.5,150.3c-5.2,1.1-5.8,12.7,0,13.1"/><path class="cls-4" d="m119.4,155.6c.8-1.9,4.1-4.3,5.7-2.1.3,1.9-1.1,4.1-1.9,5.8-.9.9-2.3.2-3.4.3"/><path class="cls-4" d="m108.6,159.5c-2.3.8-2.8,4.9-2,6.9,1,.9,3,1,4.2.3,2-1.6,0-7.5-2.2-7.2Z"/><path class="cls-4" d="m111.5,163c1-.3,1.9-1.1,2.3-2"/><path class="cls-4" d="m38.9,172.2c-1-4.2-4.1-5.1-7.8-6.1-6.7-5.6-22.9,11.6-6.7,5.1,2.5,2.1-.4,7.3,2.8,8.8,3.5.7,6.3-4,7.6-6.8.1-4.3-5.1-1.1-6.4.8"/><path class="cls-4" d="m30.4,179.1c1.9,4.1,7.3.4,8.5-2.5,2.2-3.7-1.1-6.7-4.1-3.2"/><path class="cls-4" d="m35.9,179.5c5.2,5.1,12.7-4.5,6.5-5.7-1.5.5-1.6,3.7-3.5,2.7"/><rect class="cls-14" x="109.8" y="75.2" width="20.8" height="20.8" transform="translate(-25.5 61.8) rotate(-26.2)"/><polygon class="cls-13" points="33.7 1 44.4 18.8 26.6 29.6 15.9 11.7 33.7 1"/><polygon class="cls-5" points="15.9 11.7 26.6 29.6 44.4 18.8 33.7 1 15.9 11.7"/><rect class="cls-5" x="109.8" y="75.2" width="20.8" height="20.8" transform="translate(-25.5 61.8) rotate(-26.2)"/><rect class="cls-6" x="28.1" y="148.3" width="20.8" height="20.8" transform="translate(-124.5 168.1) rotate(-79.7)"/></svg>