<?xml version="1.0" encoding="UTF-8"?><svg id="Layer_1" xmlns="http://www.w3.org/2000/svg" width="150" height="196" viewBox="0 0 150 196"><defs><style>.cls-1{stroke-linejoin:round;}.cls-1,.cls-2{stroke-linecap:round;}.cls-1,.cls-2,.cls-3{stroke:#000;}.cls-1,.cls-2,.cls-3,.cls-4{fill:none;}.cls-2,.cls-5,.cls-3,.cls-4{stroke-miterlimit:10;}.cls-5,.cls-4{stroke:#fff;}.cls-5,.cls-6{fill:#b52d00;}.cls-7,.cls-8,.cls-9,.cls-10,.cls-11,.cls-12,.cls-13,.cls-14,.cls-15,.cls-6,.cls-16,.cls-17,.cls-18,.cls-19,.cls-20,.cls-21,.cls-22,.cls-23,.cls-24,.cls-25{stroke-width:0px;}.cls-8{fill:#5b2ac2;}.cls-9{fill:#88d0ba;}.cls-10{fill:#2d5890;}.cls-11{fill:#d16855;}.cls-12{fill:#e0d89f;}.cls-13{fill:#aed793;}.cls-14{fill:#d46b5b;}.cls-15{fill:#b65f90;}.cls-16{fill:#324580;}.cls-17{fill:#332e2a;}.cls-18{fill:#00a553;}.cls-19{fill:#a26256;}.cls-20{fill:#856149;}.cls-21{fill:#fff;}.cls-22{fill:#fff8ff;}.cls-23{fill:#f0efed;}.cls-24{fill:#f5e78c;}.cls-25{fill:#0047fd;}</style></defs><path class="cls-14" d="m102.7,123.1c-1.5.3-3.1.6-4.6.9.4-1.3.4-2.7.1-4,.8,0,1.6,0,2.3-.4.6,1.2,1.3,2.4,2.1,3.5Z"/><path class="cls-13" d="m96.3,113c-.2-1.1-.3-2.2-.2-3.3.7.2,1.6.2,2.3-.1,0,3.4.6,6.9,2.2,10.1-.7.4-1.6.5-2.3.4-.4-2.4-1.4-4.6-1.9-7Z"/><path class="cls-24" d="m98.5,103.8c3.5,1.6,1.3,7.2-2.4,5.9-4.1-1.3-1.6-7.8,2.4-5.9Z"/><path class="cls-13" d="m98.1,61.9c3.2,9.9,6.8,25.1.3,41.8-.4-.2-.9-.3-1.4-.3,3.8-14.4,2.5-30-3.2-43.8,1.4.7,2.8,1.4,4.2,2.3Z"/><path class="cls-19" d="m97.6,88.6c1.1-7.1-3.5-15.4-5-22.4h0c.9,1.8,1.6,3.7,2.1,5.7.5-4.5-.6-9.1-3.1-12.9v-.3c.9.3,1.6.6,2.4,1,5.6,13.8,7,29.4,3.2,43.8-1.4,0-2.6.9-3,2.1-2-1.3-2.9-2.5-3.9-4.5,2.5-3.3,6.6-7.5,7.3-12.4Z"/><path class="cls-15" d="m52.4,70.5c-5.2,4.1-10.3,8.9-12.4,13.6-.7-2.8-1.1-5.1-1.6-7.3,12.1-17.4,36.6-31.6,57.1-21.8h.1c1.1,2.3,1.7,4.3,2.6,6.9-15.2-10.5-33-2.3-45.7,8.5Z"/><path class="cls-9" d="m95.6,55h-.1c-2.6-1.4-7.1-2.5-12.3-2.9-1.4-3.9-6.3-8.2-9.8-10.3,9.6-3.1,17.9,5.1,22.2,13.2Z"/><path class="cls-17" d="m91.6,59c2.5,3.8,3.6,8.4,3.1,12.9-.9-3.5-2.4-6.7-4.5-9.6-.4-.8-1.4-1.6-1.9-2.4,0,.3-.1.6-.2.8-1.1-.4-2.4-.7-3.8-.5-2-1.3-4.2-2.1-6.5-2.6h0c4.5-.6,9.6-.9,13.9,1.1v.3Z"/><path class="cls-21" d="m90.8,85.2c-1.5,7.8-11.3,8.6-16.3,3.4-.7-.6,12.7-1.9,16.3-3.4Z"/><path class="cls-7" d="m90.2,70.5c1.6,4-1,5-2.5,1-1.6-4,1-5,2.5-1Z"/><path class="cls-17" d="m89.6,61.5c.2.2.4.5.5.7-.4.8-1.8,1.1-2.6,1,0-.9.4-1.7.5-2.6.7.3,1.2.6,1.6.9Z"/><path class="cls-23" d="m78.1,124.3c-4-4.7-7.9-9.7-8.8-11.8h0c5.8,6.4,18,5,18.1-2.6,2.6.5.6,20.9-.3,24.4-1.5-1.3-5.2-5.5-9.1-10Z"/><path class="cls-17" d="m88,60.6c-.2.7-.3,1.4-.5,2.2-1-1-2.1-1.9-3.3-2.6,1.4-.2,2.7,0,3.8.5Z"/><path class="cls-17" d="m87.5,62.8v.4c-2.2-.4-4.2,1.9-6.1,2.6-.7,0-1-1.7-1.4-2.2-.5-1.7,2.9-3.2,4.2-3.4,1.2.7,2.3,1.6,3.3,2.6Z"/><path class="cls-22" d="m83.2,52h0c-6.4-.3-13.5.4-19.4,3.3-1.7-3.3-3-6-5.4-9.1,4.8-2.1,9.8-3.5,14.9-4.4,3.6,2.1,8.2,6.4,9.8,10.2Z"/><path class="cls-17" d="m79,63.3c0,.6,0,1.2,0,1.8-1.9-2.5-4.3-4.7-7-6.4,1.9-.6,3.8-1,5.8-1.2.6,1.9,1.2,3.8,1.2,5.8Z"/><path class="cls-10" d="m123.7,149.6c0-.8.2-1.4.7-2-.6-.2-1.2-.5-1.4-.7-1.9-.9-4.4-1.2-6.6-.9-4-15.5-1.9-30.4-17.8-33.6.4,3.8,1.8,7.6,4.1,10.7-1.5.3-3.1.6-4.6.9,1.4-4.9-2.6-9.5-2-14.4-1.3-.4-2.2-1.6-2.2-3-2.1-.5-3.4-.7-5.6-1-.3,1.3-.6,2.7-.9,4.3,2.6.5.6,20.9-.3,24.4-3.2-2.9-16.2-17.8-17.8-21.8h0c-1.4-1.5-1.8-4.8-2.3-6-4.6.3-8.1,1.7-11.8,4.6,1.6,1.7.8,4.9-1.5,5.5-1.2,4.6-.8,9.9,1.9,13.8-2.6.8-5.7.3-7.8-1.5,4.7-2,3.1-8.4,3.4-12.5-3.9.6-7.2,7.6-8.3,11.3-.7,8-6.6,30.2-4.6,37.8,2.2-.6,4.6-.5,6.4.8,2.1,1.1,5,.6,6.4,3,1.8-13.4,2.3-12.5,5-26.6,3,13.5,5.8,35.4,2.3,48,15.9,4.8,34.1,4.6,49.7-1.5.3-10.6-1.3-16.6-1.7-27.7h0c2.6,5.6,10.9,3.2,16.5,1.8-5.3-1.5-4.5-12.4.8-13.6Z"/><path class="cls-10" d="m101.6,112.5c2.1-1.4-.2-3.7-1.7-4.2-.3.6-.8,1-1.4,1.3.2.9,0,2,.2,2.9,1.1,0,2.5.4,3,0Z"/><path class="cls-11" d="m80.5,40.9c-15,.9-29.5,7-40.6,17.1,1.3-3.3,4.8-8.8,8.2-13.3,9.9-5.1,21.9-9.8,32.4-3.8Z"/><path class="cls-17" d="m70.5,64.8c1.1,0,2.4-.4,2.4.4,0,.7-.3,2.3-1,2.6-1,.5-3.1.7-4.8.9l-.3-1.9c.6-.2.6-1.2.4-1.8,1-.2,2.1-.3,3.4-.3Z"/><path class="cls-7" d="m70.6,75.8c1.8,4.4-1.3,5.6-3,1.2-1.8-4.4,1.3-5.6,3-1.2Z"/><path class="cls-17" d="m67.2,65.1c.7,2.6-1.6,1.5-3,.9.8-.4,1.8-.8,3-1,0,0,0,0,0,0Z"/><path class="cls-17" d="m66.8,66.8l.3,1.9c-2.1,0-3.6,2.1-5.6,1.2,0-.6,0-1.3,0-1.9.5-.6,1.3-1.4,2.6-2,.9.1,1.7,1,2.6.8Z"/><path class="cls-17" d="m66,61.2c.4,1.3.8,2.6,1.2,3.9-1.1.2-2.1.6-3,1-.8-.2-1.6-.3-2.4-.4v-2c1.4-.9,2.8-1.8,4.1-2.5Z"/><path class="cls-20" d="m92.6,66.2h0c-.7-1.4-1.5-2.7-2.4-4-.6,1.1-2.3,1.1-3.4,1-1.8,0-3.7,2.1-5.3,2.6-.7,0-1-1.7-1.4-2.2-.5-1.7,2.9-3.2,4.2-3.4-2-1.3-4.2-2.1-6.5-2.6.9,2.4,1.3,4.9,1.2,7.5-1.9-2.5-4.3-4.7-7-6.4-2,.6-4,1.4-6,2.5.4,1.3.8,2.6,1.2,3.9,2.7-.2,8.2-1.7,4.8,2.8-1.4.7-4.9.7-6.7,1.4-1.1.5-2.5,1.5-3.7.8,0,0,0,0,0,0,0,1-.1,2-.2,3-6.3-8-.8,11,0,13.5-1-.5-1.9-1.3-2.7-2.1,2,6.9,3.2,11.6,2.5,16.5,7.4,5.2,4.8,5.8,8.2,11.7,5.8,6.5,18,5,18.1-2.6,6.4-24.3,16.6-9.9,5.2-43.7Zm-22.1,13.6c-1.9.9-4.7-6.2-2.7-6.9,1.9-.9,4.7,6.2,2.7,6.9Zm17.2-11.9c1.6-.7,4.1,5.7,2.4,6.2-1.6.7-4.1-5.7-2.4-6.2Zm2.8,17.7c-1.1,7.7-11.4,7.9-16,3-.7-.6,12.7-1.9,16.3-3.4l-.3.4Z"/><path class="cls-20" d="m64.2,66c-.8-.2-1.7-.4-2.5-.4,0,.8,0,1.6,0,2.4.5-.6,1.3-1.4,2.6-2Z"/><path class="cls-17" d="m61.9,63.7v2c-.1,0-.2,0-.2,0,0,.8,0,1.6,0,2.4-.5.6-.8,1.5,0,1.9,0,1-.1,2-.2,3-6.3-8-.8,11,0,13.5-1-.5-1.9-1.3-2.7-2.1-.7-2.7-2.4-8.4-3.2-13.3-.4-2.3,4.4-5.8,6.5-7.2Z"/><path class="cls-9" d="m58.4,46.2c2.4,3.2,3.6,5.8,5.4,9.1-5.2,2.5-10.7,6.3-15.5,10.7-2.2-3.6-3-8-2.7-12.1l-.2-.2c4.1-3,8.4-5.5,13.1-7.4Z"/><path class="cls-13" d="m58.6,84.2c2.9,11.4,5.7,18.8-3.4,26.8-.3-.3-.6-.5-.9-.7,10.2-12.3-1.1-26.4-1.9-39.8,3.3-2.6,6.6-4.8,9.3-6.7-2,1.4-6.7,4.8-6.3,7.1.8,4.9,2.4,10.7,3.2,13.3Z"/><path class="cls-15" d="m58.4,94.1c1.1,6-.6,11.3-4.1,16.2-.9-.5-2.1-.6-3-.1-1.1-2.4-2.2-6-2.6-6.8,2.8-3.9,4.8-8.9,9.7-9.3Z"/><path class="cls-22" d="m57.1,37c-.3-3.8-5.8-3.7-7.8-1.4-1.8,1.7-.8,5.4,1.9,5.1,1-1.2,2-2.2,2.7-2.8h.3c.8,1.4,1.2,1.9,2,3.2,4.6-1.7,9.3-2.8,14.1-3.4-4.6-.9-9.3-1.1-13.2-.7Z"/><path class="cls-9" d="m51.2,40.7c1-1.2,2-2.2,2.7-2.8h.3c.8,1.4,1.2,1.9,2,3.2-2.8,1-5.5,2.3-8.1,3.7,1.1-1.5,2.2-2.9,3.1-4Z"/><path class="cls-24" d="m54.3,110.3c3.7,2,.7,7.8-3,6-4.1-1.8-.9-8.2,3-6Z"/><path class="cls-16" d="m53.9,79c1.5,5.2,3.7,10.5,4.5,15.1-4.8.4-6.8,5.4-9.7,9.3-3.4-6.7-3.4-5.9-6.1-11.2h.2c2.7-6.2,5.4-9.9,11.1-13.2Z"/><path class="cls-14" d="m54.1,127.3c.4,1.1.8,2.1,1.5,3-2.6.8-5.7.3-7.8-1.5,1.3-.4,2.3-1.5,2.8-2.8,1,.3,2.1.5,3.2.4h0s0,0,0,0c0,.3.2.6.3.8Z"/><path class="cls-13" d="m53.7,126.5h0c-1.1,0-2.2-.1-3.2-.4,1-3.2.6-6.5.6-9.7,0,0,.1,0,.2,0,.7.3,1.6.4,2.4.2-.9,3.3-.8,6.8.1,10h0Z"/><path class="cls-11" d="m52.4,70.5c0,2.7.7,5.6,1.5,8.5-5.7,3.4-8.4,7.1-11.1,13.1h-.2c-1.1-2-1.9-4.9-2.6-8,2.1-4.8,7.2-9.5,12.4-13.6Z"/><path class="cls-12" d="m48,65.8l.2.2c-3.8,3.4-7.2,7.2-9.8,10.8-1.1-8.1-1.4-18.9,6.9-23.2l.2.2c-.3,4.1.6,8.3,2.5,11.9Z"/><path class="cls-20" d="m122.9,163.2c.2,0,.4,0,.6.1-1.7,5.6,7.4,5.3,5.3-.4h0c1-.3,1.9-1,2.3-1.9,2.1,1.7,5.9,1.8,6.3-1.5h0c1.2-.1,2.6.6,3.6-.3,1.6-2.5,4.1-8.9-1.5-6.5h0c-2.3.5-4.9-1.1-3.3-3.5,1.8-2.7,6.6-3.6,7.7-6.5-4.3-1.5-9.7.2-13.2,3-2.7-1.1-6.9.8-7.1,3.9-5.2,1.2-6,12.1-.8,13.6"/><path class="cls-20" d="m58.2,174.8c-2.6-2.7-2.9,3.6-5.3,2.3,0,0,0,0,0,0,.6-1.4,1.3-3.5,0-4.6-1.1-4.4-4.3-5.3-8.1-6.3-7-5.9-24,12.1-7,5.4,2.7,2.4-1,12.8,6.4,8.3,1,2.4,4.3,2,6,.5,3.7,3.4,11.1-.9,8.2-5.7Z"/><path class="cls-3" d="m87.4,109.9c-.1,7.6-12.3,9-18.1,2.6-3.3-5.9-.7-6.5-8.1-11.7"/><path class="cls-1" d="m87.6,71.5c1.5,4.1,4.1,3,2.5-1-1.5-4-4.1-3-2.5,1Z"/><path class="cls-1" d="m67.6,77c1.7,4.5,4.8,3.3,3-1.2-1.7-4.5-4.8-3.3-3,1.2Z"/><path class="cls-1" d="m83.2,81c.7-2.5,5.1-3.8,5.8-1.1"/><path class="cls-3" d="m52.9,159.2c1-6.3,3.8-19.7,6-28.4"/><path class="cls-3" d="m51.3,116.3c-10.9,3.2-10.3,29.3-12.8,37.8"/><path class="cls-3" d="m98.6,112.4c15.9,3.3,13.6,17.7,17.8,33.3"/><path class="cls-3" d="m110,164.4c2.9,1.1,8.9,0,12.9-1.2"/><path class="cls-3" d="m124.4,147.6c-.6-.2-1.2-.5-1.4-.7-12.2-6.1-19.6,13-13.1,17.5"/><path class="cls-3" d="m51.1,169.3c.5-5.6,1.3-9,1.7-10"/><path class="cls-3" d="m38.5,154.1c-.3,2.7-1.5,8.8-.3,11.3"/><path class="cls-3" d="m110.3,164.5c-2.3-.7-3.1-1.1-3.8-3.1"/><path class="cls-2" d="m108.1,189.1c-15.6,6.1-33.8,6.3-49.7,1.5,3.4-12,.9-35.7-2.5-48.5"/><path class="cls-2" d="m103.5,128.9c2.8,22.2,3.7,39.5,4.6,60.2"/><path class="cls-3" d="m70.5,64.7s0,0,0,0c-3.1-.2-10.4,1.5-9,5.2,0,0,0,0,0,0,1.2.7,2.6-.3,3.7-.8,1.8-.7,5.3-.7,6.7-1.4.6-.3,1.1-1.9,1-2.6,0-.9-1.4-.4-2.4-.4"/><path class="cls-3" d="m70.6,64.8s0,0,0,0"/><path class="cls-3" d="m84.3,60.2c-1.2.2-4.6,1.6-4.2,3.4.4.5.7,2.3,1.4,2.2.7,0,2.8-1.7,3.4-2,.9-.9,6.9-.1,4.7-2.3-1.4-1-3.4-1.6-5.4-1.3"/><path class="cls-1" d="m90.8,85.2c-3.5,1.4-17,2.8-16.3,3.4,4.6,5,14.9,4.7,16-3"/><path class="cls-1" d="m69.3,112.5c1.6,4,14.7,18.9,17.8,21.8.9-3.5,2.8-23.9.3-24.4"/><path class="cls-3" d="m62.1,96.6c5.6,4.8,4.2,4.7,12.1,4.5"/><path class="cls-3" d="m123.7,151.1c-1-3.8,3.8-6.6,7-5.4,3.5-2.8,8.9-4.5,13.2-3-1,2.9-5.9,3.8-7.7,6.5-1.6,2.4,1,4,3.3,3.4"/><path class="cls-3" d="m131.5,156c1.5,2.4,3.2-1.9,5-1.2,3.3,3.9-.4,10.3-5.5,6.1"/><path class="cls-3" d="m123.7,149.6c-5.5,1.2-6.1,13.3,0,13.7"/><path class="cls-3" d="m137.2,155.2c.8-2,4.3-4.5,6-2.2.3,2-1.2,4.3-2,6.1-1,.9-2.4.2-3.6.3"/><path class="cls-3" d="m123.6,163c-1.1,3.5,1.5,5.3,4.6,3.9,2-1.7.2-7.1-1.9-7.6"/><path class="cls-3" d="m128.9,162.9c1.1-.3,2-1.1,2.4-2.1"/><path class="cls-3" d="m52.8,172.6c-1.1-4.4-4.3-5.3-8.1-6.4-7-5.9-24,12.1-7,5.4,2.6,2.2-.5,7.6,3,9.2,3.7.7,6.5-4.1,7.9-7,.4-4.6-5.3-1.3-6.7.7"/><path class="cls-3" d="m43.9,179.8c2,4.3,7.6.5,8.9-2.6,2.4-4.1-1.5-7-4.5-3.1"/><path class="cls-3" d="m49.7,180.3c5.7,5.4,13.2-4.9,6.8-6-1.5.5-1.6,3.9-3.7,2.9"/><path class="cls-3" d="m54.6,116c7.1-.9,17.8,4.2,23.5,8.3"/><path class="cls-3" d="m66.7,106.6c-4.5.2-7.9,1.7-11.5,4.5"/><path class="cls-3" d="m96.6,112.8c-4.4,2-7.6,7.4-8.3,12.2"/><path class="cls-3" d="m99.8,108.2c3.6,1.5,3.5,5.4-1.2,4.2"/><path class="cls-3" d="m88.3,105.6c2.2.2,3.5.5,5.6,1"/><path class="cls-3" d="m87,133.9c4.2,19.4,5.1,39.6,2.7,59.3"/><path class="cls-3" d="m73.6,173.6c-2,3.3-3.4,7-3.9,10.9"/><path class="cls-3" d="m101,172.4c1.5,2,3,4.1,4.5,6.1"/><path class="cls-3" d="m94.1,105.6c-2.1-1.3-3-2.7-4-4.8"/><path class="cls-3" d="m51.3,110.2c-2.8-8.1-5.5-11.9-8.7-18-8.9-20.4-4.9-38.4,11.2-54.3,14.5-4,34.6,2.7,41.7,17.1,5.3,14.3,10.1,28.1,2.9,48.8"/><path class="cls-3" d="m58.6,84.2c2.9,11.4,5.7,18.8-3.4,26.8"/><path class="cls-3" d="m61.7,63.8c-2,1.4-6.7,4.8-6.3,7.1.8,4.9,2.4,10.7,3.2,13.3"/><path class="cls-3" d="m87.3,57.3c-9-.7-17.8.9-25.2,6.3"/><path class="cls-3" d="m92.6,66.2c11.5,33.7,1.3,19.3-5.2,43.7"/><path class="cls-3" d="m62.1,63.6c-7.3,5-18.6,12.7-22.1,20.6"/><path class="cls-3" d="m87.3,57.3c3.9,1,7.6,2.6,10.9,4.7"/><path class="cls-3" d="m38.1,77.2c12-17.6,36.7-32.1,57.4-22.2"/><path class="cls-3" d="m39.3,58.6c11.2-10.5,26.1-16.9,41.4-17.7"/><path class="cls-3" d="m47.6,45c7-3.9,14.9-6.5,22.9-7.3"/><path class="cls-3" d="m58.4,46.2c2.4,3.2,3.6,5.8,5.4,9.1"/><path class="cls-3" d="m73.3,41.8c3.6,2.1,8.2,6.4,9.8,10.2"/><path class="cls-3" d="m45.5,53.9c-.3,4.1.6,8.3,2.5,11.9"/><path class="cls-3" d="m54.2,38.1c.8,1.2,1.1,1.6,1.9,2.9"/><path class="cls-3" d="m53.9,79c-5.7,3.4-8.4,7.1-11.1,13.1"/><path class="cls-3" d="m58.4,94.1c-4.8.4-6.8,5.4-9.7,9.3"/><path class="cls-3" d="m52.4,70.3c.8,13.6,12.3,27.8,1.8,40.2"/><path class="cls-3" d="m93.9,59.6c5.6,13.8,7,29.4,3.2,43.8"/><path class="cls-3" d="m57.1,36.9c-.4-3.7-5.8-3.5-7.7-1.2-1.9,1.8-.7,5.7,2.2,5.1,0,0-.2,0-.3.1"/><path class="cls-3" d="m55.2,111c2.5,2.6-.8,6.9-3.9,5.3-4.8-2.3.3-9.2,3.9-5.3Z"/><path class="cls-3" d="m93.9,106.6c0,4.1,6.4,4.1,6.4,0,0-4.2-6.4-4.1-6.4,0Z"/><path class="cls-3" d="m58.2,83.7c.1.2.3.4.4.5h0c.7.9,1.7,1.6,2.7,2.1-.7-2.4-6.3-21.5,0-13.5.3-2.4.4-4.8.4-7.2,6.7,1.2,6.5,2.6,4.2-4.7"/><path class="cls-3" d="m84.3,60.2c1.2.7,2.3,1.6,3.3,2.6.2-1,.5-2,.7-3,3.1,3.4,5.3,7.6,6.5,12.1.5-4.5-.6-9.1-3.1-12.9"/><line class="cls-3" x1="84.3" y1="60.2" x2="84.3" y2="60.2"/><path class="cls-3" d="m72,58.7c2.7,1.7,5.1,3.9,7,6.4.1-2.5-.3-5.1-1.2-7.5,2.3.4,4.5,1.3,6.5,2.6"/><path class="cls-3" d="m51.2,116.6c-.4,4,1.3,10.3-3.5,12.2,2.2,1.7,5.2,2.3,7.8,1.5-2.7-4-3.1-9.3-1.9-13.8"/><path class="cls-3" d="m96.1,109.5c-.7,5,3.4,9.5,2,14.5,1.5-.3,3.1-.6,4.6-.9-2.9-3.8-4.4-8.7-4.2-13.5"/><path class="cls-3" d="m50.4,126c1.1.3,2.2.5,3.3.5,0,0,0-.2-.1-.2"/><path class="cls-3" d="m98.1,120c.8.1,1.6,0,2.4-.3"/><rect class="cls-6" x="120.7" y="34.1" width="24" height="24" transform="translate(3.1 100.3) rotate(-41.9)"/><rect class="cls-25" x="120.7" y="101.7" width="24" height="24" transform="translate(-36.5 70.3) rotate(-26.2)"/><rect class="cls-18" x="59.7" y="2.3" width="24" height="24" transform="translate(-1.2 8.3) rotate(-6.6)"/><polygon class="cls-8" points="23.9 48.3 28.4 71.9 4.8 76.4 .4 52.8 23.9 48.3"/><rect class="cls-4" x="59.7" y="2.3" width="24" height="24" transform="translate(-1.2 8.2) rotate(-6.5)"/><rect class="cls-4" x="120.7" y="101.7" width="24" height="24" transform="translate(-36.5 70.1) rotate(-26.2)"/><polygon class="cls-4" points="28.4 71.9 4.8 76.4 .4 52.8 23.9 48.3 28.4 71.9"/><rect class="cls-4" x="120.7" y="34.1" width="24" height="24" transform="translate(3.1 100.2) rotate(-41.8)"/><rect class="cls-5" x="43.1" y="148.3" width="20.8" height="20.8" transform="translate(-112.2 182.8) rotate(-79.7)"/></svg>