<?xml version="1.0" encoding="UTF-8"?><svg id="Layer_1" xmlns="http://www.w3.org/2000/svg" width="150" height="196" viewBox="0 0 150 196"><defs><style>.cls-1{stroke-linecap:round;stroke-linejoin:round;}.cls-1,.cls-2{stroke:#000;}.cls-1,.cls-2,.cls-3{fill:none;}.cls-4{fill:#b52d00;}.cls-4,.cls-2,.cls-3{stroke-miterlimit:10;}.cls-4,.cls-3{stroke:#fff;}.cls-5,.cls-6,.cls-7,.cls-8,.cls-9,.cls-10,.cls-11,.cls-12,.cls-13,.cls-14{stroke-width:0px;}.cls-6{fill:#f8ad3b;}.cls-7{fill:#5b2ac2;}.cls-8{fill:#3b2310;}.cls-9{fill:#17baac;}.cls-10{fill:#af52c2;}.cls-11{fill:#c27557;}.cls-12{fill:#00a553;}.cls-13{fill:#fff;}.cls-14{fill:#0047fd;}</style></defs><path class="cls-10" d="m56.2,145.3c-1.1,8.2-2.5,16.2-4,17.7-5.2,1.6-9.9,0-13.8-3.6,2.8-8.9.5-40.5,13.2-43.2,11,14.7,39.9,17.4,46.3-2.7,14.5,3.8,10.8,15.9,15,30.2-6.7.6-11.5,13.5-6.2,17.5-2.1-.7-2.5-1-3.3-2.8.6,11.7,2.1,20.8,1.8,32.1-1.9.7-3.8,1.4-5.7,1.9-4.9-5.3-1.5-12,.6-17.7.8-5.1-3.4-9.5-4.1-14.7.6-9.7,1.2-20.7-5.5-28.5-5.7,3.5.3,10.1,1.6,14.5,1.4,5.4-2.1,11.4-.6,16.8,10.2,15.7-4.4,16.4,1.6,30.9-3.8.3-11.1.9-15.8,1.1-6.3-12.6.9-21-3.4-32.9-1.8-8.3,4.6-22.5-4.5-27.4-6.1,1.2-.9,8.4.2,11.8.3,12.6-5.1,10.3,1.3,24.9-.4,7.9-2.9,15.9.2,23.6-4.5-.5-9-1.4-13.4-2.7,1-11.5,2.5-34.7-1.4-46.6h-.4Zm-9.7-11.7c.7-5.3-2.4-5.7-3-.4-.7,5.3,2.4,5.7,3,.4Zm-2.2,15.3c.7-5.3-2.4-5.7-3-.4-.7,5.3,2.4,5.7,3,.4Z"/><path class="cls-9" d="m96.2,160c.7,5.1,4.9,9.6,4.1,14.7-2.1,5.7-5.5,12.4-.6,17.7-2.5.7-3.4,1.1-6.4,1.3-6.1-14.5,8.6-15.2-1.6-30.9-1.5-5.4,2-11.3.6-16.8-1.3-4.4-7.3-11-1.6-14.5,6.7,7.8,6.2,18.9,5.5,28.5Z"/><path class="cls-9" d="m86.9,110.2c3.7.9,7.7,2.1,11.2,3.4-6.4,20.1-35.3,17.4-46.3,2.7l11.6-3.7c2.9,7.5,23.7,8.3,23.6-2.3Z"/><path class="cls-11" d="m56.8,96.3c-4.8,1.9-12.7-6.3-10.4-11,.6,1.2,1.3,3.2,2.7,2.9,2.1-1,0-7.2,3.5-7.7,2.1-.2,4.5-1,4.1-2.8-.8-1.8-5.8-2.6-5.2-4.5,0-2.1,3.1-8-1-7.3-3.5-5.9,3.7-5.6,7.4-6.7,7.4-6.9,4.2-4.7,13.4-3.9,2.7-.6,4.3-4.3,7.1-4.1,4.4,2.2,9.3,5.1,11.8,10.8.4.8,1.4,5.2,1.3,7,6.9,11.4,9.2,20-5.8,32.9,0,0-2,4.2-2,7.7,1,0,2,.4,3,.6.1,10.7-20.8,9.8-23.6,2.3l2.7-.9c-1.5-4.3-2.3-9.9-9.2-15.4Zm30.4-21.8c1.6-.5-.8-6.6-2.3-5.9-1.6.5.8,6.6,2.3,5.9Zm-3.1,15.9c2.4-1.3,3.4-4.4,3.1-7.1-4.3,3.2-10.6,5.1-15.3,3.5,2.7,3.5,8,5.6,12.2,3.6Zm2-28.9c-.3-2.6-5.5-2.7-7.2-1.1-1.6,1.1-1,4,1.2,3.5,1.3-.6,5.3-1.8,6.1-2.4Zm-17,17.2c1.9-.6-.8-7.4-2.6-6.5-1.9.6.8,7.4,2.6,6.5Zm-3-11.4c3.8-4.5-4.3-3.5-6.3-1.5-2,1.4-4.2,4.8-1.7,4.6,2.7-1.6,5.1-2.5,8-3.1Z"/><path class="cls-8" d="m91.3,57.5c2.8,3.1.8,7.4.6,11.5h-.2c0-9-6.4-14.7-13.1-17.7-2.8-.2-4.4,3.4-7.1,4.1-9.2-.8-6-3-13.4,3.9-3.6,1.1-10.9.8-7.4,6.7-1.1.6-3.2,3.3-4.4,3.8-1.4.5-4.7-2.7-6-1.4-.5.5-.3,1.4,0,2.1,1.4,3.4-.8,6.7-3.6,8.8,1.5-7.4-2.2-10.6-2.1-16.5.8-3,4.3-4,5.5-6.7,1.2-2.7,1.7-4.5,3.2-6.9,1.4-2.1,4.3-2.2,6.4-3.4,2.9-1.6,4.7-5.2,7.9-6.1,4.1-1.2,8.4,2.7,12.7,2.3,3.4-.3,6.7-3,9.7-1.3,2.2,1.3,3,4.3,4.7,6.3,1.4,1.7,1.8.8,3.2,2.5,1.4,1.8,1.8,6.3,3.4,8Z"/><path class="cls-5" d="m87.3,71.1c1.5,3.8-.9,4.8-2.4.9-1.5-3.8.9-4.8,2.4-.9Z"/><path class="cls-13" d="m87.2,83.3c1.2,9.5-11.1,9.8-15.3,3.5,4.7,1.6,11-.2,15.3-3.5Z"/><path class="cls-8" d="m86,60.6c.5.6,0,1.3-.7,1.3-.3,0-4.6,1.8-5.3,2-5.9-.9,1.3-7.4,6-3.3Z"/><path class="cls-9" d="m77.5,194.7h0c-3.2.2-3.8.2-6.1,0-3.1-7.7-.6-15.7-.2-23.6-6.4-14.6-1-12.3-1.3-24.9-1.2-3.4-6.3-10.6-.2-11.8,9,5,2.6,19.2,4.5,27.4,4.3,11.7-2.9,20.7,3.4,32.9Z"/><path class="cls-5" d="m69.2,74.9c1.7,4.2-1.2,5.4-2.9,1.1-1.7-4.2,1.2-5.4,2.9-1.1Z"/><path class="cls-8" d="m67,65.5c.2,2.2-2.7,2.1-4.1,2.6-1.8.7-3,1.4-4.9,2.3-2.4.1-.3-3.3,1.7-4.6,1.5-1.1,6.9-3.3,7.2-.3Z"/><path class="cls-11" d="m139.3,140.6c-4.1-1.4-9.2.2-12.6,2.9-2.3-1-5.6.5-6.6,2.8h-.2c-.1-.7-.2-1.1-.6-1.6-9.7-5-18,8.1-13.4,16.1,3.4,2.4,8-.8,11.1-2.1.7.9,1.7,1.5,2.8,1.6-1.7,5.3,7.1,5,5-.4,1-.3,1.8-1,2.3-1.8,2,1.6,5.7,1.7,6-1.5h0c1.1-.1,2.5.6,3.4-.3,1.5-2.4,3.9-8.5-1.4-6.2h0c-2.2.5-4.7-1.1-3.1-3.3,1.7-2.6,6.3-3.5,7.3-6.2Z"/><path class="cls-11" d="m57.7,171.2c-2.5-2.5-2.8,3.5-5.1,2.2.6-1.3,1.2-3.3,0-4.4-1-4.2-4.1-5-7.7-6-7.3-5.2-22.7,11.5-6.7,5.1,2.5,2.4-.9,12.2,6.1,7.9,1,2.3,4.1,1.9,5.7.5,3.5,3.3,10.6-.9,7.9-5.4Z"/><path class="cls-6" d="m48.4,75.4c1.3,2.8-4.1,3.4-3.3.3.3-1,2.2-2,3.3-.3Z"/><path class="cls-9" d="m45.5,129.3c1.9.1.9,8.6-1,8.2-1.9-.1-.9-8.6,1-8.2Z"/><path class="cls-8" d="m46.5,85.3c-.8,1.5-.5,3.5,0,4.2-3.1-.4-10.9-5-9.9-9,.9,1.5,3,.9,4.4.7,4.5-1,3.8,1.5,5.5,4.1Z"/><path class="cls-9" d="m43.3,144.5c2,.1.9,8.6-1,8.2-2-.1-.9-8.6,1-8.2Z"/><path class="cls-13" d="m56.8,77.7c-.8-1.8-5.8-2.6-5.2-4.5.3-2.2,2.9-9.3-1.7-6.8-.6.6-3,3-3.8,3.3-1.4.5-4.7-2.7-6-1.4-.5.5-.3,1.4,0,2.1,1.4,3.5-.8,6.7-3.6,8.8-1.1,5,8.1-.4,8.5,3.2,1.2,1.6,1.9,5.7,4.2,5.8,2.1-1,0-7.2,3.5-7.7,2.1-.2,4.5-1,4.1-2.8Zm-10.9,0c-2.2-1.1.1-4.7,2.3-2.5,1.2,1.4-.8,3.3-2.3,2.5Z"/><path class="cls-2" d="m66,111.7c-2.4.8-12.6,4-15.2,4.9-11.5,3.3-9.8,34.4-12.4,42.9,4,3.8,8.4,5.2,13.8,3.6,2.4-2.8,4.5-21.6,5.4-28.6"/><path class="cls-2" d="m84.1,109.6c26.7,6.1,23.4,7.3,28.9,33.8"/><path class="cls-2" d="m107.2,161.4c3.3,1,7-1.5,9.9-2.7"/><path class="cls-2" d="m120,146.2c-.1-.6-.2-1-.6-1.5-6.7-3.6-14.1,2.5-14.4,9.2-.3,1.8-1,6.5,1.8,7.5"/><path class="cls-2" d="m107.2,161.4c-2.1-.7-2.9-1-3.7-2.9"/><path class="cls-2" d="m105.4,190.5c-14.5,5.1-32.4,5.9-47.4,1.5,1-11.5,2.5-34.7-1.4-46.6"/><path class="cls-2" d="m100.8,127.5c2.8,22.9,3.9,41.4,4.6,63.1"/><path class="cls-2" d="m120,147.2c-5.2,1.1-5.8,12.6,0,13"/><path class="cls-2" d="m52.5,173.4s0,0,0,0"/><path class="cls-2" d="m52.5,169.1c-1-4.2-4.1-5.1-7.7-6.1-6.7-5.6-22.9,11.6-6.7,5.1,2.5,2.1-.4,7.3,2.8,8.8,3.5.7,6.2-3.9,7.5-6.6.3-4.4-5-1.3-6.3.7"/><path class="cls-2" d="m44.1,175.9c1.9,4.1,7.2.4,8.5-2.5,2.3-3.9-1.4-6.6-4.2-2.9"/><path class="cls-2" d="m49.5,176.4c5.3,5.1,12.6-4.6,6.5-5.7-1.4.4-1.6,3.7-3.5,2.7"/><path class="cls-2" d="m135.2,150s0,0,0,0"/><path class="cls-2" d="m133.2,156.6s0,0,0,0"/><line class="cls-2" x1="132.8" y1="152.6" x2="132.9" y2="152.5"/><line class="cls-2" x1="124.9" y1="159.9" x2="124.9" y2="159.9"/><path class="cls-2" d="m120.1,148.6c-.9-3.6,3.6-6.3,6.7-5.1,3.4-2.7,8.4-4.3,12.6-2.9-1,2.7-5.6,3.6-7.3,6.2-1.5,2.2.9,3.8,3.1,3.3"/><path class="cls-2" d="m127.4,153.3c1.4,2.3,3.1-1.8,4.8-1.2,3.2,3.7-.4,9.8-5.2,5.8"/><path class="cls-2" d="m132.9,152.6c.8-1.9,4.1-4.3,5.7-2.1.3,1.9-1.1,4.1-1.9,5.8-.9.9-2.3.2-3.4.3"/><path class="cls-2" d="m124.9,159.9c-1.9-7.7-6.7-.7-4.8,3.4,2.6,1.9,6.1.2,4.8-3.4Z"/><path class="cls-2" d="m124.9,159.9c1-.3,1.9-1,2.3-2"/><line class="cls-2" x1="92.9" y1="63.4" x2="92.9" y2="63.4"/><path class="cls-2" d="m66,111.7c-1.5-4.3-2.3-9.9-9.2-15.4"/><path class="cls-2" d="m90.3,62.1c.4.8,1.4,5.2,1.4,7,6.9,11.3,9.1,20.2-5.8,32.9,0-.2-2.6,5.9-1.9,8.8"/><path class="cls-2" d="m84.9,72c1.5,3.9,3.9,2.9,2.4-.9-1.5-3.8-3.9-2.9-2.4.9Z"/><path class="cls-2" d="m66.4,76c1.6,4.3,4.5,3.1,2.9-1.1-1.6-4.2-4.6-3.1-2.9,1.1Z"/><path class="cls-2" d="m71.9,86.8c4.7,1.6,11-.2,15.3-3.5,1.2,9.5-11.1,9.8-15.3,3.5Z"/><path class="cls-2" d="m46.5,85.3c-3.4,4.4,9.4,16.2,11,9.4"/><path class="cls-2" d="m51.9,84.4c-.3-.2-.8-.3-1.4-.4"/><path class="cls-2" d="m79.6,81c.8-2.6,4.3-5.2,6.2-2.1"/><path class="cls-1" d="m67,65.5c.2,2.2-2.7,2.1-4.1,2.6-1.8.7-3,1.4-4.9,2.3-2.4.1-.3-3.3,1.7-4.6,1.5-1.1,6.9-3.3,7.2-.3Z"/><path class="cls-1" d="m78.9,60.4c-1.6,1.1-1,4,1.2,3.5,1-.7,7.3-1.9,6-3.3-1.9-1.5-5.1-1.9-7.1-.3Z"/><path class="cls-1" d="m36.6,79.2c1.5-7.4-2.2-10.6-2.1-16.5.8-3,4.3-4,5.5-6.7,1.2-2.7,1.7-4.5,3.2-6.9,1.4-2.1,4.3-2.2,6.4-3.4,2.9-1.6,4.7-5.2,7.9-6.1,4.1-1.2,8.4,2.7,12.7,2.3,3.4-.3,6.7-3,9.7-1.3,2.2,1.3,3,4.3,4.7,6.3,1.4,1.7,1.8.8,3.2,2.5,1.4,1.8,1.8,6.3,3.4,8,2.8,3.1.8,7.4.6,11.5"/><path class="cls-1" d="m46.4,89.5c-3.1-.4-10.9-5-9.9-9"/><path class="cls-1" d="m50.6,66c-3.5-5.9,3.7-5.6,7.4-6.7,7.4-6.9,4.2-4.7,13.4-3.9,2.7-.6,4.3-4.3,7.1-4.1,4.4,2.2,9.3,5.1,11.8,10.8"/><path class="cls-1" d="m46.2,69.8c-1.4.5-4.7-2.7-6-1.4-.5.5-.3,1.4,0,2.1,1.6,3.7-1.3,6.7-3.8,9.2,0,4,7.2,0,8.2,2,.7,1.4,1.4,2.7,2.2,4.2,1.7,4.2,4,2.2,3.7-1.8-.1-1.7,1-3.1,2.3-3.5,2.1-.2,4.5-1,4.1-2.8-.8-1.8-5.8-2.6-5.2-4.5,0-2.1,3-8-1-7.3-1.1.5-3.2,3.3-4.4,3.8Z"/><path class="cls-1" d="m48.4,75.4c-1-1.7-3-.7-3.3.3-.8,3.1,4.6,2.5,3.3-.3"/><path class="cls-1" d="m40.4,75.4c.9-.5,2-.5,2.9-.1"/><path class="cls-1" d="m46,70c.9.2,1.7,1.1,1.8,2"/><path class="cls-1" d="m51.5,73.3c-.2.8-.7,1.6-1.4,2"/><path class="cls-1" d="m52.7,80.5c-1.4,0-2.8-.3-4.1-.7"/><path class="cls-1" d="m45,81.6c-.4-.8-.4-1.7-.1-2.5,0,.1-.1.2-.2.4"/><path class="cls-2" d="m63.4,112.8c3,7,23.4,8,23.4-2.3"/><path class="cls-2" d="m51.7,116.2c11,14.8,40.2,17.5,46.4-2.8"/><path class="cls-2" d="m46.5,133.6c-.6,5.4-3.7,5-3-.4.6-5.3,3.7-5,3,.4Z"/><path class="cls-2" d="m44.3,148.9c-.6,5.4-3.7,5-3-.4.6-5.3,3.7-5,3,.4Z"/><path class="cls-2" d="m71.5,194.2c-3.5-7.5-.4-15.5-.3-23.1-6.4-14.6-1-12.3-1.3-24.9-1.2-3.4-6.3-10.6-.2-11.8,9,5,2.6,19.2,4.5,27.4,4.3,11.7-2.9,20.7,3.4,32.9"/><path class="cls-2" d="m93.3,193.2c-6-13.4,8.6-15.3-1.6-30.4-1.5-5.4,2-11.3.6-16.8-1.3-4.4-7.3-11-1.6-14.5,6.7,7.8,6.2,18.9,5.5,28.5.7,5.1,4.9,9.6,4.1,14.7-2,5.6-5.6,12.4-.6,17.5"/><rect class="cls-12" x="117" y="103.9" width="20.8" height="20.8" transform="translate(-37.4 67.9) rotate(-26.2)"/><rect class="cls-14" x="95.8" y="13.9" width="20.7" height="20.7" transform="translate(2.7 58.1) rotate(-31)"/><polygon class="cls-7" points="37.3 38.3 26.3 55.9 8.7 44.9 19.7 27.3 37.3 38.3"/><rect class="cls-3" x="95.8" y="13.9" width="20.7" height="20.7" transform="translate(2.7 58.1) rotate(-31)"/><rect class="cls-3" x="117" y="103.9" width="20.8" height="20.8" transform="translate(-37.4 67.9) rotate(-26.2)"/><polygon class="cls-3" points="37.3 38.3 26.3 55.9 8.7 44.9 19.7 27.3 37.3 38.3"/><rect class="cls-4" x="42.1" y="146.3" width="20.8" height="20.8" transform="translate(-111.1 180.2) rotate(-79.7)"/></svg>