<?xml version="1.0" encoding="UTF-8"?><svg id="Layer_1" xmlns="http://www.w3.org/2000/svg" width="548" height="373" viewBox="0 0 548 373"><defs><style>.cls-1,.cls-2,.cls-3,.cls-4,.cls-5{fill:none;}.cls-1,.cls-2,.cls-6{stroke-linejoin:round;}.cls-1,.cls-2,.cls-6,.cls-4,.cls-5{stroke-linecap:round;}.cls-1,.cls-4{stroke:#231f20;}.cls-2,.cls-3,.cls-6,.cls-5{stroke:#000;}.cls-3,.cls-4,.cls-5{stroke-miterlimit:10;}.cls-3,.cls-7{stroke-width:3px;}.cls-6{fill:#fcee21;stroke-width:2px;}.cls-7{stroke:#414042;}.cls-7,.cls-8{fill:#fff;}.cls-9,.cls-10,.cls-11,.cls-12,.cls-13,.cls-14,.cls-15,.cls-16,.cls-8,.cls-17{stroke-width:0px;}.cls-10{fill:#f8ad3b;}.cls-11{fill:#5b2ac2;}.cls-12{fill:#3b2310;}.cls-13{fill:#17baac;}.cls-14{fill:#af52c2;}.cls-15{fill:#c27557;}.cls-16{fill:#00a553;}.cls-17{fill:#f4fcfe;}</style></defs><rect class="cls-17" y="0" width="548" height="373"/><rect class="cls-7" x="115.6" y="102.8" width="229.6" height="229.6"/><line class="cls-3" x1="254" y1="102.3" x2="254" y2="331.9"/><line class="cls-3" x1="115.6" y1="252.6" x2="345.2" y2="252.6"/><path class="cls-6" d="m508,36.3c-4.6,3.8-9.5,11-14.6,14-4.4-.8-11.4-3.4-16.5-4.9,3.9,8,4.6,10.5,7.1,16.3-3.7,5.2-6,11.9-10.4,16.4,8.6-1.3,20.2-3.4,20.2-3.4,0,0,6.3,7.2,11.6,14.8-.8-3.6,2.8-12.2,1.8-16.4,3.1-1.3,11.1-5.4,17.8-6.3-5.2-3.5-16.1-9.7-16.1-9.7,0,0-.3-13-1-20.9"/><path class="cls-16" d="m166.6,42.7v-5.9h32.4v4.8c-3.2,3.4-6.4,7.9-9.5,13.5-3.1,5.6-5.6,11.4-7.3,17.4-1.2,4.2-2,8.8-2.4,13.8h-6.3c0-3.9.8-8.7,2.3-14.3,1.5-5.6,3.6-11,6.4-16.2,2.8-5.2,5.7-9.6,8.8-13.1h-24.5Z"/><path class="cls-9" d="m179.5,188.6c0-.8,0-1.4,0-1.8,0-2.4.3-4.5,1-6.3.5-1.3,1.3-2.7,2.4-4,.8-1,2.3-2.4,4.4-4.3,2.1-1.9,3.5-3.4,4.2-4.5.6-1.1,1-2.3,1-3.7,0-2.4-.9-4.5-2.8-6.3-1.9-1.8-4.2-2.7-6.9-2.7s-4.8.8-6.6,2.5c-1.8,1.6-2.9,4.2-3.5,7.7l-6.3-.8c.6-4.7,2.3-8.2,5.1-10.7,2.8-2.5,6.5-3.7,11.2-3.7s8.8,1.3,11.7,4c2.9,2.7,4.4,5.9,4.4,9.7s-.5,4.2-1.5,6c-1,1.8-3,4.1-6,6.7-2,1.8-3.3,3.1-3.9,3.9-.6.8-1.1,1.8-1.4,2.9-.3,1.1-.5,2.9-.5,5.3h-5.9Zm-.4,12.3v-7h7v7h-7Z"/><path class="cls-9" d="m298.2,188.6c0-.8,0-1.4,0-1.8,0-2.4.3-4.5,1-6.3.5-1.3,1.3-2.7,2.4-4,.8-1,2.3-2.4,4.4-4.3,2.1-1.9,3.5-3.4,4.2-4.5.6-1.1,1-2.3,1-3.7,0-2.4-.9-4.5-2.8-6.3-1.9-1.8-4.2-2.7-6.9-2.7s-4.8.8-6.6,2.5c-1.8,1.6-2.9,4.2-3.5,7.7l-6.3-.8c.6-4.7,2.3-8.2,5.1-10.7,2.8-2.5,6.5-3.7,11.2-3.7s8.8,1.3,11.7,4c2.9,2.7,4.4,5.9,4.4,9.7s-.5,4.2-1.5,6c-1,1.8-3,4.1-6,6.7-2,1.8-3.3,3.1-3.9,3.9-.6.8-1.1,1.8-1.4,2.9-.3,1.1-.5,2.9-.5,5.3h-5.9Zm-.4,12.3v-7h7v7h-7Z"/><path class="cls-9" d="m298.2,304.7c0-.8,0-1.4,0-1.8,0-2.4.3-4.5,1-6.3.5-1.3,1.3-2.7,2.4-4,.8-1,2.3-2.4,4.4-4.3,2.1-1.9,3.5-3.4,4.2-4.5.6-1.1,1-2.3,1-3.7,0-2.4-.9-4.5-2.8-6.3-1.9-1.8-4.2-2.7-6.9-2.7s-4.8.8-6.6,2.5c-1.8,1.6-2.9,4.2-3.5,7.7l-6.3-.8c.6-4.7,2.3-8.2,5.1-10.7,2.8-2.5,6.5-3.7,11.2-3.7s8.8,1.3,11.7,4c2.9,2.7,4.4,5.9,4.4,9.7s-.5,4.2-1.5,6c-1,1.8-3,4.1-6,6.7-2,1.8-3.3,3.1-3.9,3.9-.6.8-1.1,1.8-1.4,2.9-.3,1.1-.5,2.9-.5,5.3h-5.9Zm-.4,12.3v-7h7v7h-7Z"/><path class="cls-9" d="m179.5,304.7c0-.8,0-1.4,0-1.8,0-2.4.3-4.5,1-6.3.5-1.3,1.3-2.7,2.4-4,.8-1,2.3-2.4,4.4-4.3,2.1-1.9,3.5-3.4,4.2-4.5.6-1.1,1-2.3,1-3.7,0-2.4-.9-4.5-2.8-6.3-1.9-1.8-4.2-2.7-6.9-2.7s-4.8.8-6.6,2.5c-1.8,1.6-2.9,4.2-3.5,7.7l-6.3-.8c.6-4.7,2.3-8.2,5.1-10.7,2.8-2.5,6.5-3.7,11.2-3.7s8.8,1.3,11.7,4c2.9,2.7,4.4,5.9,4.4,9.7s-.5,4.2-1.5,6c-1,1.8-3,4.1-6,6.7-2,1.8-3.3,3.1-3.9,3.9-.6.8-1.1,1.8-1.4,2.9-.3,1.1-.5,2.9-.5,5.3h-5.9Zm-.4,12.3v-7h7v7h-7Z"/><path class="cls-11" d="m46.8,201h-6.2v-39.2c-1.5,1.4-3.4,2.8-5.8,4.2-2.4,1.4-4.6,2.5-6.5,3.2v-5.9c3.4-1.6,6.4-3.6,9-5.9,2.6-2.3,4.4-4.5,5.5-6.7h4v50.3Z"/><path class="cls-11" d="m62.5,176.3c0-5.9.6-10.7,1.8-14.3,1.2-3.6,3-6.4,5.4-8.4,2.4-2,5.4-2.9,9.1-2.9s5,.5,7.1,1.6c2,1.1,3.7,2.6,5,4.7,1.3,2,2.4,4.5,3.1,7.5.8,2.9,1.1,6.9,1.1,11.8s-.6,10.6-1.8,14.2c-1.2,3.6-3,6.4-5.4,8.4-2.4,2-5.4,3-9.1,3s-8.6-1.7-11.4-5.2c-3.3-4.2-5-11-5-20.4Zm6.3,0c0,8.2,1,13.7,2.9,16.4,1.9,2.7,4.3,4.1,7.1,4.1s5.2-1.4,7.1-4.1,2.9-8.2,2.9-16.4-1-13.7-2.9-16.4c-1.9-2.7-4.3-4.1-7.2-4.1s-5.1,1.2-6.8,3.6c-2.1,3.1-3.2,8.7-3.2,16.9Z"/><path class="cls-11" d="m94.9,311.1v5.9h-33.1c0-1.5.2-2.9.7-4.3.8-2.3,2.2-4.5,4-6.7s4.5-4.7,8-7.6c5.4-4.5,9.1-8,11-10.6,1.9-2.6,2.9-5.1,2.9-7.4s-.9-4.5-2.6-6.2c-1.7-1.7-4-2.5-6.8-2.5s-5.3.9-7.1,2.7c-1.8,1.8-2.7,4.2-2.7,7.4l-6.3-.6c.4-4.7,2.1-8.3,4.9-10.8,2.8-2.5,6.6-3.7,11.4-3.7s8.6,1.3,11.4,4,4.2,6,4.2,9.9-.4,4-1.2,5.9c-.8,1.9-2.2,4-4.1,6.1-1.9,2.1-5.1,5.1-9.5,8.8-3.7,3.1-6.1,5.2-7.1,6.3-1,1.1-1.9,2.2-2.6,3.3h24.6Z"/><path class="cls-16" d="m285,73.1l6.2-.8c.7,3.5,1.9,6,3.6,7.5,1.7,1.5,3.8,2.3,6.2,2.3s5.3-1,7.3-3c2-2,3-4.5,3-7.5s-.9-5.2-2.8-7c-1.8-1.8-4.2-2.8-7-2.8s-2.6.2-4.3.7l.7-5.4c.4,0,.7,0,1,0,2.6,0,5-.7,7.1-2.1,2.1-1.4,3.1-3.5,3.1-6.3s-.8-4.1-2.3-5.6c-1.5-1.5-3.5-2.2-5.9-2.2s-4.4.8-6,2.3c-1.6,1.5-2.6,3.8-3.1,6.8l-6.2-1.1c.8-4.1,2.5-7.3,5.1-9.6,2.7-2.3,6-3.4,9.9-3.4s5.3.6,7.6,1.8c2.3,1.2,4.1,2.8,5.3,4.8,1.2,2,1.8,4.2,1.8,6.5s-.6,4.1-1.7,5.9-2.9,3.2-5.2,4.2c3,.7,5.3,2.1,6.9,4.3,1.6,2.2,2.5,4.8,2.5,8.1s-1.6,8.1-4.8,11.1c-3.2,3-7.2,4.6-12.1,4.6s-8-1.3-11-3.9c-2.9-2.6-4.6-6-5-10.2Z"/><path class="cls-12" d="m378.1,96.7c-2.1-.3-3.4-2.8-3.7-5.3,3,0,5.6.4,5.4,2.6-.6.8-1.1,1.7-1.4,2.7h-.3Z"/><path class="cls-12" d="m455,326.4c-5.7,8-24.7,7.5-30.1.5,6.4-1.7,13.9-3.3,20.4-1.9h.3c0-3.2-.5-6.5-.4-9.7-1.4-.6-2.8-1.1-4.2-1.5,2.7,11.2-12,5.7-18.7,9.8l.5,1.6c-3.4-4-7-5-11.3-8.7-.5,1.9,0,3.5,0,3.5,7.7,3.3,8.3,5.1,15.5,12.5,7.7,6.4,21.9,3.9,27.1-1.5v-.2c.6-1.3.9-2.8.8-4.3Z"/><path class="cls-15" d="m438.9,320.7c-5.5.6-11.2.7-16.5,2.8l.5,1.6c-3.3-4.2-7.8-5.1-11.7-9.2-.5-1.6,3.6-10.8,3.6-10.8,2.1-10.7,4.1-31.8,6.3-39.4,5.6,1.7,11.3,2.9,16.7,3.1-1.6,6.4-10.8,31.1-10.8,37.3,3.3,4.4,8.9,6,13.9,7.7.5,2.4.5,5.9-2.2,7Z"/><path class="cls-15" d="m453.1,321.1c-1.9-2.7-4.8-4.5-7.9-5.8,0,3.2.3,6.4.4,9.7h-.3c-6.5-1.3-14,.2-20.4,2,5.3,7,24.4,7.6,30.1-.5-.1-1.9-.8-3.8-1.9-5.3Z"/><path class="cls-15" d="m460.8,173.4c-.2.3-.4.6-.6.9h0c-1.8,3.7,1.9,7.9-1,11.9,2.1-.3.1-2.7,2.4-2.6,0,0,.8.2.8.3-.5,7.1-7.8,9.1-13.7,6.8-.1-4.4-.3-9.6-.5-14.3,1.4-3.2,5.4-3.3,6.9-6.5,1-3,2.8-14.8,5.3-23.5,4.7.3,9.4,1.5,13.1,4.6-2.1,8.5-8.7,15.4-12.8,22.2Z"/><path class="cls-12" d="m431.3,73.7c.2,4.2,0,5.8.3,10-.8,0-1.8.4-2.1.6-.9-5.8-1.4-14.8-7.4-16.5-7.1-6.4-5.7-3.3-12.9,0-9.5-1.5-6.1-3.5-14.2,3.2-5.2,1.2-11.2-.1-7.8,7.5-6.2,5-5.1-.8-9.6-.5-.6.4-.5,1.3-.4,2.1.4,2.1-.5,4.9-2.4,6.4,1.7-11.8-6.1-11.1,5.8-20.1,2.5-7.2.5-10.1,9.7-11.4,3.2-1.2,5.4-4.7,8.8-5.1,4.3-.6,8.2,3.9,12.5,4.2,3.4.2,7.1-2.2,10,0,2.1,1.6,2.5,4.8,3.9,7.1,3.2,3.5,6.3,7.1,5.8,12.3Z"/><path class="cls-15" d="m433.7,85.7c-.1-2.3-2.9-2.3-4.2-1.4-.9-5.8-1.4-14.8-7.4-16.5-7.1-6.4-5.7-3.3-12.9,0-9.5-1.5-6.1-3.5-14.2,3.2-5.2,1.2-11.2-.1-7.8,7.5.9-.7,2.1-1.4,3-.4,1.2,2.4-1.5,4.8-1.9,7.2-1,1.8,3.9,3.6,4.4,5.6,0,1.9-2.6,2.2-4.7,2-3.7-.2-2.7,6.4-5.1,7.2-2.3-.3-2.2-4.6-3-6.2-5.1,4.8,2.5,14.8,7.4,12.9,2.5,6.5,7.8,8.6,13,11.8h0s1.2,8.8.8,8.4c4.8,13.4,31.7,16.3,23.8-2.8-.5.1-1.1.3-1.6.4l-1.5-6.8c3.8-6,8.6-13.2,8.9-20.2,5.1-.5,4-8.4,3.1-12Zm-42.6-.9c-2.5-.3.4-3.2,2.7-4.2,2.4-1.6,10.8-1.2,6.1,2.5-3.1.2-5.7.6-8.8,1.7Zm8.9,12.3c-2.6.6-4.1-7.7-1.5-8.1,2.6-.6,4.1,7.7,1.5,8.1Zm16.4,16.2c-4.9.8-8.5.5-12.7-3.9,1.4,1,13,1.6,18.2-1.9-.9,3-2.2,4.8-5.5,5.8Zm6.4-21.1c-2.2.5-3.5-6.9-1.3-7.2,2.2-.5,3.6,6.9,1.3,7.2Zm1.4-13.4c-.8.6-5.2,1.4-6.5,1.9-2.3.2-2.7-2.8-.8-3.8,2-1.4,7.3-.8,7.4,1.9Z"/><path class="cls-12" d="m424.2,77.9c.4.6-.1,1.3-.8,1.3-.3,0-4.9,1.4-5.6,1.5-6-1.5,2.1-7.5,6.5-2.7Z"/><path class="cls-9" d="m423.9,88.3c.9,4.7-2.6,5.3-3.4.6-.9-4.7,2.6-5.3,3.4-.6Z"/><path class="cls-8" d="m421.9,107.4c-2.1,8-12.7,8-18.2,1.9,1.4,1,13,1.6,18.2-1.9Z"/><path class="cls-9" d="m401.3,92.7c1,5.2-3.2,6-4.1.7-1-5.2,3.2-6,4.1-.7Z"/><path class="cls-12" d="m393.9,80.6c1.7-.8,7.7-2,7.4,1-.3,2.1-3.2,1.6-4.7,1.8-1.9.4-3.3.8-5.4,1.4-2.5-.3.4-3.2,2.7-4.2Z"/><path class="cls-15" d="m384.8,184.5h0c-6.7-4.6-14.9-10.5-23.3-16.6h0c-.8-5.6,2.8-11.1,8.8-11.2,7.9,7,13.7,14.9,21.7,22,1.9,1.5,3.4,2.5,4.6,3.3,3.7,2.6,4.4,3.3,5.7,10.3-.5,1.5-3.1,3.5-6.7,4.5-1.7.4-3.6.6-5.5.4-1.3-.5-7.5-9.8-3-7.5-.4-1.8,0-3.3-2.1-5.3Z"/><path class="cls-15" d="m393.9,264.2c-6.3,12.7-18.1,32.3-20.8,38.5-3.3,4.3,0,10.6-.4,16-4-10.3-10-7.8-18.9-18.5.9-1.7.5-4.6,1.1-8.6h0c3.7,5,4.8,7.9,10.5-2,2.9-8.8,7.5-25.5,14.3-35.6,6-.4,12.7-.2,17.8,1.5-.6,2-1.9,5-3.6,8.6Z"/><path class="cls-14" d="m472,129.8c-1.8,2.8-9.2.7-9.4-2.8-2.1-.5-4.2-.9-6.1-1.3h0c-3.3,3-7,1.1-9-1.3-4.4-.6-8.8-1.3-13.3-1.3v.4c9.6,13.1-5.2,26.7-18.4,23-14.2-3.3-25-12.5-27.2-19.9-16.2,3.8-60.2,20-34.2,36.9l.2-.2c0-5.5,3.6-12.2,9.8-11.4h0c.4.2.9.6,1.3.9,7.1-3.8,19.3-7.2,25.8-3.5l-.4.9c3.8,13.4,5.3,23.3,5.5,31.8,3.7,2.6,4.4,3.3,5.7,10.3-.5,1.5-3.1,3.5-6.7,4.5v.5c-2.6,5.9-6.7,17-10.8,28.2,27.1-3.9,38.4,19,63.1,15.6,1.1-36.9,2.6-66.2-3.3-98.9,1.7-.2,15.1,0,17.4,0,.5-1.3,1-2.4,1.6-3.2,4.8-.4,9.6,1.2,13.2,4.3.5-6.2-.8-11.8-4.7-13.6Zm-106.6,9.3c-1.5,1.8-4.4,2-6.6,1.6,1.4-2.1,4.1-3.1,6.6-2.8.3.3.2.9,0,1.2Zm8.4-3.6c-6.9-1.5,6-6.3,6.1-2.8-.2,1.9-4.7,2.8-6.1,2.8Zm41.1,56c-.4,2.1-1.5,3.8-2.3,5.7-2.3,4.3,1.2,23.9-7,20-2-4.3,2.9-7.8,1.2-17.4,4.2-10.9.9-14.9,1.3-25.2,3-6.4,1.5-11.4-1.8-17-1.1-2.9-1.3-8.7,2.5-6.2,2.6,1.9,2.7,6.6,4.3,9.3,5.4,6.4,2.9,8.4-.3,14.8-1.4,5.2,3.2,10.6,2.2,16Zm28.2,13.8c2.2,7.1-9.3,22.1-8.3,11.1,5.6-6.2,4-12.7,3-20.3,4.4-13.9,1.6-9.5-2.9-21.1-.4-3.6,2-6.9,2-10.5,0-2.3-1.1-4.4-1.8-6.6-1.4-4.6,1-9.8,4.3-5.3,5.5,6.3,1.6,14.7.7,21.9,9.5,18-.4,13.9,2.9,30.8Z"/><path class="cls-14" d="m427.3,247.2c-14.7-7.2-28.8-14.9-45.9-12.7-1.4,3.8-2.8,7.5-4.1,10.8h.2c24.3-9.2,44.6,18.3,69.3,13.7.2-2.8.4-5.9.6-9.2-6.8.2-13.6-.3-20.1-2.6Zm-36.5-6.4c-5.2.1-5.6-3.7,0-3.6,5-.2,5.7,3.7,0,3.6Zm21.1,4c-.7,2.2-8.6-.6-7.8-3,.7-2.2,8.7.7,7.8,3Zm16.7,8.1c-.7,2.1-8.5-.5-7.8-3,1.5-2.3,8.6.9,7.8,3Zm12.2,3.6c-5.4-.2-5.3-4,.2-3.6,5.4.3,5.3,4-.2,3.6Z"/><path class="cls-8" d="m390.6,88.8c-5.8-3.3,1.4-6.6-.4-10.5-2-1.7-5.2,2.7-7,2.6-1.9-.4-6.8-5.7-6.1-.6.8,4.5-2.6,6.4-5.7,8.7-.8,4.3,8.8,1.1,8.3,4.6.9,1.8.8,6.2,3.1,6.7,1.4,0,1.9-3.7,2.3-5,.6-1.7,2.3-2.3,3.7-2.1,4.1.6,4.9-2.9,1.7-4.3Zm-9.4-2.2c.5-.7,2.4-1.6,3.3.5.8,3.3-5,2.5-3.3-.5Z"/><path class="cls-10" d="m384.5,87.1c.8,3.3-5,2.5-3.3-.5.5-.7,2.4-1.6,3.3.5Z"/><path class="cls-13" d="m423,255.8c-13.5-6.3-30.2-17-45.5-10.5h-.2c-1.6,3.9-3.1,7.2-4.3,9.6.5,2.3,1.7,3.3,3.2,5.1,1.1-2.1,2.2-4.1,3.4-5.9,6-.4,12.7-.2,17.8,1.5-.6,2-1.9,5-3.6,8.6,8.5.6,18.6,1.1,27.1,2.1l.2-.7c8.2,2.5,16.4,4,24.6,2.7.4-2.5.8-5.7,1.1-9.4-8.2.5-16.1-.2-23.8-3.1Z"/><path class="cls-13" d="m416.2,167c-.2-2.6-2.2-4.2-3.3-6.3-1.6-2.7-1.7-7.4-4.3-9.3-3.8-2.6-3.5,3.3-2.5,6.2,1.2,3.2,3.8,6.1,3.7,10,0,2.5-1.3,4.6-1.8,7-1.1,5.4,1.9,11.1,1,16.6-2.2,5.7-2.3,11.4-2.2,17.3-.9,2.7-4.3,10.2,1.1,9.4,6.1-5.2,1.3-17.4,6.8-26.4.9-5.4-3.6-10.8-2.2-16,.9-3.1,3.8-5.2,3.6-8.6Z"/><path class="cls-13" d="m424,253c2.2.8,4.2.7,4.6-.2.3-4.8-14.4-5-4.6.2Z"/><path class="cls-13" d="m364.3,152h0c-6.2-.7-9.9,6-9.8,11.5l-.2.2c2.5,2.3,5.2,4.7,7.5,6.3-1.7-6.1,1.4-13.3,8.5-13.4-1.8-1.6-3.8-3.2-5.9-4.7Z"/><path class="cls-13" d="m463.4,139.1c-1.3,2.1-2.2,4.8-3,7.4,5.3.3,10.6,2,14.5,5.8.9-2.9,1.5-5.9,1.7-8.9-3.6-3.1-8.5-4.7-13.2-4.3Z"/><path class="cls-13" d="m472,129.8c-2.3-1-5-1.7-9.4-2.8.2,3.4,7.7,5.5,9.4,2.8Z"/><path class="cls-13" d="m447.3,124.5c2,2.4,5.7,4.3,9,1.4,0,0,0-.1,0-.1-3.3-.6-5.9-.7-9-1.2Z"/><path class="cls-13" d="m424.8,237.2c-14.8-7.7-22.3-13.5-40.1-11.7-1.1,3-2.2,6-3.3,8.9,27.7-3.6,39.8,17.3,66,15.3.1-2.7.3-5.6.4-8.6-9.1.8-11.2.4-23-4Z"/><path class="cls-13" d="m445,254.8c.2-2.3-8.4-2.8-8.4-.4-.3,2.4,8.4,2.8,8.4.4Z"/><path class="cls-13" d="m435.1,158c3.4,5.7.1,11.3-.2,17.1.5,4.3,4.7,6.7,5.2,11-.8,7-3.7,10.5-1.2,18.2,1.8,6.8-6.5,11.4-3.8,15.6.8.7,1.9.2,2.7-.5,6.1-4.5,5.5-14,4.3-21.1,2.8-14.8,4.1-10-2-23.8-.3-2.9,1.2-5.6,1.9-8.4,3.5-8.5-8.6-24.7-6.9-8.3Z"/><path class="cls-13" d="m415.7,146.7c13.2,3.7,27.9-9.9,18.4-23v-.4c-3,0-6.1.3-9.3,1.1,7.9,19.1-19.1,16.1-23.8,2.8,0,0,0,0,0,0-4.2-.8-8.5-.9-12.5-.2,2.2,7.4,13,16.6,27.2,19.9Z"/><path class="cls-13" d="m407.3,244.9c10.8,2.7-.3-6.9-3.3-3.2-.5.9,1.6,2.7,3.3,3.2Z"/><path class="cls-13" d="m390.4,240.7c4.6.4,6.8-3.1,1.3-3.6-4.9-.7-7.5,3.2-1.3,3.6Z"/><path class="cls-13" d="m379.8,132.8c.2-2.2-5.1-.7-6.2-.3-6.4,3.9,5.6,4,6.2.3Z"/><path class="cls-13" d="m364.1,140.1c.9-.3,1.8-1.3,1.1-2.2-2.5-.3-5.1.7-6.6,2.8,1.8.4,3.7.2,5.4-.6Z"/><path class="cls-12" d="m366.8,311.1c-4.6-3.6-5.9-3-13-10.8.9-1.7.5-4.6,1.1-8.6h0c-.7-1.1-1.4-2.2-1.8-3.4-.2,2-1,5.3-1.8,6.7-2.1-5.8-4-14-7.2-14.1v-.3c-1,.2-1.9.6-2.8,1-5.8,1.5-7.3,12.4-4.5,17.6,7.2,12.3,15.2,7.7,22.9,24.8,6.8,9.2,20.1-5.5,7.1-13Z"/><path class="cls-15" d="m353.1,288.4s0,0,0,0c-.2,2-1,5.3-1.8,6.7-2.1-5.8-4-14-7.2-14.1v-.3c5.3-1.8,8.4,1.2,9.1,7.6Z"/><path class="cls-4" d="m379.7,254.1s0,0,0,0c-6.9,10.2-11.4,26.8-14.3,35.6"/><path class="cls-4" d="m397.5,255.6c-4.8,13.6-21.1,39.1-24.5,47.1"/><path class="cls-4" d="m414.8,305c2-10.2,4.2-31.6,6.1-38.7"/><path class="cls-5" d="m437.9,268.8c-1.6,6.4-10.8,31.1-10.8,37.3,7.2,9.6,32.6,7.5,27,24.7"/><path class="cls-1" d="m340.7,281.7c-5.2,2.5-6.9,12.3-4,17.6,3.2,7.9,13.9,10.2,17.9,16.3,3.3,6.2,8.6,17.2,15.7,8.1,3.1-6.3-6.8-12.3-12.3-15.4-13.2-8.3-10.3-26.4-17.3-26.6"/><path class="cls-1" d="m373.1,302.7c-4.6,6.1,3.9,16.5-3.7,22.1"/><path class="cls-1" d="m339.4,282.6c4.8-2.5,12.4-4.9,13.2,3.9"/><path class="cls-1" d="m372.7,318.9c-3.9-10.4-10.1-7.9-18.9-18.6-3.5-4.3-5.3-19.1-9.7-19.3"/><path class="cls-1" d="m353.1,288.4c-.2-.6-.4-1.3-.5-1.9"/><path class="cls-1" d="m365.4,289.7c-6.4,12.2-8.7,4.6-12.3-1.4"/><path class="cls-1" d="m414.8,305c-4.9,11.9-6,10,5.1,17.1,2,2.2,8,7.9,10.6,9,4,1.6,21.5,1.9,24.4-4.8"/><path class="cls-1" d="m454.2,330.9c-5.2,5.4-19.6,8-27.1,1.5-7.3-7.5-7.7-9.2-15.5-12.5,0,0-.5-1.6,0-3.5"/><line class="cls-1" x1="460.2" y1="174.3" x2="460.2" y2="174.3"/><path class="cls-1" d="m443.8,139.9c4.4,16,4.5,40.1,5.2,58.4"/><path class="cls-1" d="m391.1,150.3c3.8,13.4,5.3,23.3,5.5,31.8"/><path class="cls-1" d="m447.3,124.5c1.7.3,3.4.5,5.1.7"/><path class="cls-1" d="m423.4,124.7c8-2.4,16-1.3,24-.2"/><path class="cls-1" d="m395.6,152.3c-4.8-4.5-10.7-5.4-18.7-3.7"/><path class="cls-1" d="m401,127c-10.4-2.2-18.7,1.1-28.8,5.1"/><path class="cls-1" d="m452.5,125.2c1.1.1,2.4.3,3.9.6h0c4.1.7,12,2.6,14.7,3.7"/><path class="cls-1" d="m444.6,142.2c1.5-.2,14.9.2,17,0"/><path class="cls-1" d="m464.1,138.2c-5.6,8-7.2,27.5-9.3,32.4-2,2.7-5.4,2.9-6.7,6.1"/><path class="cls-1" d="m473.6,151.1s0,0,0,0c-2.3,9.3-9.6,16.3-13.9,24"/><path class="cls-1" d="m471.1,129.5c7.6,2.5,6.2,15.7,3.9,22.8"/><path class="cls-1" d="m361.4,167.9c8.5,6.1,16.6,12,23.3,16.7"/><path class="cls-1" d="m372.2,132.1c-27.8,11.8-36,20.3-10.5,38"/><path class="cls-1" d="m361.7,150.3c12.1,7.6,19.6,18.9,30.2,28.5"/><path class="cls-1" d="m376.9,148.6c-2.3.8-9,3.1-11.3,4.3"/><path class="cls-1" d="m388.5,126.9c2.2,7.3,13,16.5,27.2,19.8,13.2,3.7,27.9-9.9,18.4-23"/><path class="cls-4" d="m383.9,183.8c4.5,3,1.3,6.5,5.4,9.8"/><path class="cls-4" d="m390.6,177.7c6.3,5.3,10.6,4.9,11.7,15.1"/><path class="cls-4" d="m387,189.8c-4.6-2.4,1.6,7,2.9,7.5,4.2.8,11.7-2,12.4-5.2"/><path class="cls-1" d="m448.8,190.8c5.9,2.3,13.1.2,13.7-6.8,0,0-.8-.2-.8-.3-2.3-.2-.3,2.3-2.4,2.6,2.9-4-.8-8.2,1-11.9"/><path class="cls-5" d="m373.1,254.9c27.1-6.7,45.5,18.1,72.7,13.5,0,0,0,0,0,0,.2,0,.4,0,.6,0"/><path class="cls-5" d="m373.1,254.9c7.7-15.6,16.2-43.7,22.5-57.5"/><path class="cls-5" d="m449,198.3c-.7,16.3-.5,50-3.3,70.1"/><path class="cls-5" d="m393.5,264.1c8.6.6,18.9,1.1,27.5,2.2"/><path class="cls-5" d="m373.1,254.9c.5,2.4,1.8,3.4,3.3,5.2"/><path class="cls-1" d="m425.4,326.8c4.9-1.8,28.8-6.2,18.2,4.6"/><path class="cls-1" d="m422.2,323.6c6.9-4.1,21.6,1.5,18.8-9.9"/><path class="cls-1" d="m445.1,315.5c.2,3.2.3,6.3.4,9.5"/><path class="cls-1" d="m353.2,288v.4c0,0,0,0,0,0-.2,2-1,5.3-1.8,6.7"/><path class="cls-1" d="m354.8,291.7c-.5,3.9-.2,6.8-1.1,8.6"/><path class="cls-1" d="m370.3,156.7c-7.1,0-10.3,7.2-8.6,13.4,0,0,0-.2.1-.3"/><path class="cls-1" d="m364.3,152.1c-6.2-.8-9.9,6-9.8,11.4"/><path class="cls-1" d="m401,127.1c4.8,13.4,31.7,16.3,23.8-2.8"/><path class="cls-1" d="m460.9,146.6c5.2,0,10.3,2.1,14,5.7"/><path class="cls-1" d="m463.3,139.1c4.8-.4,9.8,1.2,13.4,4.3"/><path class="cls-1" d="m377.5,245.3c24.2-9.4,44.4,18.2,69,13.6"/><path class="cls-1" d="m382,234.7c24.5-4.6,41.3,17.6,65.2,15.1"/><path class="cls-1" d="m385,225.7c26.2-4.3,39,19.4,63.4,15.5"/><path class="cls-1" d="m409.8,167.6c0,2.5-1.3,4.6-1.8,7-1.1,5.4,1.9,11.1,1,16.6-.5,3-2,5.6-2.3,8.7-.2,2.9.7,5.9.1,8.7-.9,2.7-4.3,10.2,1.1,9.4,6.1-5.2,1.3-17.4,6.8-26.4.9-5.4-3.6-10.8-2.2-16,.9-3.1,3.8-5.2,3.6-8.6-.2-2.6-2.2-4.2-3.3-6.3-1.6-2.7-1.7-7.4-4.3-9.3-3.8-2.6-3.5,3.3-2.5,6.2,1.2,3.2,3.8,6.1,3.7,10Z"/><path class="cls-1" d="m435.1,158c3.4,5.7.1,11.3-.2,17.1.5,4.3,4.7,6.7,5.2,11-.8,7-3.7,10.5-1.2,18.2,1.8,6.8-6.5,11.4-3.8,15.6.8.7,1.9.2,2.7-.5,6.1-4.5,5.5-14,4.3-21.1,2.8-14.8,4.1-10-2-23.8-.3-2.9,1.2-5.6,1.9-8.4,3.5-8.5-8.6-24.7-6.9-8.3Z"/><path class="cls-1" d="m373.5,132.5c-6.4,3.9,5.6,4,6.2.3.2-2.2-5.1-.7-6.2-.3Z"/><path class="cls-1" d="m364.9,137.9c-2.4-.3-4.8.9-6.1,2.8,1.9.5,7.9,0,6.4-3"/><path class="cls-1" d="m447.3,124.5c2,2.4,5.7,4.4,9.1,1.5"/><path class="cls-1" d="m462.5,127c.1,3.5,7.7,5.7,9.5,2.9,0,0,0,0,0,0"/><path class="cls-1" d="m391.6,237.1c9.6,1.9-3.9,6-5,1.8-.1-1.2,3-2.1,5-1.8Z"/><path class="cls-1" d="m409,241.7c5.6,2.5,2.1,5.3-2.4,3-5-2.4-1.9-5,2.4-3Z"/><path class="cls-1" d="m422.5,249c1.9-.2,6.7,2.1,6,3.8-.9,3-12.3-2.8-6-3.8Z"/><path class="cls-1" d="m445,254.8c0,2.4-8.6,1.9-8.4-.4,0-2.4,8.6-1.9,8.4.4Z"/><path class="cls-2" d="m423.6,126.9c-.3-1.5-1.6-7.5-2-9.1"/><path class="cls-2" d="m427.2,72.9c2,10.7,6.9,24-.3,36.3-7.1,16.3-16.4,17.3-33.7,5"/><path class="cls-2" d="m401,127s0,0,0,0c.4.4-.8-8.4-.8-8.4"/><path class="cls-2" d="m420.5,88.9c.8,4.7,4.3,4,3.4-.6-.8-4.7-4.3-4.1-3.4.6Z"/><path class="cls-2" d="m397.2,93.5c.9,5.3,5.1,4.5,4.1-.7-.9-5.2-5.1-4.5-4.1.7Z"/><path class="cls-2" d="m419.4,99.2c.3,5.2-4.5,4.6-8.2,5.2"/><path class="cls-2" d="m421.9,107.4c-5.1,3.6-16.8,2.9-18.2,1.9,5.4,6.1,16,6.1,18.2-1.9Z"/><path class="cls-2" d="m379.8,94c-5.1,4.8,2.5,14.8,7.4,12.9,2.5,5.3,2.4,4.2,6.3,7.8"/><path class="cls-2" d="m401.2,81.6c-.3,2.1-3.2,1.6-4.7,1.8-1.9.4-3.3.8-5.4,1.4-2.5-.3.4-3.2,2.7-4.2,1.7-.8,7.7-2,7.4,1Z"/><path class="cls-2" d="m416.9,76.9c-1.8,1-1.5,4,.8,3.8,1.4-.5,5.7-1.3,6.5-1.9,0-2.7-5.4-3.3-7.4-1.9Z"/><path class="cls-2" d="m429.5,84.4s0,0,0,0c6.4-4.1,6.5,12.8,1.6,13.4"/><path class="cls-2" d="m374.7,86.7c1.7-11.8-6.1-11.1,5.8-20.1,2.5-7.2.5-10.1,9.7-11.4,3.2-1.2,5.4-4.7,8.8-5.1,4.3-.6,8.2,3.9,12.5,4.2,3.4.2,7.1-2.2,10,0,9.6,16.6,9.9,9.1,10.1,29.4"/><path class="cls-2" d="m378.1,96.7c-2.1-.3-3.4-2.8-3.7-5.3"/><path class="cls-2" d="m387.2,78.7c-3.3-7.7,2.6-6.4,7.8-7.5,8.1-6.7,4.7-4.7,14.2-3.2,2.9-.5,4.7-4.2,7.6-3.8,2.2.3,3.3,2.8,5.3,3.8,1.3.6,4.5,1.9,5.1,5"/><path class="cls-2" d="m383.2,80.8c-1.9-.4-6.8-5.7-6.1-.6.9,4.4-2.6,6.5-5.7,8.7-.8,4.3,8.8,1.1,8.3,4.6.3,1.3.8,2.3,1.1,3.8.3,1.3.8,2.9,2.1,2.9,2.4-.7,1.5-7.4,5.1-7.2,2.1.2,4.7-.1,4.7-2-.4-2-5.4-3.8-4.4-5.6.7-2.2,4.8-8.9-.4-7.3-1.3.9-3.7,2.6-4.7,2.7Z"/><path class="cls-2" d="m384.5,87.1c-1.6-3.2-5,.1-2.9,1.8,1.2,1,3.5-.2,2.9-1.8Z"/><path class="cls-2" d="m376.4,85.5c1-.3,2.2-.2,3,.4"/><path class="cls-2" d="m383.2,81c.9.4,1.5,1.4,1.4,2.4"/><path class="cls-2" d="m388.1,85.5c-.3.8-1,1.5-1.8,1.8"/><path class="cls-2" d="m388,93.1c-1.4-.3-2.8-.8-4.1-1.5"/><path class="cls-2" d="m379.9,92.7c-.2-.9,0-1.8.4-2.6,0,.1-.2.2-.3.3"/></svg>