<?xml version="1.0" encoding="UTF-8"?><svg id="Layer_1" xmlns="http://www.w3.org/2000/svg" width="150" height="196" viewBox="0 0 150 196"><defs><style>.cls-1{stroke-linejoin:round;}.cls-1,.cls-2{stroke-linecap:round;}.cls-1,.cls-2,.cls-3{stroke:#000;}.cls-1,.cls-2,.cls-3,.cls-4{fill:none;}.cls-2,.cls-5,.cls-3,.cls-4{stroke-miterlimit:10;}.cls-5{fill:#b52d00;}.cls-5,.cls-4{stroke:#fff;}.cls-6,.cls-7,.cls-8,.cls-9,.cls-10,.cls-11,.cls-12,.cls-13{stroke-width:0px;}.cls-7{fill:#5b2ac2;}.cls-8{fill:#383838;}.cls-9{fill:#231c19;}.cls-10{fill:#8c6649;}.cls-11{fill:#00a553;}.cls-12{fill:#fff;}.cls-13{fill:#0047fd;}</style></defs><path class="cls-10" d="m45.3,81.4c.7-2.1,3.3-2.3,5-1.1-3.7-10-4.8-16.7-2.3-24.3.4-1.2,6.9-2.2,8.2-2.2,3.6-.2,4.2.7,14.9-2.7,7.8-2.5,11.1-6.8,12.7-5.8,7.1,5.2,8.3,8.8,9.4,17.9.6,7.5,3.5,5.1,4.8,16.2,1.3,11.4-5.5,16.9-10.1,20.4-.9.6-2.7,3.2-2.5,4.9-1.2,5.3-18.7,5.8-20.6.8-1.1-6.1-2.8-7.8-10-13.3-4.7,1.7-9.9-6.8-9.4-10.8Zm42.7-13.2c1.8-.6-.9-7.3-2.5-6.5-1.7.6.9,7.3,2.5,6.5Zm-7.1,19.8c6.8-1.2,7-5.9,6.8-6.2-.3-.3-10.4,4.1-14.8,2.7,2,2.3,5,4.1,8,3.5Zm-13.2-13.4c2.1-.7-.9-8.1-2.8-7.2-2.1.7.9,8.1,2.8,7.2Z"/><path class="cls-9" d="m89.6,50.8c.1.2.8,1.1,1.6,3.1-8.6-13.2-5.7-8.4-20.1-2.8-14.5,5.2-13.7.3-23.2,4.9-2.5,7.6-1.4,14.2,2.3,24.3-1.6-1.2-4.2-1-5,1.1-20.6-36,27.5-57.2,44.4-30.6Z"/><path class="cls-6" d="m88,64.5c1.7,4.2-1,5.3-2.6,1-1.7-4.2,1-5.3,2.6-1Z"/><path class="cls-12" d="m106.3,177.3c-3.2-20.4.4-47.2-9.6-65.7h0c-2.2,0-4.5,0-6.7.1-3,8-23.1,8.9-28.9,2.2-2.8.9-5.6,1.8-8.3,2.9,4.1,8.5,1.4,19.3.2,28.8,3.2,9.9,5,36,1.9,46,8.4,2.5,17.5,4.1,26.5,4.3,2.3,0,5.8-7.2,8.1-7.4,8.5,8.7,1.9,9.8,17.5,3.1.1-6.8-.2-9.6-.7-14.2Z"/><path class="cls-12" d="m80.8,88.1c6.8-1.2,7-5.9,6.8-6.2-.3-.3-10.4,4.1-14.8,2.7,2,2.3,5,4.1,8,3.5Z"/><path class="cls-6" d="m67.8,70.5c1.9,4.6-1.3,5.9-3.1,1.2-1.9-4.6,1.3-5.9,3.1-1.2Z"/><path class="cls-8" d="m120,158.6c-1.5-3.1-1.1-10,2.9-11.6,0-.4-.2-.8-.5-1.2-2-.9-4.6-1.3-6.9-.9-2.3-9.8-5.2-26.4-8.4-31-1.9-2.7-12.2-5-16.8-5.7,0-2.3-.5-6.6-3.5-6.7h-.2c-.6.8-1.3,2-1.2,3.4.1,2.1-4.8,3.8-8.5,4.2-6.7.2-12.6-.3-13-7.1-4.7,1.4-4.1,4.4-4,7.4l-12.8,3.3c-11.7,4.4-10.8,40.9-13.7,50.7.1.1.2.2.3.3,2.5-.9,5.4-.9,7.6.5,3.9,1.1,7.4,2,8.5,6.6,0,0,0,0,0,0-.3-11.5,9.4-40.2,3.2-54,2.7-1.2,5.5-2,8.3-2.9,5.8,6.7,25.9,5.9,28.9-2.2,2.2,0,4.5,0,6.7-.1h0c7.9,13.2,6.8,34.2,8.3,49.4,3.1,7,12,1.4,16.7-.5-.7-.4-1.3-1.1-1.7-1.8Z"/><path class="cls-10" d="m144.9,139.5c-4.5-1.6-10.1.2-13.8,3.2-2.8-1.2-7.3,1-7.4,4.1-5.8,1.4-6.3,13.5-.1,14.3-1.8,5.9,7.7,5.6,5.5-.4,1.1-.3,2-1.1,2.5-2,2.2,1.8,6.2,1.9,6.6-1.6,1.2-.1,2.8.6,3.8-.4,1.6-2.6,4.3-9.3-1.6-6.7h0c-2.4.5-5.1-1.2-3.5-3.7,1.9-2.8,6.9-3.8,8-6.8Z"/><path class="cls-10" d="m55.3,173.1c-2.8-2.8-3.1,3.8-5.6,2.4.6-1.4,1.3-3.6,0-4.8-1.1-4.6-4.5-5.5-8.5-6.6-7.3-6.2-25.1,12.7-7.4,5.6,2.8,2.6-1,13.4,6.6,8.7,1.1,2.5,4.4,2.1,6.2.5,3.8,3.6,11.6-1,8.6-5.9Z"/><path class="cls-3" d="m45.3,81.5c-24.3-42.6,44.5-60.8,47.8-18.3.6,7.5,3.5,5.1,4.8,16.2,1.2,12.9-6.3,16.6-11.4,21.8-.6.9-1.3,2.1-1.2,3.5-1.2,5.3-18.7,5.8-20.6.8-1.1-6.2-2.7-7.4-9.8-13.3"/><path class="cls-1" d="m85.4,65.5c1.6,4.2,4.3,3.2,2.6-1-1.6-4.2-4.3-3.2-2.6,1Z"/><path class="cls-1" d="m64.6,71.7c1.8,4.7,5,3.4,3.1-1.2-1.8-4.7-5-3.4-3.1,1.2Z"/><path class="cls-3" d="m72.8,84.5c4.8,7,15.9,2,14.8-2.7-.3-.3-10.4,4.1-14.8,2.7Z"/><path class="cls-1" d="m50.2,80.3c-8.5-3.4-4.2,7.3-.7,10.1,1.6,2.8,7.3,3.1,6.1-1.2"/><path class="cls-1" d="m76.8,79.1c1.3-3.3,7.1-6.8,9.3-2.5"/><path class="cls-3" d="m91.2,53.9c-8.6-13.2-5.7-8.4-20.1-2.8-14.5,5.2-13.7.3-23.2,4.9-2.5,7.6-1.4,14.2,2.3,24.3"/><path class="cls-3" d="m49.6,170.8c0-5.2,3.8-26.5,5-36.2"/><path class="cls-3" d="m59.8,109.3s-12.8,3.3-12.8,3.3c-11.7,4.4-10.8,40.9-13.7,50.7.1.1.2.2.3.3"/><path class="cls-3" d="m90.2,108.2c4.6.7,14.9,3,16.8,5.7,3.3,4.5,5.9,20.9,8.4,30.7"/><path class="cls-3" d="m109,164.2c4.4,1.2,8.9-2.5,12.7-3.7"/><path class="cls-3" d="m122.9,147c0-.4-.2-.8-.5-1.2-7.4-3.9-15.5,2.7-15.8,10-.3,1.9-1.1,7.2,2,8.2"/><path class="cls-3" d="m109,164.2c-2.4-.8-3.2-1.1-4-3.2"/><path class="cls-2" d="m107,191.5c-15.7,6.7-9,5.6-17.5-3.1-2.3.2-5.8,7.4-8.1,7.4-9-.1-18.1-1.7-26.5-4.3,3.2-9.9,1.3-36-1.9-46"/><path class="cls-2" d="m101.9,127c2.8,22.3,3.9,42,5.1,64.5"/><path class="cls-3" d="m66.2,62.8c-3-1.6-8.3,1.6-8.2,3.7"/><path class="cls-3" d="m80.1,59c3.8-3.8,7.9-1.3,8.8-.1"/><path class="cls-3" d="m46.9,112.6c9.8,3,8,13.6,7.7,22"/><path class="cls-3" d="m96.7,111.6c-1-1.6-1.8-2.5-1.8-2.5"/><path class="cls-3" d="m101.9,127c-.3-5.6-3.3-12.7-5.2-15.4"/><path class="cls-3" d="m63.7,101.9c-6,1.9-4.3,8.1-2.5,11.9,2.1,3.6,11.8,4.8,15.6,4.5,7.2-1,14.9-3.3,13.4-10.2,0-2.3-.5-6.6-3.5-6.7"/><path class="cls-3" d="m61.5,113.8c-2.9.9-5.7,1.8-8.5,2.9"/><path class="cls-3" d="m89.9,111.7c2.3,0,4.6,0,6.8-.1"/><path class="cls-3" d="m80.4,117.4c6.7,23.2,10.2,46.8,9.1,70.9"/><line class="cls-3" x1="52.9" y1="116.7" x2="83.8" y2="130.9"/><path class="cls-3" d="m96.8,111.6h0c0,.1-12.9,19.2-13,19.3"/><path class="cls-3" d="m101.9,123.6l-.4.4c-.2.2-15.3,17.6-15.5,17.8"/><line class="cls-3" x1="54.9" y1="130.6" x2="86" y2="141.8"/><line class="cls-3" x1="53.4" y1="143.7" x2="88" y2="156"/><path class="cls-3" d="m103.6,140.4c-.3.3-15.3,15.3-15.6,15.6"/><line class="cls-3" x1="55.3" y1="156.7" x2="88.5" y2="167"/><polyline class="cls-3" points="104.5 152.8 89.3 166.3 88.5 167"/><line class="cls-3" x1="56" y1="166.1" x2="89.7" y2="178.6"/><line class="cls-3" x1="105" y1="165.2" x2="89.7" y2="178.6"/><path class="cls-3" d="m56.5,178.3c0,0,33.1,7.6,33.1,7.7"/><line class="cls-3" x1="106.3" y1="177.3" x2="89.7" y2="185.9"/><path class="cls-3" d="m123.7,148.3c-1.1-3.9,3.9-7,7.4-5.6,3.7-3,9.2-4.7,13.8-3.2-1.1,3-6.1,4-8,6.8-1.7,2.5,1,4.2,3.4,3.6"/><path class="cls-3" d="m131.8,153.5c1.5,2.5,3.4-2,5.2-1.3,3.4,4.1-.3,10.7-5.7,6.4"/><path class="cls-3" d="m123.6,146.8c-5.8,1.4-6.3,13.8,0,14.3"/><path class="cls-3" d="m137.7,152.7c.8-2.1,4.5-4.7,6.2-2.3.3,2.1-1.2,4.5-2.1,6.4-1,1-2.5.2-3.7.4"/><path class="cls-3" d="m129,160.7c-2.1-8.4-7.4-.7-5.2,3.7,2.9,2.1,6.7.2,5.2-3.7Z"/><path class="cls-3" d="m129,160.7c1.1-.3,2.1-1.1,2.5-2.2"/><path class="cls-3" d="m49.6,170.8c-1.1-4.6-4.5-5.6-8.5-6.6-7.3-6.2-25.1,12.7-7.4,5.6,2.7,2.3-.5,8,3.1,9.7,3.8.8,6.8-4.3,8.3-7.3.4-4.9-5.5-1.4-7,.8"/><path class="cls-3" d="m49.6,175.6c.6-1.4,1.3-3.6,0-4.8-1.6-1.2-3.6.3-4.6,1.6"/><path class="cls-3" d="m40.3,178.3c2.1,4.5,8,.5,9.3-2.8"/><path class="cls-3" d="m46.3,178.8c5.9,5.6,13.8-5.1,7.2-6.2-1.6.5-1.7,4.1-3.8,3"/><rect class="cls-11" x="117" y="103.9" width="20.8" height="20.8" transform="translate(-37.4 67.9) rotate(-26.2)"/><rect class="cls-13" x="95.8" y="13.9" width="20.7" height="20.7" transform="translate(2.7 58.1) rotate(-31)"/><polygon class="cls-7" points="37.3 38.3 26.3 55.9 8.7 44.9 19.7 27.3 37.3 38.3"/><rect class="cls-4" x="95.8" y="13.9" width="20.7" height="20.7" transform="translate(2.7 58.1) rotate(-31)"/><rect class="cls-4" x="117" y="103.9" width="20.8" height="20.8" transform="translate(-37.4 67.9) rotate(-26.2)"/><polygon class="cls-4" points="37.3 38.3 26.3 55.9 8.7 44.9 19.7 27.3 37.3 38.3"/><rect class="cls-5" x="41.1" y="148.3" width="20.8" height="20.8" transform="translate(-113.9 180.9) rotate(-79.7)"/></svg>