<?xml version="1.0" encoding="UTF-8"?><svg id="Layer_1" xmlns="http://www.w3.org/2000/svg" width="150" height="196" viewBox="0 0 150 196"><defs><style>.cls-1{stroke-linejoin:round;}.cls-1,.cls-2{stroke-linecap:round;}.cls-1,.cls-2,.cls-3{fill:none;stroke:#000;}.cls-2,.cls-4,.cls-5,.cls-3{stroke-miterlimit:10;}.cls-4{fill:#00a553;}.cls-4,.cls-5{stroke:#fff;}.cls-5{fill:#5b2ac2;}.cls-6,.cls-7,.cls-8,.cls-9,.cls-10,.cls-11{stroke-width:0px;}.cls-7{fill:#3c2e1e;}.cls-8{fill:#e0c6af;}.cls-9{fill:#8c6649;}.cls-10{fill:#fff;}.cls-11{fill:#f0efed;}</style></defs><path class="cls-8" d="m125.7,142.5c-4.2-1.4-9.2.2-12.6,2.9-2.6-1.1-6.7.9-6.8,3.8-5.3,1.3-5.8,12.4-.1,13.1-1.7,5.3,7.1,5.1,5.1-.4,1-.3,1.8-1,2.3-1.9,2,1.6,5.7,1.7,6-1.5,0,0,0,0,0,0h0c1.1-.1,2.5.5,3.4-.3,1.5-2.4,3.9-8.6-1.4-6.2h0c-2.2.5-4.7-1.1-3.2-3.3,1.7-2.6,6.4-3.5,7.3-6.2Z"/><path class="cls-8" d="m43,99.2c-5.4,2.7-13.9-14.8-4.1-11v.2c.5.7,1.7,0,1.8-.9,0-1.9-2.4-2.6-2.9-4.2-.6-1.9,1.5-3.5,1.8-5.4.3-1.8-.9-3.7,0-5.4,1.3-1.6,2.5-3.2,2.7-5.4.2-1.3.3-1,1.1-2.1.8-1.1,1.9-3.8,2.8-2.7,3.2,4,7.7-.3,9.6,3.4.6,1.2,2,1.8,3.2,2.3,2,1.1,5.2-.7,3.7-3-.8-1.3-1.1-2.9-.3-4.2,1-2.7,6.9-.6,8.2.5,2.4,4.7,6.1,6.6,8,12,.7,6.1,3.2,4.3,4.3,14.2,1.3,12.7-6.8,13.6-10.8,20.1-.5,1-.8,2.1-.8,3.2-1.1,4.8-17.1,5.3-18.9.7-.8-5.8-4-8.4-9.2-12.2Zm30.5-22c1.6-.5-.8-6.7-2.3-6-1.6.5.8,6.7,2.3,6Zm-6.5,18.1c6.2-1.1,6.5-5.4,6.2-5.7-.2-.3-9.5,3.7-13.5,2.5,1.8,2.1,4.6,3.7,7.3,3.3Zm-12.1-12.3c1.9-.6-.8-7.4-2.6-6.6-1.9.6.8,7.4,2.6,6.6Z"/><path class="cls-7" d="m38.9,88.2c-9.8-3.8-1.3,13.7,4.1,11,2.8,1.9,4.8,3.9,6.1,5.3-2.2,1.7-5.2.6-9.4-2.1-2.5-1.6-5.5-.7-6.7-2.9-1-3.4-3.3-8-6.3-9.9-3.2-2-2.2-12.7-2.6-14.5-3-9.4,4.5-12.4,7.4-20.5,2.3-3.7,6.4-4.8,10.3-4.5,1.7-.6,2.5-2.6,4.1-3.5,2.3-1.3,4.7,1.9,7.3,1.3,5.5-2.4,7-4,12.2.4,3.9,1.4,8.2,2.3,10.8,5.8,3.2,3.7,2.8,9.7,5.4,13.3,3,3.3.8,17-2.7,6.7-2.2-5.5-5.9-8.2-8.6-13-.4-.9-5.7-2.1-6.6-1.9-4.5,1.9,0,5.4-1.3,7.9-1.9,2.1-5.7.3-6.9-1.7-1.9-3.7-6.3.7-9.6-3.4-.8-1.1-2,1.6-2.8,2.7-.8,1.1-.9.8-1.1,2.1-.1,2.2-1.3,3.8-2.7,5.4-.8,1.6.4,3.6,0,5.4-.3,1.9-2.4,3.6-1.8,5.4.5,1.6,3,2.3,2.9,4.2,0,.9-1.3,1.6-1.9.9v-.2Z"/><path class="cls-11" d="m106,163.6c0-.4,0-.9.1-1.3-5.5-.7-5.1-10.9-.6-12.9,0-.4-.2-.7-.5-1.1-1.8-.8-4.2-1.2-6.4-.8-2.1-9-4.8-24.2-7.7-28.4-1.8-2.5-11.6-4.7-15.4-5.2,0-2.3-.6-6.4-3.7-6.2-1.1,4.9-1.8,6-8.6,7-6,.3-11.6-.4-11.9-6.5-4.3,1.3-3.8,4.1-3.7,6.8l-11.8,3c-10.7,4-9.9,37.5-12.5,46.4,0,.1.2.2.3.3,2.3-.8,4.9-.8,6.9.5,3.6,1,6.7,1.9,7.8,6,0,0,0,0,0,0,0-3.2,1.7-13.7,3.2-23.1,2.2,3.1,2.6,19.5,2.9,23.8.4,5.7.7,16.1-1.2,19.8,15.1,5,31.4,4.7,47.7,0,.3-10.8-1.4-18.2-1.8-29.5,2,5,14.1,4.4,17.2,3.2-.4-.5-.4-1.1-.4-1.7Z"/><path class="cls-6" d="m73.6,73.8c1.5,3.9-.9,4.8-2.4.9-1.5-3.9.9-4.8,2.4-.9Z"/><path class="cls-10" d="m73.2,89.6c1,4.4-9.2,8.9-13.5,2.5,4,1.3,13.3-2.8,13.5-2.5Z"/><path class="cls-6" d="m55,79.3c1.7,4.3-1.2,5.4-2.9,1.1-1.7-4.2,1.2-5.4,2.9-1.1Z"/><path class="cls-9" d="m38.4,171.2h0s0,0,0,0c0,0,0,0,0,0Z"/><path class="cls-8" d="m44.2,175c0-1.2-.9-2.5-2.2-2.2-1.4.5-1.6,3.8-3.6,2.7.6-1.3,1.2-3.3,0-4.4h0c-1-4.2-4.2-5.1-7.8-6-6.7-5.6-23,11.6-6.7,5.2,2.6,2.4-.9,12.3,6.1,8,1,2.3,4.1,1.9,5.7.5,3.1,2.6,8.7.5,8.5-3.8Z"/><path class="cls-3" d="m78.3,72.6c.5,6.6,3.2,4.7,4.4,14.9,1.3,12.7-6.8,13.6-10.8,20.1-.5,1-.8,2.1-.8,3.2-1.1,4.8-17.1,5.3-18.9.7-.8-5.9-3.9-8.1-8.9-12.1"/><path class="cls-1" d="m71.2,74.7c1.5,3.9,4,2.9,2.4-.9-1.5-3.9-4-2.9-2.4.9Z"/><path class="cls-1" d="m52.2,80.4c1.7,4.3,4.6,3.1,2.9-1.1-1.6-4.3-4.6-3.1-2.9,1.1Z"/><path class="cls-3" d="m59.7,92.1c4.4,6.4,14.6,1.9,13.5-2.5-.2-.3-9.5,3.7-13.5,2.5Z"/><path class="cls-1" d="m38.9,88.3c-7.6-3.1-3.9,6.7-.6,9.3,1.5,2.6,6.7,2.8,5.6-1.1"/><path class="cls-1" d="m64.7,87.2c1.3-2.9,5.9-6.7,7.3-1.5"/><path class="cls-3" d="m38.4,171.2c0-4.7,3.5-24.4,4.6-33.2"/><path class="cls-3" d="m47.7,114.9l-11.8,3c-10.7,4-9.9,37.5-12.5,46.4,0,.1.2.2.3.3"/><path class="cls-3" d="m75.6,113.8c3.8.6,13.6,2.7,15.4,5.2,3,4.1,5.4,19.1,7.7,28.1"/><path class="cls-3" d="m105.5,149.4c0-.4-.2-.7-.5-1.1-9.8-5-18.1,8.2-13.5,16.2,3.4,2.1,12.4,2.1,14.8.9"/><path class="cls-3" d="m92.8,165.1c-2.5-.8-2.8-1-3.7-2.9"/><path class="cls-2" d="m91,191.6c-16.4,4.7-32.7,5-47.7,0,2.9-9.4,1.3-33.9-1.7-43.6,0,0,0,0,0,0"/><path class="cls-2" d="m86.3,131c2.7,22.2,3.7,39.7,4.7,60.6"/><path class="cls-3" d="m53.6,72.2c-2.7-1.4-7.6,1.5-7.5,3.4"/><path class="cls-3" d="m66.3,68.8c3.5-3.4,7.2-1.2,8-.1"/><path class="cls-3" d="m51.3,108.1c-5.8,1.9-4.1,8.7-1.5,12,2.1,2,10.6,3.5,13.5,3.1,9.3-1.6,12.8-3.2,12.3-9.4,0-2.1-.4-6.1-3.2-6.2"/><path class="cls-3" d="m106.3,150.6c-1-3.6,3.6-6.4,6.7-5.2,3.4-2.7,8.5-4.3,12.6-2.9-1,2.8-5.6,3.6-7.3,6.2-1.5,2.3,1,3.8,3.2,3.3"/><path class="cls-3" d="m113.7,155.3c1.4,2.3,3.1-1.8,4.8-1.2,3.2,3.7-.3,9.8-5.2,5.8"/><path class="cls-3" d="m106.2,149.2c-5.3,1.3-5.8,12.7,0,13.1"/><path class="cls-3" d="m119.1,154.6c.8-1.9,4.1-4.3,5.7-2.1.3,2-1.1,4.1-1.9,5.9-.9.9-2.3.2-3.4.3"/><path class="cls-3" d="m111.2,161.9c-2-7.8-6.7-.7-4.8,3.4,2.5,2,6.2.1,4.8-3.4Z"/><path class="cls-3" d="m111.2,161.9c1-.3,1.9-1.1,2.3-2"/><path class="cls-3" d="m38.4,171.2c-1-4.2-4.2-5.1-7.8-6.1-6.7-5.6-23,11.6-6.7,5.2,2.5,2.1-.5,7.3,2.8,8.8,3.5.7,6.2-3.9,7.6-6.7.3-4.4-5.1-1.2-6.4.7"/><path class="cls-3" d="m29.9,178.1c2.9,5.5,11.7-2.9,8.5-6.9,0,0,0,0,0,0-1.5-1.1-3.2.3-4.3,1.4"/><path class="cls-3" d="m35.4,178.5c5.3,5.1,12.7-4.6,6.6-5.7-1.4.5-1.6,3.7-3.5,2.8"/><path class="cls-3" d="m38.8,88.4c.6.7,1.8,0,1.9-.9,0-1.9-2.4-2.6-2.9-4.2-.6-1.9,1.5-3.5,1.8-5.4.3-1.8-.9-3.7,0-5.4,1.3-1.6,2.5-3.2,2.7-5.4.2-1.3.3-1,1.1-2.1.8-1.1,1.9-3.8,2.8-2.7,3.2,4,7.7-.3,9.6,3.4.6,1.2,2,1.8,3.2,2.3,2,1,5.2-.7,3.7-3-.8-1.3-1.1-2.9-.3-4.2,1-2.7,6.9-.6,8.2.5,2.7,4.8,6.4,7.5,8.6,13,3.5,10.3,5.7-3.3,2.7-6.7-2.6-3.6-2.2-9.6-5.4-13.3-2.6-3.5-6.9-4.5-10.8-5.8-5.2-4.3-6.6-2.8-12.2-.4-2.6.5-5-2.6-7.3-1.3-1.6.9-2.4,2.9-4.1,3.5-4-.2-8.1.8-10.3,4.5-2.9,8-10.4,11.1-7.4,20.5.4,1.8-.5,12.5,2.6,14.5,3,1.8,5.2,6.5,6.3,9.9,1.2,2.2,4.3,1.3,6.7,2.9,4.1,2.7,7.2,3.8,9.4,2.1"/><rect class="cls-5" x="109.1" y="83.3" width="20.8" height="20.8" transform="translate(-29 62.3) rotate(-26.2)"/><rect class="cls-4" x="28.1" y="148.3" width="20.8" height="20.8" transform="translate(-124.5 168.1) rotate(-79.7)"/></svg>