<?xml version="1.0" encoding="UTF-8"?><svg id="Layer_1" xmlns="http://www.w3.org/2000/svg" width="548" height="373" viewBox="0 0 548 373"><defs><style>.cls-1{stroke:#231f20;}.cls-1,.cls-2,.cls-3,.cls-4,.cls-5{fill:none;}.cls-1,.cls-2,.cls-6{stroke-linejoin:round;}.cls-1,.cls-2,.cls-6,.cls-4{stroke-linecap:round;}.cls-2,.cls-3,.cls-6,.cls-4,.cls-5{stroke:#000;}.cls-3,.cls-4,.cls-5{stroke-miterlimit:10;}.cls-3,.cls-7{stroke-width:3px;}.cls-6{fill:#fcee21;stroke-width:2px;}.cls-7{fill:#fff;stroke:#414042;}.cls-8,.cls-9,.cls-10,.cls-11,.cls-12,.cls-13,.cls-14,.cls-15,.cls-16{stroke-width:0px;}.cls-9{fill:#5b2ac2;}.cls-10{fill:#23232d;}.cls-11{fill:#e0c9c1;}.cls-12{fill:#333;}.cls-13{fill:#00a553;}.cls-14{fill:#fffefd;}.cls-15{fill:#f0f0f0;}.cls-16{fill:#f4fcfe;}</style></defs><rect class="cls-16" y="0" width="548" height="373"/><rect class="cls-7" x="115.6" y="102.8" width="229.6" height="229.6"/><line class="cls-3" x1="254" y1="102.3" x2="254" y2="331.9"/><line class="cls-3" x1="115.6" y1="252.6" x2="345.2" y2="252.6"/><path class="cls-6" d="m508,36.3c-4.6,3.8-9.5,11-14.6,14-4.4-.8-11.4-3.4-16.5-4.9,3.9,8,4.6,10.5,7.1,16.3-3.7,5.2-6,11.9-10.4,16.4,8.6-1.3,20.2-3.4,20.2-3.4,0,0,6.3,7.2,11.6,14.8-.8-3.6,2.8-12.2,1.8-16.4,3.1-1.3,11.1-5.4,17.8-6.3-5.2-3.5-16.1-9.7-16.1-9.7,0,0-.3-13-1-20.9"/><path class="cls-13" d="m166.6,42.7v-5.9h32.4v4.8c-3.2,3.4-6.4,7.9-9.5,13.5-3.1,5.6-5.6,11.4-7.3,17.4-1.2,4.2-2,8.8-2.4,13.8h-6.3c0-3.9.8-8.7,2.3-14.3,1.5-5.6,3.6-11,6.4-16.2,2.8-5.2,5.7-9.6,8.8-13.1h-24.5Z"/><path class="cls-8" d="m179.5,188.6c0-.8,0-1.4,0-1.8,0-2.4.3-4.5,1-6.3.5-1.3,1.3-2.7,2.4-4,.8-1,2.3-2.4,4.4-4.3,2.1-1.9,3.5-3.4,4.2-4.5.6-1.1,1-2.3,1-3.7,0-2.4-.9-4.5-2.8-6.3-1.9-1.8-4.2-2.7-6.9-2.7s-4.8.8-6.6,2.5c-1.8,1.6-2.9,4.2-3.5,7.7l-6.3-.8c.6-4.7,2.3-8.2,5.1-10.7,2.8-2.5,6.5-3.7,11.2-3.7s8.8,1.3,11.7,4c2.9,2.7,4.4,5.9,4.4,9.7s-.5,4.2-1.5,6c-1,1.8-3,4.1-6,6.7-2,1.8-3.3,3.1-3.9,3.9-.6.8-1.1,1.8-1.4,2.9-.3,1.1-.5,2.9-.5,5.3h-5.9Zm-.4,12.3v-7h7v7h-7Z"/><path class="cls-8" d="m298.2,188.6c0-.8,0-1.4,0-1.8,0-2.4.3-4.5,1-6.3.5-1.3,1.3-2.7,2.4-4,.8-1,2.3-2.4,4.4-4.3,2.1-1.9,3.5-3.4,4.2-4.5.6-1.1,1-2.3,1-3.7,0-2.4-.9-4.5-2.8-6.3-1.9-1.8-4.2-2.7-6.9-2.7s-4.8.8-6.6,2.5c-1.8,1.6-2.9,4.2-3.5,7.7l-6.3-.8c.6-4.7,2.3-8.2,5.1-10.7,2.8-2.5,6.5-3.7,11.2-3.7s8.8,1.3,11.7,4c2.9,2.7,4.4,5.9,4.4,9.7s-.5,4.2-1.5,6c-1,1.8-3,4.1-6,6.7-2,1.8-3.3,3.1-3.9,3.9-.6.8-1.1,1.8-1.4,2.9-.3,1.1-.5,2.9-.5,5.3h-5.9Zm-.4,12.3v-7h7v7h-7Z"/><path class="cls-8" d="m298.2,304.7c0-.8,0-1.4,0-1.8,0-2.4.3-4.5,1-6.3.5-1.3,1.3-2.7,2.4-4,.8-1,2.3-2.4,4.4-4.3,2.1-1.9,3.5-3.4,4.2-4.5.6-1.1,1-2.3,1-3.7,0-2.4-.9-4.5-2.8-6.3-1.9-1.8-4.2-2.7-6.9-2.7s-4.8.8-6.6,2.5c-1.8,1.6-2.9,4.2-3.5,7.7l-6.3-.8c.6-4.7,2.3-8.2,5.1-10.7,2.8-2.5,6.5-3.7,11.2-3.7s8.8,1.3,11.7,4c2.9,2.7,4.4,5.9,4.4,9.7s-.5,4.2-1.5,6c-1,1.8-3,4.1-6,6.7-2,1.8-3.3,3.1-3.9,3.9-.6.8-1.1,1.8-1.4,2.9-.3,1.1-.5,2.9-.5,5.3h-5.9Zm-.4,12.3v-7h7v7h-7Z"/><path class="cls-8" d="m179.5,304.7c0-.8,0-1.4,0-1.8,0-2.4.3-4.5,1-6.3.5-1.3,1.3-2.7,2.4-4,.8-1,2.3-2.4,4.4-4.3,2.1-1.9,3.5-3.4,4.2-4.5.6-1.1,1-2.3,1-3.7,0-2.4-.9-4.5-2.8-6.3-1.9-1.8-4.2-2.7-6.9-2.7s-4.8.8-6.6,2.5c-1.8,1.6-2.9,4.2-3.5,7.7l-6.3-.8c.6-4.7,2.3-8.2,5.1-10.7,2.8-2.5,6.5-3.7,11.2-3.7s8.8,1.3,11.7,4c2.9,2.7,4.4,5.9,4.4,9.7s-.5,4.2-1.5,6c-1,1.8-3,4.1-6,6.7-2,1.8-3.3,3.1-3.9,3.9-.6.8-1.1,1.8-1.4,2.9-.3,1.1-.5,2.9-.5,5.3h-5.9Zm-.4,12.3v-7h7v7h-7Z"/><path class="cls-9" d="m46.8,201h-6.2v-39.2c-1.5,1.4-3.4,2.8-5.8,4.2-2.4,1.4-4.6,2.5-6.5,3.2v-5.9c3.4-1.6,6.4-3.6,9-5.9,2.6-2.3,4.4-4.5,5.5-6.7h4v50.3Z"/><path class="cls-9" d="m62.5,176.3c0-5.9.6-10.7,1.8-14.3,1.2-3.6,3-6.4,5.4-8.4,2.4-2,5.4-2.9,9.1-2.9s5,.5,7.1,1.6c2,1.1,3.7,2.6,5,4.7,1.3,2,2.4,4.5,3.1,7.5.8,2.9,1.1,6.9,1.1,11.8s-.6,10.6-1.8,14.2c-1.2,3.6-3,6.4-5.4,8.4-2.4,2-5.4,3-9.1,3s-8.6-1.7-11.4-5.2c-3.3-4.2-5-11-5-20.4Zm6.3,0c0,8.2,1,13.7,2.9,16.4,1.9,2.7,4.3,4.1,7.1,4.1s5.2-1.4,7.1-4.1,2.9-8.2,2.9-16.4-1-13.7-2.9-16.4c-1.9-2.7-4.3-4.1-7.2-4.1s-5.1,1.2-6.8,3.6c-2.1,3.1-3.2,8.7-3.2,16.9Z"/><path class="cls-9" d="m94.9,311.1v5.9h-33.1c0-1.5.2-2.9.7-4.3.8-2.3,2.2-4.5,4-6.7s4.5-4.7,8-7.6c5.4-4.5,9.1-8,11-10.6,1.9-2.6,2.9-5.1,2.9-7.4s-.9-4.5-2.6-6.2c-1.7-1.7-4-2.5-6.8-2.5s-5.3.9-7.1,2.7c-1.8,1.8-2.7,4.2-2.7,7.4l-6.3-.6c.4-4.7,2.1-8.3,4.9-10.8,2.8-2.5,6.6-3.7,11.4-3.7s8.6,1.3,11.4,4,4.2,6,4.2,9.9-.4,4-1.2,5.9c-.8,1.9-2.2,4-4.1,6.1-1.9,2.1-5.1,5.1-9.5,8.8-3.7,3.1-6.1,5.2-7.1,6.3-1,1.1-1.9,2.2-2.6,3.3h24.6Z"/><path class="cls-13" d="m285,73.1l6.2-.8c.7,3.5,1.9,6,3.6,7.5,1.7,1.5,3.8,2.3,6.2,2.3s5.3-1,7.3-3c2-2,3-4.5,3-7.5s-.9-5.2-2.8-7c-1.8-1.8-4.2-2.8-7-2.8s-2.6.2-4.3.7l.7-5.4c.4,0,.7,0,1,0,2.6,0,5-.7,7.1-2.1,2.1-1.4,3.1-3.5,3.1-6.3s-.8-4.1-2.3-5.6c-1.5-1.5-3.5-2.2-5.9-2.2s-4.4.8-6,2.3c-1.6,1.5-2.6,3.8-3.1,6.8l-6.2-1.1c.8-4.1,2.5-7.3,5.1-9.6,2.7-2.3,6-3.4,9.9-3.4s5.3.6,7.6,1.8c2.3,1.2,4.1,2.8,5.3,4.8,1.2,2,1.8,4.2,1.8,6.5s-.6,4.1-1.7,5.9-2.9,3.2-5.2,4.2c3,.7,5.3,2.1,6.9,4.3,1.6,2.2,2.5,4.8,2.5,8.1s-1.6,8.1-4.8,11.1c-3.2,3-7.2,4.6-12.1,4.6s-8-1.3-11-3.9c-2.9-2.6-4.6-6-5-10.2Z"/><path class="cls-12" d="m352.3,315.8c-12.4-7.8-10.3-24.8-16.2-25.6.9-.3,1.8-.6,2.6-.8h0c4.7.9,6.5,16.2,9.4,18.7,8.6,10.4,14.5,7.9,18.3,18h.1c-.4,2.2-1.2,4.2-3.3,5.7,5.6-6-5.5-12.9-10.9-16Z"/><path class="cls-12" d="m444.7,337.7v.2c-5.1,5.4-19.3,7.1-25.8,1.3-7-7.2-7.5-9-15-12.1,0,0-.5-1.6,0-3.4,1.6,1.7,7.4,4.7,8.1,5.5.7.8,6.1,6.1,9.2,8.1,3.3,2,18.6,4.1,23.3-2.9.1,1,.2,2.1.1,3.3Z"/><path class="cls-10" d="m421.6,209.4c8.6.3,16.6-.2,20-1.9-2.2,22.7-4,44.4-6.9,58.8-7.9,3.3-15.7,3.8-23-1.2-.2-8.1,5.4-32.3,4.2-39l-.4-.2c-8.3,12.2-16.2,32-21.6,41-5.4-7.4-13.3-12.9-21-16.7,4.6-11,13.8-27.3,22.2-45,4.9,2.3,16.2,3.9,26.6,4.2Z"/><path class="cls-10" d="m435.7,143.4c6.5,17.5-5.9,17.6-9.6,1.6,3.2-.6,6.4-1.1,9.6-1.6Z"/><path class="cls-10" d="m424.9,63.2c5,7.6,6.9,16.4,5.5,23.7-.7-.1-1.2.4-1.7.9,1.7-11.1-22.5-7.1-32.9-4.8-6.5,1.1-6.3,12-5,17.3-3.1,1.2-7.4-6-6.8-9.3-.8-1.8-3.2-1.5-4.6-.6-2.8,1.4-1.4,5.4-.4,7.7-3.6-7.8-4.4-11.4-4.6-19.9,2.4-20.5,32.5-34.1,50.4-15Z"/><path class="cls-8" d="m422.1,89.6c.3,3.6-2.6,3.7-2.8.2-.3-3.5,2.6-3.7,2.8-.2Z"/><path class="cls-14" d="m418.5,107.4c-3,7.5-10.5,8.5-17.6,0,1.2,1.2,12.4,3.3,17.6,0Z"/><path class="cls-8" d="m401.4,91.7c1.2,3.9-2.2,4.9-3.3.9-1.2-3.9,2.2-4.9,3.3-.9Z"/><path class="cls-11" d="m464.5,129.7c-2.2-.6-3.2-.6-6.4-1.3h0s0,0,0,0c-.3,5.1-.2,8.4-2.5,13.7h.2c-3.2,8.7-5.3,24.2-6.3,25.6-1.8,2.5-5.7,3.5-6.8,7.2h-.3c.4,3.8,1,7.5,1.4,11.4h0c5.5,2.1,12.1.2,12.6-6.3,0,0-.7-.2-.8-.3-2.1-.2-.3,2.1-2.2,2.4,2.7-3.7-.7-7.6.9-11h0c6.5-8.7,23.4-34.9,10-41.5Z"/><path class="cls-11" d="m414.7,266.7c-2.6,12.7-5.1,29.9-7.6,46h-.1c3,5.3,4.1.3,7.9,2.5h0c-2.7-4,1.8-6.9,5.5-6.7,5.4-12.2,7.3-27.2,12.1-41.3v-.2c-6.5,2.2-11.5,2.6-17.7-.4Z"/><path class="cls-11" d="m417.6,123.7c-.2-1.8-.3-2.3-.3-3.6h0c6.1-4.6,10.4-11.6,11.1-21,2.6-.2,5.3-15.9.4-11.2,0-1.3-.2-2.6-.3-3.7-5.7-6-20.9-3.5-32.6-1-6.5,1.1-6.3,12-5,17.3-3.1,1.2-7.4-6-6.8-9.3-.8-1.8-3.2-1.5-4.6-.6-2.8,1.4-1.4,5.4-.4,7.7,1.5,3,5.3,9.9,8.7,5.6.9,7,7.6,11.6,11.7,13.8.3,2.3.6,3.3.7,5.5,2.8,4.2,17.5,6.5,17.3.6Zm2.9-36.7c1.8-.2,2.1,5.4.4,5.5-1.8.2-2.2-5.4-.4-5.5Zm-2.1,20.4c-3,7.5-10.5,8.5-17.6,0,1.2,1.2,12.4,3.3,17.6,0Zm-20.3-14.7c-1.2-3.9,2.2-4.9,3.3-.9,1.2,3.9-2.2,4.9-3.3.9Z"/><path class="cls-11" d="m397.7,179.9c-12.1-7.5-20-21.1-32.2-29.6,2.1-1.1,2.5-1,2.5-1-.9-5.4-3-8.5-7.4-12.8-9.2,5.8-18.7,12.1-8.1,21.2,9.4,8.1,23.3,16.6,32.2,22.9,0,0,0,0,0,0,2,1.8,1.6,3.2,1.9,4.9-1.7-.9-1.7,0-1.1,1.5,3,7.4,7.2,5.9,11.8,4,6.1-2,2.1-9.7.3-11.1Z"/><path class="cls-11" d="m377.3,252.5c-1.2,3.3-1.5,7.1-3.4,9.9-6.7,10-11.7,26.9-14.5,35.5,1.5.9,2.6,1.9,3.9,3.4-.2,2.4.2,4.5-2.5,5.9,3,6.8,3.7,3.6,6,3.2,4.3-9.3,17.6-29.6,20.1-38.6,1-3.6,2.8-6.1,4.5-8.1-4.1-4.6-9.3-8.4-14.1-11.3Z"/><path class="cls-12" d="m336.1,290.2c5.9.8,3.8,17.8,16.2,25.6,5.3,3.1,14.8,8.8,11.8,14.9-6.8,8.8-11.9-1.8-15.1-7.8-3.9-5.9-14.2-8.1-17.3-15.7-2.8-5-1.2-15.6,4.4-17Z"/><path class="cls-15" d="m421.9,123.7c-.7-1.9-2.4-2.8-4.6-3,3.4,9.2-13.1,7.5-17.1,2.4-.1-2.1-.1-2-.5-4.2-2.8,1-3.7,3.7-3.5,6.1-10.1.8-28.2,6.3-36.2,11.1,4.5,4.3,7,7.8,7.9,13.3,4.7.2,17.1-1.7,24.4-.4,2.7,11.1,4.8,19.4,5.3,31,1.7,1.4,5.8,9.1-.3,11.1-.9,6-2.8,12.5-3.4,13.6,8.8,4.5,39.1,7.6,48.8,2.2,2.5-12.9,1-20.5-.4-31.7-.9-8.5-1-19.5-4.5-30.6,6.4-2.4,11.4-.7,17.6-2.2,2.5-5.6,2.2-9.1,2.5-14.6-11.5-1.5-24.2-5.3-36.1-3.9Zm14.9,31.6c-4.2,6.4-10.1-6.5-10.7-10.2,3.2-.6,6.4-1.1,9.6-1.6,1.9,4,2.3,7.6,1.1,11.8Z"/><path class="cls-15" d="m433.9,322.2l-10.7-6.9s1.2-3.5.2-4.6c0,0,0,0,0,0-3.1-4.8-12-.4-8.5,4.6h0c-3.8-2.2-4.9,2.8-7.9-2.4h.1c.2-.9.3-1.8.5-2.8,0,0-3.2.5-2.9,2.2.3,1.7-1.6,9.4-1,10.9,1.3,2.2,7.6,5,8.4,6.1.9,1,6.9,7.1,10.3,8.7,2.8,1.2,18.2,3.3,22.2-3.5-1-8-6.8-11.7-10.6-12.2Z"/><path class="cls-15" d="m367.4,309.2c-.2.5-.4.9-.6,1.3-2.3.4-3,3.6-6-3.2,2.7-1.4,2.3-3.5,2.5-5.9-2-2.3-3.7-3.6-6.4-4.8-2.2,0-3.5,4.3-3.9,3.7-1.5-2.2-3.6-5.7-4.7-6.8h0c-1.1-2.3-5.5-5.3-9.4-4h0c4.7.9,6.5,16.2,9.4,18.7,8.6,10.4,14.5,7.9,18.3,18h.1c.8-4.7-.7-10.4,2.4-14.3.2-1.3-.8-1.7-1.5-2.6Z"/><path class="cls-2" d="m418.5,107.4c-5.2,3.2-16.4,1.2-17.6,0,7,8.6,14.6,7.6,17.6,0Z"/><path class="cls-4" d="m441.6,207.5c-2.2,22.7-4,44.4-6.9,58.8-7.9,3.3-15.7,3.8-23-1.2-.2-8.1,5.4-32.3,4.2-39"/><path class="cls-4" d="m422.6,217.9c-12.8,11.2-21.5,37.7-28.6,49-5.4-7.4-13.3-12.9-21-16.7,4.6-11,13.8-27.3,22.2-45"/><path class="cls-2" d="m458,128.5h0"/><path class="cls-2" d="m394,204.6c8.8,4.5,39.1,7.6,48.8,2.2"/><path class="cls-2" d="m434.7,138.1c5.9,7.6,6.7,25.5,7.3,32.1,1,13.1,3.8,22,.8,36.5"/><path class="cls-2" d="m397.4,191c-.9,6-2.8,12.5-3.4,13.6"/><path class="cls-2" d="m392.3,149.4c3.1,11,4.7,19.1,5.4,30.5"/><path class="cls-2" d="m421.9,123.7c11.9-1.4,24.6,2.4,36.1,3.9-.3,5.4,0,9-2.5,14.6-6.3,1.5-11.2-.2-17.6,2.2"/><path class="cls-2" d="m397.9,152.2c-5.4-7.3-24.2-1.9-30-2.8"/><path class="cls-2" d="m396.3,125c-10.1.8-28.2,6.3-36.2,11.1,4.5,4.3,7,7.8,7.9,13.3"/><path class="cls-2" d="m417.6,123.7c.1,5.9-14.6,3.6-17.3-.6"/><path class="cls-2" d="m458.1,128.5c3.2.6,4.2.6,6.4,1.3"/><path class="cls-2" d="m458.1,137.7c-5.1,7-7.2,28.3-8.6,30-1.8,2.5-5.7,3.5-6.8,7.2"/><path class="cls-2" d="m464.5,129.7c6.7,2.1,5.3,11.7,2,21.4-2.7,8-8.8,14.1-12.5,20.8"/><path class="cls-2" d="m360.7,136.5c-9.2,5.8-18.9,12.1-8.2,21.3,9.4,8.1,23.3,16.6,32.2,22.9"/><path class="cls-2" d="m363.4,149c11.6,7.3,18.2,17.7,28.1,26.5"/><path class="cls-2" d="m368,149.4s-.4-.2-2.5,1"/><path class="cls-2" d="m417.3,120c0,1.4,0,1.8.3,3.6"/><path class="cls-4" d="m383.9,179.9c4.2,2.7,1.2,6,5,9"/><path class="cls-4" d="m390.1,174.3c6.7,5.4,9.7,4.5,10.8,14"/><path class="cls-4" d="m386.8,185.5c-4.2-2.2,1.5,6.4,2.7,6.9,4.3.5,10-1.2,11.4-4.8"/><path class="cls-2" d="m443.9,186.4c5.5,2.1,12.1.2,12.6-6.3,0,0-.7-.2-.8-.3-2.1-.2-.3,2.1-2.2,2.4,2.7-3.7-.7-7.6.9-11"/><path class="cls-4" d="m426.1,145c3.2-.6,6.4-1.1,9.6-1.6,6.5,17.5-5.9,17.6-9.6,1.6Z"/><path class="cls-2" d="m400.3,123.1c0-2.2-.3-3.2-.7-5.5"/><path class="cls-2" d="m428.5,84c1.5,12.4-.6,29.2-11.2,36h0c-8.2,4.8-27.2-4.1-29.4-16.2"/><path class="cls-2" d="m419.3,89.8c.2,3.5,3,3.4,2.8-.2-.2-3.6-3-3.4-2.8.2Z"/><path class="cls-2" d="m398.2,92.6c1.1,4,4.4,3,3.3-.9-1.1-4-4.4-3-3.3.9Z"/><path class="cls-2" d="m379.1,98.1c1.5,2.9,5.3,9.9,8.7,5.6"/><path class="cls-2" d="m384.1,91c-.8-1.8-3.2-1.5-4.6-.6-2.8,1.4-1.4,5.4-.4,7.7"/><path class="cls-2" d="m399.9,118.8c-4.2,1.4-4.4,6.9-2.4,9.9,4.6,5.3,14.8,4.5,21.5,3.5,4.4-2.5,4.7-11.6-1.9-11.5"/><path class="cls-1" d="m377.5,252.1c-1.3,3.4-1.6,7.4-3.6,10.4-6.8,10.1-11.7,26.9-14.5,35.5"/><path class="cls-1" d="m391.9,263.3c-2,2.4-3.8,4.7-4.9,8.7-2.6,9-15.8,29.2-20.1,38.6"/><path class="cls-1" d="m407.1,312.7c2.4-16.4,5-33.4,7.6-46.3"/><path class="cls-1" d="m432.4,267.3c-4.7,14.1-6.6,29.2-12.1,41.3"/><path class="cls-1" d="m360.7,307.3c3,6.8,3.7,3.6,6,3.2"/><path class="cls-1" d="m335.6,290.2c-5,2.4-6.6,11.9-3.8,17,3.1,7.6,13.4,9.8,17.3,15.7,3.2,6,8.3,16.6,15.1,7.8,3-6.1-6.6-11.9-11.8-14.9-12.8-8-9.9-25.4-16.8-25.6"/><path class="cls-1" d="m366.4,310.5c.3-.3.6-1,.9-1.4.8.9,1.8,1.5,1.6,2.8-4.5,5.7.9,15.3-5.7,20"/><path class="cls-1" d="m356.7,296.5c2.8,1.2,4.5,2.4,6.6,4.8-1.1,14.9-9.3-2.4-16.4-5.6"/><path class="cls-1" d="m334.3,291.1c4.4-3.1,11.9-2,13.9,2.4.5,2-2.8,2.8-4.4,4.2"/><path class="cls-1" d="m366.4,326.1c-3.8-10.1-9.7-7.6-18.3-18-2.9-2.6-4.7-17.8-9.4-18.6"/><path class="cls-1" d="m357.1,296.6c-7,2.4-.6,8.3-8.9-3.2"/><path class="cls-1" d="m444.7,337.7c.3-20.8-23.7-19.5-23.4-.4"/><path class="cls-1" d="m407.6,310s-3.2.5-2.9,2.2c.3,1.7-1.6,9.4-1,10.9,1.3,2.2,7.6,5,8.4,6.1.9,1,6.9,7.1,10.3,8.7,2.8,1.2,18.5,3.4,22.4-3.7"/><path class="cls-1" d="m417.4,316.8c-6.5-5.5-7,2.8-11.4-5.5"/><path class="cls-1" d="m427.4,324.3s-5.7-4.6-10-7.5"/><path class="cls-1" d="m423.3,310.6c-3.3-1.8-9.7-.3-5.9,6.2h0"/><path class="cls-1" d="m434,322.3c-.1,0-10.7-6.9-10.8-7,0,0,1.2-3.6.2-4.6"/><path class="cls-1" d="m414.8,315.2c-3.5-4.9,5.4-9.4,8.5-4.6,0,0,0,0,0,0,.2.2.3.4.4.6"/><path class="cls-1" d="m445.1,337.8c-5.3,5.6-19.5,7.4-26.2,1.5-7-7.2-7.5-9-15-12.1,0,0-.5-1.6,0-3.4"/><path class="cls-2" d="m384.1,91c-.6,3.3,3.7,10.4,6.8,9.3-1.3-5.3-1.5-16.2,5-17.3,11.7-2.5,26.8-5,32.6,1"/><path class="cls-2" d="m379.1,98.1h0c-5.5-13.7-9.8-25.1,7.3-38.1q9.7-6.3,21.9-5.7c16.1,2.2,24.8,18.4,22.1,32.6,0,0,0,0,0,0"/><path class="cls-5" d="m394.7,84.8c1.8-1.5,4.4-1.9,6.6-1.2"/><path class="cls-5" d="m416.4,82.6c1-1.3,4.4-1.8,6.7-.9"/><path class="cls-5" d="m408.7,102c2.5,1,5.4.7,7.7-.7"/><path class="cls-2" d="m428.5,88c5.1-5.7,2.7,11.1-.3,11"/></svg>