<?xml version="1.0" encoding="UTF-8"?><svg id="Layer_1" xmlns="http://www.w3.org/2000/svg" width="150" height="196" viewBox="0 0 150 196"><defs><style>.cls-1{stroke-linejoin:round;}.cls-1,.cls-2{stroke-linecap:round;}.cls-1,.cls-2,.cls-3{stroke:#000;}.cls-1,.cls-2,.cls-3,.cls-4{fill:none;}.cls-2,.cls-5,.cls-3,.cls-4{stroke-miterlimit:10;}.cls-5,.cls-4{stroke:#fff;}.cls-5,.cls-6{fill:#5b2ac2;}.cls-7,.cls-8,.cls-9,.cls-6,.cls-10,.cls-11,.cls-12,.cls-13,.cls-14,.cls-15,.cls-16,.cls-17{stroke-width:0px;}.cls-8{fill:#faac8e;}.cls-9{fill:#fd0243;}.cls-10{fill:#1a2636;}.cls-11{fill:#07bab5;}.cls-12{fill:#cbaa99;}.cls-13{fill:#b52d00;}.cls-14{fill:#00a553;}.cls-15{fill:#fff;}.cls-16{fill:#e3c357;}.cls-17{fill:#0047fd;}</style></defs><rect class="cls-6" x="120.7" y="34.1" width="24" height="24" transform="translate(3.1 100.3) rotate(-41.9)"/><rect class="cls-17" x="120.7" y="101.7" width="24" height="24" transform="translate(-36.5 70.3) rotate(-26.2)"/><rect class="cls-14" x="59.7" y="2.3" width="24" height="24" transform="translate(-1.2 8.3) rotate(-6.6)"/><polygon class="cls-13" points="23.9 48.3 28.4 71.9 4.8 76.4 .4 52.8 23.9 48.3"/><rect class="cls-4" x="59.7" y="2.3" width="24" height="24" transform="translate(-1.2 8.2) rotate(-6.5)"/><rect class="cls-4" x="120.7" y="101.7" width="24" height="24" transform="translate(-36.5 70.1) rotate(-26.2)"/><polygon class="cls-4" points="28.4 71.9 4.8 76.4 .4 52.8 23.9 48.3 28.4 71.9"/><rect class="cls-4" x="120.7" y="34.1" width="24" height="24" transform="translate(3.1 100.2) rotate(-41.8)"/><path class="cls-11" d="m116.9,145.5v.4c-1,.2-1.9.4-2.7.9l-1.5-1.1c1.4-.9,2.6-1.9,3.6-3,.2,1,.4,1.9.7,2.9Z"/><path class="cls-9" d="m114.4,133.6c.6,3,1.2,6.2,1.8,9.1-2.5,2.8-6.6,4.9-10,5.9-.2-2.4-.4-4.9-.6-7.3,4-.9,7.5-3.9,8.9-7.7Z"/><path class="cls-11" d="m112.6,145.7l1.5,1.1c-2.5,1.4-4.2,4.4-5,6.8-4.3,2.4,1.5,3-2.4,3.1-.1-2.6-.3-5.2-.5-8,2.1-.6,4.4-1.6,6.4-2.9Z"/><path class="cls-16" d="m112.2,123.7c.8,2.8,1.5,6.3,2.2,9.9-1.4,3.8-4.9,6.9-8.9,7.7-.3-2.9-.6-5.9-1-8.8,3.7-1.5,6.6-4.9,7.6-8.8h0Z"/><path class="cls-8" d="m104.2,130.3c-.3-2.4-.5-4.3-1.3-7.3,2.3-1.4,3.7-4.1,3.7-6.8,3.6,2.1,4.2,3.6,5.5,7.5h0c-.9,3.9-3.8,7.3-7.6,8.8-.1-.7-.2-1.5-.3-2.2Z"/><path class="cls-9" d="m108.3,178.7c.3,2.8.4,5,.3,10.3-15.5,6.1-33.8,6.3-49.7,1.5,1-1.8,1.4-5.2,1.5-8.7,14.1,3.7,41.3.8,47.9-3.1Z"/><path class="cls-11" d="m108.3,178.7c-6.6,3.9-33.8,6.8-47.9,3.1.1-3.1,0-6.8-.1-9.7,15.7,3,40.4-.1,47-4.5.3,3.8.8,8.9,1,11Z"/><path class="cls-9" d="m106.9,161.3c.1,2.3.3,4.4.4,6.4-6.6,4.4-31.3,7.5-47,4.5-.2-2.4-.2-5.3-.5-9.6,15.4.5,36.3-.1,46.8-5.9,0,1.6.2,3.1.3,4.6Z"/><path class="cls-11" d="m106.7,116.2c0,2.7-1.5,5.4-3.7,6.8-.8-3.2-2.4-9.4-4.9-10.6,2.6.8,6.1,2.3,8.6,3.8Z"/><path class="cls-16" d="m106.2,148.6c.2,2.8.4,5.5.5,8-10.5,5.7-31.4,6.4-46.8,5.9-.2-4.9-.7-10.3-1.5-13.3,14.7,1.9,32,0,47.5-4.9.1,1.4.2,2.9.3,4.3Z"/><path class="cls-8" d="m104.5,132.5c.5,4,1,7.9,1.3,11.9-15.5,4.8-32.8,6.8-47.5,4.9-.2-.7-.4-1.3-.7-1.6.3-3.8.7-8.3,1.1-12.3,14.6.5,39.8-2.1,45.4-5,.1.7.2,1.5.3,2.2Z"/><path class="cls-11" d="m103,123c.7,3,.9,4.9,1.3,7.3-5.7,2.8-30.8,5.5-45.4,5,.5-5.2,1-11.2-2.6-15.3,4.9,1,7.7,1.3,13.7,1h0c8.4,7.7,7,4.1,12.5-4.1,0,0,7,9.6,8.6,7.1.5-.8,1.1-2.3,1.7-4q5.8-.8,8.6-2.6c.7,1.8,1.2,3.8,1.7,5.7Z"/><path class="cls-12" d="m100.1,83.3c1.6,14.7-9.3,15.5-11.5,23.2-1.3,3.6-.4,8-6.4,9.8-3.8.7-11.9-1-13.6-6-2-5.5-3.4-6.8-10.4-12.5h-1.1c2.1-.6,1.8-3,.9-4.6-3-9.8-8.2-33,2.2-39.2,5.6,6.2,16.2,10,24.4,11.2,11,.5,12.7,6.2,15.6,18.1Zm-9.1,2.2l.3-.4c-3.5,1.4-17,2.7-16.3,3.3,4.6,4.9,14.9,4.7,16-3Zm-.4-11.5c1.7-.6-.8-7-2.4-6.2-1.7.5.8,6.9,2.4,6.2Zm-19.7,5.7c2-.7-.8-7.7-2.7-6.9-2,.7.8,7.7,2.7,6.9Z"/><path class="cls-9" d="m98.1,112.3c1.1.5,2.2,2.4,3.2,5q-2.8,1.9-8.6,2.6c1.1-3,2.3-6.7,4-7.9.4,0,.9.2,1.4.3Z"/><path class="cls-9" d="m96.6,112c-6.6,8-2.9,20.1-14.2,4.9,0,0-.1-.6-.1-.6,6-1.8,5.1-6.2,6.4-9.8,2.6.7,7.3,2.7,8.9,5-.3,0-.7.2-1,.5Z"/><path class="cls-15" d="m91.3,85.1c-1.5,7.7-11.3,8.6-16.3,3.3-.7-.6,12.7-1.9,16.3-3.3Z"/><path class="cls-7" d="m90.7,70.4c1.6,4-1,5-2.5,1-1.6-4,1-5,2.5-1Z"/><path class="cls-9" d="m82.3,116.3v.6c-2.9,3.1-3.7,9.9-7.1,8.1-3.4-1.9-10.3-9.6-14.1-8.7-.2-4,3.4-6.9,6.4-8.6,1.1,6.5,9.5,9.7,14.7,8.6Z"/><path class="cls-7" d="m71.1,75.7c1.8,4.4-1.3,5.6-3,1.2-1.8-4.4,1.3-5.6,3-1.2Z"/><path class="cls-9" d="m69.9,120.9h0c-6.1.3-8.8,0-13.7-1-1-1.1-2.5-2-4.6-2.6l10.2-4.2c-.5,1-.7,2-.7,3.2,2.3-.5,5.7,2.1,8.8,4.7Z"/><path class="cls-11" d="m58.3,123.9c.7,2.1.8,4.4.8,6.8-5.2,0-11.2-3.8-13.2-8.7,3.3-7.2,11-4.5,12.5,1.9Z"/><path class="cls-8" d="m58.8,135.3c-.1,1.4-.3,2.8-.5,4.1-4.3,1.8-10.8-1-15.5-8.7.4-3,1.2-5.8,3-8.7,2,4.9,8,8.6,13.2,8.7,0,1.5-.2,3-.3,4.5Z"/><path class="cls-10" d="m100.4,56.7c-8.1-12-13.9-18.2-32.8-16.6-3.6.7-11.5,1.3-11.3,6.1-16.7,6-19.1,25.2-14.2,40.2-.3,5.5,19.4,18.8,15.9,6.8-3-9.8-8.2-33,2.2-39.2,19.2,19.4,36.5-.9,40.9,33.4,5.3-8.4,3.1-22.2-.6-30.8Z"/><path class="cls-16" d="m58.3,139.4c-.3,2.9-.5,5.6-.7,8.2,0,0,0,0,0,0-2.2,2.2-15.5-2-16.5-7.5l1.7-9.3c4.7,7.7,11.2,10.5,15.5,8.7Z"/><path class="cls-9" d="m57.6,147.5s0,0,0,0c-.2,3-.5,5.8-.8,7.9-5.7.2-12.7-2.8-17.4-6.4l1.7-9c1,5.5,14.3,9.6,16.5,7.5Z"/><path class="cls-11" d="m52.4,160.2c-4.9,0-8.7-1-12.9-3.9h0c-.4-.4-.8-.8-1.3-1.2l1.1-6c4.7,3.7,11.7,6.6,17.4,6.4-.5,3.6-1.3,4.7-4.4,4.8Z"/><path class="cls-12" d="m144.4,142.5c-4.3-1.5-9.7.2-13.2,3-2.5-1-6.4.7-7.1,3.3-.1-.8-.2-1.4-.7-2.1-5.8-3-13,.6-14.4,6.8-4.3,2.4,1.5,3-2.4,3.1-1.1,10.4,8.2,8.6,14.4,4.9.7.9,1.8,1.6,2.9,1.7-1.8,5.6,7.4,5.3,5.3-.4,1-.3,1.9-1,2.4-1.9,2.1,1.7,5.9,1.8,6.3-1.5,1.2-.1,2.6.6,3.6-.3,1.6-2.5,4.1-8.9-1.5-6.5h0c-2.3.5-4.9-1.1-3.3-3.5,1.8-2.7,6.6-3.6,7.7-6.5Z"/><path class="cls-12" d="m58.7,174.7c-2.7-2.7-2.9,3.6-5.4,2.3.6-1.4,1.3-3.4,0-4.6-.5-1.1-1-2.3-1.7-3.3,0-3.7.4-7.1.8-8.8-4.9,0-8.7-1-12.9-3.9-.4,2.5-2.1,6.6-.7,9-7,2.3-13.3,11.4-.6,6.2,2.7,2.4-1,12.8,6.4,8.3,1,2.4,4.2,2,6,.5,3.7,3.4,11.1-.9,8.2-5.7Z"/><path class="cls-3" d="m97.6,74.1c5.8,14.8,1.5,21.1-7.1,28.7,0,0-1,1.7-1.8,3.7-1.3,3.6-.4,8-6.4,9.8-3.8.7-11.9-1-13.6-6-2-5.5-3.4-6.8-10.4-12.5"/><path class="cls-1" d="m88.1,71.4c1.5,4,4.1,3,2.5-1-1.6-4-4.1-3-2.5,1Z"/><path class="cls-1" d="m68.1,76.9c1.7,4.5,4.8,3.3,3-1.2-1.7-4.5-4.8-3.2-3,1.2Z"/><path class="cls-1" d="m80.6,82.2c1.5-3,6.9-7.9,8.9-2.5"/><path class="cls-3" d="m39.5,156.3c22.1,12.3,16.6-4.7,19.2-20.3"/><path class="cls-3" d="m61.8,113.1c-9.9,4-17.5,5-19,17.6-1.3,7.2-3.2,17.2-4.5,24.4.4.5.9.9,1.3,1.2"/><path class="cls-3" d="m96.1,111.9c19.2,3,16.8,18.6,20.7,33.6"/><path class="cls-3" d="m110.8,164.3c3.5,1,7.4-1.6,10.3-2.8"/><path class="cls-3" d="m110.3,164.2c.1,0,.3.1.4.1"/><path class="cls-3" d="m124.2,148.9c-.1-.8-.2-1.4-.7-2.1-7.1-3.7-14.7,2.3-15.1,9.7-.3,1.9-1,6.7,1.9,7.7"/><path class="cls-3" d="m51.6,169.1c.1-4.5.3-7.3,1.1-10"/><path class="cls-3" d="m39.5,156.3c-.4,2.5-2.1,6.6-.7,9"/><path class="cls-3" d="m110.8,164.3c-2.2-.7-3.1-1-3.8-3.1"/><path class="cls-2" d="m108.6,189c-15.5,6.1-33.8,6.3-49.7,1.5,3-9.1,1.6-33.7-1.3-43"/><path class="cls-2" d="m104,128.8c2.6,20.5,3.8,39.6,4.6,60.2"/><path class="cls-3" d="m69.8,64.8c-5.3-.1-7.2,2.2-7.9,3.5"/><path class="cls-1" d="m91.3,85.1c-3.5,1.4-17,2.7-16.3,3.3,4.6,4.9,14.9,4.7,16-3"/><path class="cls-3" d="m106.7,156.6c4,0-1.9-.7,2.4-3.1"/><path class="cls-1" d="m67.6,107.7c-3,1.7-6.7,4.6-6.4,8.6,3.8-.8,10.7,6.9,14.1,8.7,3.4,1.8,4.2-5.1,7.2-8.1,12.5,16.8,7.2,0,15.2-5.3-1.6-2.3-6.3-4.3-8.9-5"/><path class="cls-3" d="m51.6,117.3c8.5,2.3,7.8,11.7,7.1,18.8"/><path class="cls-3" d="m104,128.8c-.7-4.5-2.2-13.8-5.9-16.4"/><path class="cls-3" d="m92.7,119.9q5.8-.8,8.6-2.6"/><path class="cls-3" d="m56.2,119.9c4.9,1,7.7,1.3,13.7,1"/><path class="cls-3" d="m58.4,135.2c15,.5,40.1-2,46.2-5.2"/><path class="cls-3" d="m58.3,149.2c14.7,1.9,32,0,47.5-4.9"/><path class="cls-3" d="m59.9,162.5c15.4.5,36.3-.1,46.8-5.9"/><path class="cls-3" d="m60.3,172.1c15.7,3,40.4-.1,47-4.5"/><path class="cls-3" d="m60.2,181.7c14.1,3.8,41.4.9,48-3"/><path class="cls-3" d="m62.6,96.5c5.6,4.8,4.2,4.7,12.1,4.5"/><path class="cls-3" d="m135.1,55.5c0,.1.1.3.2.4"/><line class="cls-3" x1="129.3" y1="162.8" x2="129.3" y2="162.8"/><path class="cls-3" d="m124.2,150.9c-1-3.7,3.8-6.7,7-5.4,3.5-2.8,8.8-4.5,13.2-3-1,2.9-5.9,3.8-7.7,6.5-1.6,2.4,1,4,3.3,3.4"/><path class="cls-3" d="m131.9,155.8c1.5,2.4,3.2-1.9,5-1.2,3.3,3.9-.3,10.3-5.5,6.1"/><path class="cls-3" d="m124.1,149.5c-5.5,1.2-6.1,13.3,0,13.7"/><path class="cls-3" d="m137.6,155.1c.5-1.1,1.4-2,2.5-2.6h0c5.6-2.5,3.1,4,1.5,6.5-1,.9-2.4.2-3.6.3"/><path class="cls-3" d="m125.3,159.7c-1.3,1.7-1.9,4.7-1,6.7,1.4,1.2,4.9,1.2,5.2-1.1.4-2.1-1.6-8.1-4.2-5.6Z"/><path class="cls-3" d="m129.3,162.8c1.1-.3,1.9-1.1,2.4-2.1"/><path class="cls-3" d="m53.3,172.4c-1.1-4.4-4.3-5.3-8.1-6.3-7-5.9-24,12.1-7,5.4,2.6,2.2-.5,7.6,3,9.2,3.7.7,6.5-4.1,7.9-7,.3-4.6-5.3-1.3-6.7.7"/><path class="cls-3" d="m44.5,179.6c2,4.3,7.6.5,8.9-2.6,2.4-4.1-1.5-7-4.5-3.1"/><path class="cls-3" d="m50.2,180.1c5.6,5.4,13.2-4.9,6.8-5.9-1.5.5-1.6,3.9-3.7,2.9"/><path class="cls-3" d="m60.2,54c19.2,19.4,36.5-.9,40.9,33.4,7.5-13.9,1.4-34.5-11.5-43.1-4.2-2.7-10.2-5.7-21.9-4.3-10,1-15.3,4.7-7.4,13.9Z"/><path class="cls-3" d="m56.2,46.2c-16.7,6-19.1,25.2-14.2,40.2-.3,5.5,19.4,18.8,15.9,6.8-3-9-8.5-35.4,3.1-39.4"/><path class="cls-3" d="m45.9,122c2,4.8,7.9,8.5,13,8.7"/><path class="cls-3" d="m42.8,130.7c4.7,7.7,11.2,10.5,15.5,8.7"/><path class="cls-3" d="m41.1,140.1c1,5.5,14.3,9.6,16.5,7.5"/><path class="cls-3" d="m38.3,148.1c4.9,4.2,12.3,7.6,18.6,7.4"/><path class="cls-3" d="m106.7,115.6c.2,3-1.4,6-3.9,7.5"/><path class="cls-3" d="m112.1,123.7c-.9,4-3.9,7.4-7.7,8.8"/><path class="cls-3" d="m114.6,133c-1.3,4.2-5.1,7.6-9.4,8.4"/><path class="cls-3" d="m116.7,142c-2.5,3.3-6.9,5.5-10.8,6.6"/><rect class="cls-5" x="43.1" y="148.3" width="20.8" height="20.8" transform="translate(-112.2 182.8) rotate(-79.7)"/></svg>