<?xml version="1.0" encoding="UTF-8"?><svg id="Layer_1" xmlns="http://www.w3.org/2000/svg" width="150" height="196" viewBox="0 0 150 196"><defs><style>.cls-1{stroke-linejoin:round;}.cls-1,.cls-2{stroke-linecap:round;}.cls-1,.cls-2,.cls-3{stroke:#000;}.cls-1,.cls-2,.cls-3,.cls-4{fill:none;}.cls-2,.cls-5,.cls-3,.cls-4{stroke-miterlimit:10;}.cls-5,.cls-4{stroke:#fff;}.cls-5,.cls-6{fill:#5b2ac2;}.cls-7,.cls-6,.cls-8,.cls-9,.cls-10,.cls-11,.cls-12,.cls-13,.cls-14,.cls-15{stroke-width:0px;}.cls-8{fill:#231c19;}.cls-9{fill:#1e160d;}.cls-10{fill:#cb9780;}.cls-11{fill:#b52d00;}.cls-12{fill:#00a553;}.cls-13{fill:#f51968;}.cls-14{fill:#fff;}.cls-15{fill:#0047fd;}</style></defs><path class="cls-10" d="m83.1,126c-3.4-2.6-10.3-8.3-12.9-11.5-3.1-6.2-4.2-12.3-12-16.3-4,2.3-12.6-10.2-6.7-11.6,2.9-.7,4.1,4.4,6.9,3.1,2.1-1.1,1.3-3.8.4-5.5-4.9-10-11.9-20.6,2.9-25.9,11.5-5,24.9-11.6,30.7,4.8.6,2.2,1.4,5.1,1.5,5.4,4.6,7,7.5,26.2-3.8,33.5-.8.8-3.2,8.2-3.1,10.4,0,0,0,0,0,0,0,0,0,0,0,0-.5,4.4-2.3,10.7-3.5,13.8,0,0-.2-.1-.5-.4Zm6.7-50.5c1.6-.5-.8-6.7-2.3-6-1.6.5.8,6.7,2.3,6Zm0-11.6c.2-2.7-7.6-2.5-8.9-1.6-.4.3,0,3.1,1.4,3.1,1.6-1.3,4.7-1.7,7.5-1.5Zm-18.7,17.5c1.9-.6-.8-7.4-2.6-6.6-1.9.6.8,7.4,2.6,6.6Zm-1.6-12.7c-.7-6.3-7,.5-8.6,2.7-.3.4.9,1.8,1.3,1.7,1.2-1.9,4.2-3.6,7.3-4.4Z"/><path class="cls-9" d="m54,87.2c-5.4-2.7-5.4,3.8-2.6,6.8-15.1-13.2-12.7-32.5-10.1-36.6,6.2-9.5,29.1-15.4,36.1-15.4,7.9,0,12.8,12.4,15,21.1-2.7-5.5-5.5-10.3-10.8-10.7-8.3.3-19,4.7-25.9,9.3-7.6,6.4.5,15.5,3.1,22.4,2.9,4.7-1.6,8.3-4.8,3.1Z"/><path class="cls-7" d="m89.8,72.1c1.5,3.9-1,4.8-2.4.9-1.5-3.9,1-4.8,2.4-.9Z"/><path class="cls-8" d="m89.2,62.6c.4,0,.6.6.6,1.4-2.8-.2-5.9.3-7.5,1.5-5.4-4.7,4-3.9,6.9-2.9Z"/><path class="cls-7" d="m71.2,77.6c1.7,4.3-1.2,5.4-2.9,1.1-1.7-4.3,1.2-5.4,2.9-1.1Z"/><path class="cls-8" d="m67.8,66.1c.5,0,1.9,1.5,1.7,2.7-3.1.8-6.1,2.5-7.3,4.4-4.1-1.5,3.6-6.9,5.6-7.1Z"/><path class="cls-13" d="m106.7,184.6c-1.8-.9-4.4-3.9-5.6-5-1-3.8,4.1,1.7,5.1,2.5h.4c-.2-1.4-.3-2.8-.5-4.2h-.1s0,0,0,0c-1.5-1.2-4.3-3.5-5.3-4.6-1-3.6,4.1,1.2,5.1,2.1,0-.8-.2-1.5-.2-2.3-2.1-1.5-4.8-4.1-6.9-5.5-15,9.9-5.8,5.9-21.2.7-1.2.6-14,7.2-17.5,9h-.5c-.3,6-1,9.5-1.3,14.7,7.7,4.3,17.8,4.6,26.4,3.5,2.4-.9,5.3-6.3,5.3-6.3.5,0,4,5.5,5.2,6,1.2.5,10.2-3.2,12.6-3.4-.3-2-.6-4.4-1-7.1h-.1Zm-44.2,3.1c1-.5,12.2-11,12.2-6.3-2.4,2.6-8.2,5.9-10.6,7.6-1,.6-2.5-.4-1.6-1.3Zm13.1-.6c-.8,1.1-12.5,10.3-10.9,5.7,1-.5,10.8-10,10.9-5.7Zm.3-12.7c-2.4,2.6-8.2,5.9-10.6,7.6-1,.6-2.5-.4-1.6-1.3,1-.5,12.2-11,12.2-6.3Zm15,4.3c.7-.6,7.2-9.7,7.5-5.8-1.1,2.4-5.1,5.5-6.5,7.1-.7.6-1.6-.6-1-1.2Zm-10.9-5.9c.8.6,12.6,5.4,8.1,6.7-1.3-.3-13.3-6.6-8.1-6.7Zm7.8,18.7c-1.3-.3-12.7-5.7-7.7-5.9.8.6,12.1,4.7,7.7,5.9Zm.5-5.7c-1.3-.4-12.9-6.6-8-6.7.8.6,12.3,5.4,8,6.7Zm1.9-.6c1.5-1.8,4.6-5.6,6.7-6.9,2.4,1.3-1.5,3.5-2.3,4.8-1.4,1.3-4.9,5.6-4.4,2.1Zm7.8.4c-1.4,1.6-4.2,4.5-5.4,5.6-3.5.3,2.8-5.2,3.6-6.2.3-.3,1.1-1.3,1.5-1.2.7.1.9,1.4.3,1.9Zm9.3,3.2c-.3,3.1-5.3-3-6.1-3.4-1.3-3.7,5.7,2.5,6.1,3.4Z"/><path class="cls-13" d="m88.2,162.7s-10.4-6.1-11.5-6.4c0,0-13.3,9.1-16.8,11.2h0c0,1.7,0,3.5-.2,5.3,4.9-3.4,12.2-8.1,17.6-10.7,3.9,1.9,7.6,4.7,11.5,6.6,2.7-1.2,7-4.7,9.2-6.6,2.2,1.6,4.7,4.7,6.9,6.3h0c-.2-2.1-.4-4.1-.5-6.1-1.7-.7-7.2-5.4-7.2-5.4,0,0-7.5,4.6-9.2,5.7Z"/><path class="cls-13" d="m93.2,123.1c1.5.6,2.8,1.4,4.1,2.4,1.7-3.3,3.8-7.1,5.7-10.3-1.7-1.6-3.9-1.9-7.1-2.4-.9,3.4-2.2,6.7-2.7,10.2h0Z"/><path class="cls-13" d="m93.8,109.9c-3-1.4-2.8-1.3-5.8-2.7-.8,2.1-.7,3.4-.9,5.3,2.9-.9,5.2-1.3,8.2-1.7-.4-.4-.9-.7-1.4-.9Z"/><path class="cls-13" d="m67.4,108.1c-2.3,2.1-6.7,2.4-7.4,5.6l-3.3,1.1c3.4,4.3,7,9.9,9.1,15,2.1-.8,3.9-2,5.5-3.6-4-3-7.5-6.6-10.3-10.8h0c3-.8,6-.4,9.2-.9-1.9-2.4-1.2-3.6-2.7-6.4Z"/><path class="cls-13" d="m58.7,136.8c7.9.9,14.2,1.1,22.1.4-7.7,5.8-12.7,11.2-21.3,15.5.4,2.7.7,5.4.6,8.2h0c4.1-2.6,15-9.7,16-9.7,1.2,0,9.1,4.4,11.9,6.5,2.2-2.4,8.7-6.4,9.2-6.4.5,0,4.8,3.7,7,5.7h0c-.3-4-.4-7.3-.6-11.1h-.2c-5-3-10-6.1-15-9.1,5-.5,9.9-1.9,14.4-4.1.2,3.2.5,6.4.7,9.7,4.7-.5,6-.2,9.5-3.4-2-6.5-5.4-16.1-7.8-20.6h-.2c-2.1,3.9-4.3,7.4-6,11.4-1.9-1.9-3.9-3.1-6.3-4.4-.6,1.5-1.6,5.3-3.6,4.2l.5-.2c-1.6-3-2.7-6.2-3.2-9.5,2.7.5,4.8.5,7.5.1-2.1-2.9-4-5.2-6.8-7.3-.5,4.4-2.3,10.7-3.5,13.8-3.6-2.8-10.6-8.4-13.4-11.8-.3,3.5-.2,6.6-.5,10.1,3-.7,6-1.3,9-2,.2,2.7.6,5.6.1,8.2-2.1-1-4.2-2.3-6.1-3.6-2.5,2.3-4.7,4.9-6.6,7.7-3.3-6.9-7.7-13-12.3-19l-3.3,1.1c-6.8,1.7-6.7,14.6-8.4,20.2h0c2.2,6.1,9.7,8.9,15.9,8.5.1-1.7.4-5.9.8-8.7Zm37.5,10c-.9,2.1-9.7,5.1-6.2.7,1-1,7.5-4.1,6.2-.7Zm-5.2-4.6c4-.2,0,3.9-1.9,2.6-1-1,1-2.5,1.9-2.6Zm15-9.7c.8,0,3.4.7,3.8,1.4,2,3.4-11-.8-3.8-1.4Zm-21.8,18.2c-1.7,1.3-9-3.5-4-3.5.7.2,5.4,2,4,3.5Zm.3-7c2,3-4.7,2.1-4.7,0,.7-1.4,3.7-.6,4.7,0Zm-37.4-5.8c-1.4-4.1.6-10,4.7-11.5,2.8,4-.7,9.6-4.7,11.5Zm7.3,2.8c-1.4.5-3.1.3-4.4-.4,2.1-3.8,11.4-3.8,4.4.4Z"/><path class="cls-14" d="m112.9,139c-3.5,3.2-4.8,2.9-9.5,3.4-.2-3.3-.4-6.5-.7-9.7-4.5,2.2-9.4,3.6-14.4,4.1,5,3.1,10,6.1,15,9.2h.2c0,.7,0,1.4.1,2.1,4.1,0,6.4-1.1,10.8-3.5-.4-1.7-1-3.5-1.6-5.5Z"/><path class="cls-14" d="m103.8,133.4c.2,1.4,6.8,2.8,6.2.9-.7-1.5-5.4-2.7-6.2-.9Z"/><path class="cls-14" d="m106.2,187.7c-1-.7-5.9-5.6-5-2.1,1.2,1,3.8,3.6,5.5,4.4,1.3-.5.3-1.8-.5-2.2Z"/><path class="cls-14" d="m103.8,182.3c1,.7,1.8,2.1,3,2.3,0-.8-.2-1.6-.3-2.5h-.4c-1.1-1-3.6-3.2-4.5-3.8-2.4.3,1.1,2.9,2.2,4Z"/><path class="cls-14" d="m105.9,178h0s.1,0,.1,0c0-.8-.2-1.7-.3-2.5-1.1-.8-6.1-5.7-5.1-2.1,1,1.1,3.8,3.4,5.3,4.6Z"/><path class="cls-14" d="m105.1,168.5h0c-2.2-1.6-4.7-4.7-6.9-6.3-2.3,1.9-6.5,5.3-9.2,6.6-3.9-1.9-7.6-4.7-11.5-6.6-5.4,2.5-12.7,7.3-17.6,10.7,0,1.5-.1,3-.2,4.4h.5c3.5-1.8,16.2-8.4,17.5-8.9,15.4,5.3,6.2,9.3,21.2-.7,2.1,1.5,4.8,4.1,6.9,5.5-.2-1.6-.3-3.1-.4-4.7Z"/><path class="cls-14" d="m88,157.7c-2.8-2.1-10.7-6.6-11.9-6.5-1.1,0-11.9,7.1-16,9.7h0c0,1.6,0,3.9-.1,6.6h0c3.5-2.1,16.8-11.2,16.8-11.2,1.1.3,11.5,6.4,11.5,6.4,1.6-1.1,9.2-5.7,9.2-5.7,0,0,5.5,4.6,7.2,5.4-.1-1.8-.3-3.7-.4-5.5h0c-2.2-2.1-6.5-5.7-7-5.7-.5,0-7,4-9.2,6.4Z"/><path class="cls-14" d="m97.8,183.8c-.9.4-8.8,8.1-5.1,7.5.6-1.1,7.7-6,5.1-7.5Z"/><path class="cls-14" d="m91.9,180.1c.6-1.1,8.7-6.8,5.7-8.2-1,.4-9.9,8.8-5.7,8.2Z"/><path class="cls-14" d="m94.7,183.2c1-1.2,2.4-2.1,3.1-3.5,0-2.1-1.7-1-2.4,0-1.4,1.3-4.2,4.3-5.1,5.6-.5,3.6,3-.7,4.4-2.1Z"/><path class="cls-14" d="m89.1,149.1c1.9,2,5.5-.8,7.1-2.3,1.7-3.7-7.8.1-7.1,2.3Z"/><path class="cls-14" d="m95.9,112.9c0-.8,0-1.5-.6-2.1-3,.4-5.3.8-8.2,1.7,0,0,0,0,0,0,2.8,2.1,4.7,4.5,6.8,7.3.3-2.6,1.7-4.6,2-7Z"/><path class="cls-14" d="m89,129.5c2,1.1,3-2.7,3.6-4.2,2.3,1.3,4.3,2.6,6.3,4.4,1.8-4,3.9-7.5,6-11.3h.2c-.7-1.4-1.2-2.3-2.1-3.2-1.9,3.2-4,7-5.7,10.3-1.3-1-2.6-1.8-4.1-2.4.2-1.1.4-2.2.6-3.2-2.7.4-4.9.4-7.5-.1.5,3.3,1.6,6.5,3.2,9.5l-.5.2Z"/><path class="cls-14" d="m90.9,142.2c-.9.1-3,1.5-1.9,2.6,1.9,1.3,5.9-2.7,1.9-2.6Z"/><path class="cls-14" d="m87.6,183.2c-1.3-.7-9.6-6.7-8.1-2.6,2,1.2,6.2,4.3,8.9,5.2,2.2-.6.4-2.1-.8-2.6Z"/><path class="cls-14" d="m83.5,177.2c1.6.5,5,4.1,5.7,1.2-2-2-6.9-4.3-9.2-5.5-3.8.5,1.7,3.1,3.5,4.3Z"/><path class="cls-14" d="m87.1,189.2c-1.3-.6-9.3-5.9-7.9-2.2,1.9,1.1,6.1,3.8,8.7,4.6,2.2-.6.5-1.9-.7-2.4Z"/><path class="cls-14" d="m79.7,143.6c0,2.1,6.7,3,4.7,0-1.1-.7-4-1.5-4.7,0Z"/><path class="cls-14" d="m79.3,149.2c1.3.7,3.4,2,4.9,1.4,1.7-2.6-8.8-5.6-4.9-1.4Z"/><path class="cls-14" d="m74.7,173.1c-1.3.3-16.2,9.9-9.4,9,.6-.9,14.3-7.6,9.4-9Z"/><path class="cls-14" d="m74.5,185.9c-1.3.3-14.4,9-8.4,8.2.5-.9,12.8-7,8.4-8.2Z"/><path class="cls-14" d="m73.9,182.3c1.2-.6.9-2.1-.4-2.2-3.3,1.4-8.6,5.7-11,7.6-1.2,4.9,9.7-4.5,11.4-5.4Z"/><path class="cls-14" d="m80.8,137.2c-7.9.7-14.2.5-22.1-.4-.5,4.9.3,11.8.8,15.9,8.6-4.4,13.6-9.8,21.3-15.5Z"/><path class="cls-14" d="m66,134.8c1.9-2.8,4.1-5.4,6.6-7.7,1.9,1.4,4,2.6,6.1,3.6.4-2.6,0-5.5-.1-8.2-3,.6-6,1.3-9,2,.3-3.5.2-6.6.5-10.1-3.1.5-6.1,0-9.2.9h0c2.8,4.1,6.4,7.7,10.3,10.8-1.5,1.6-3.4,2.8-5.5,3.6-2.1-5.1-5.7-10.7-9.1-15l-3,1c4.6,6,9,12.2,12.3,19Z"/><path class="cls-14" d="m47.7,143.3c-2.5-1.5-4.8-3.5-5.7-6.3h0s-1.4,6.8-1.4,6.8c3.6,4.7,16,12.7,17.3,1.6-3.5.3-7.1-.5-10.2-2.2Z"/><path class="cls-14" d="m50,140.2c2.4,2.4,9.9-1.8,5.7-2.9-2.1-.3-4.5,1.4-5.7,2.9Z"/><path class="cls-14" d="m52,132.9c3.5-13.7-8.2-1.8-4.9,4.9,2.1-1.1,3.9-2.8,4.9-4.9Z"/><path class="cls-10" d="m141.1,142.3c-4.2-1.4-9.3.2-12.7,2.9-2.4-1-6.2.7-6.8,3.2-.1-.7-.2-1.4-.6-2-1.8-.8-4.1-1.2-6.2-.9,0-.4-.2-.8-.3-1.2-4.4,2.4-6.7,3.5-10.8,3.5.2,4.1.4,8.4.8,12.7h0c2.8,5,10.3,2.2,14.2,0,.7.9,1.7,1.5,2.8,1.6-1.7,5.4,7.1,5.1,5.1-.4h0c1-.3,1.8-1,2.3-1.9,2,1.6,5.7,1.7,6.1-1.5,1.1,0,2.5.6,3.5-.3,1.5-2.4,3.9-8.6-1.4-6.2,0,0,0,0,0,0-2.2.5-4.7-1-3.2-3.3,1.7-2.6,6.4-3.5,7.4-6.2Z"/><path class="cls-10" d="m57.2,172.7c-1.5.5-1.6,3.8-3.6,2.7.6-1.3,1.2-3.3,0-4.4-.4-1.1-.9-2.2-1.6-3.2,0-4.8,3.9-16.9,4.3-17.9-6.8,3-9.4-.9-13.9-4.1-.4,2.8-4.3,15.7-2.8,18.4-6.7,2.3-12.7,10.9-.6,5.9,2.6,2.4-.9,12.3,6.1,8,1,2.3,4.1,1.9,5.7.5,5.2,4.6,12.4-4.8,6.3-5.9Z"/><path class="cls-3" d="m68.9,112.3c-1.5-5.5-4.4-10.3-10.5-14"/><path class="cls-3" d="m51.4,94c-15.1-13.2-12.7-32.5-10.1-36.6,6.2-9.5,29.1-15.4,36.1-15.4,7.9,0,12.8,12.4,15,21.1.6,2.2,1.4,5.1,1.5,5.4,4.6,7,7.5,26.2-3.8,33.5-.2,0-3.1,7.1-2.8,8.7"/><path class="cls-1" d="m87.3,73c1.5,3.9,4,2.9,2.4-.9-1.5-3.9-4-2.9-2.4.9Z"/><path class="cls-1" d="m68.3,78.7c1.7,4.3,4.6,3.1,2.9-1.1-1.7-4.3-4.6-3.1-2.9,1.1Z"/><path class="cls-3" d="m51.4,94c1.2,3.1,8.3,7.7,7.6,1.5"/><path class="cls-1" d="m54,87.3c-5.4-2.8-5.5,3.8-2.7,6.7"/><path class="cls-1" d="m79.6,85.7c1.1-3.2,6.3-6.5,8.3-2.5"/><path class="cls-3" d="m69.5,68.8c-3.1.8-6.1,2.5-7.3,4.4-.4,0-1.7-1.3-1.3-1.7,1.6-2.2,7.9-9,8.6-2.7Z"/><path class="cls-1" d="m60,113.7c-2.9.9-6.8,2.3-9.6,3.2-7.5,1.6-7.6,20.6-9.8,27,4.7,4.2,8.1,9.2,15.7,6,2.7-3.4,1.4-8.9,2.5-13.8"/><path class="cls-1" d="m95.9,112.9c12.1-.6,15.1,22.7,18.9,32.7"/><path class="cls-1" d="m52,167.9c0-4.8,3.9-16.9,4.3-17.9"/><path class="cls-1" d="m42.4,145.9c-.3,2.8-4.3,15.7-2.7,18.3"/><path class="cls-1" d="m50.4,116.9c8.4,2.9,8,11.6,8.4,19.2"/><path class="cls-1" d="m121.7,148.5c-.1-.7-.2-1.4-.6-2-6.8-3.6-14.2,2.5-14.5,9.2-2.1,10.3,5.8,8.6,12.2,4.9"/><path class="cls-1" d="m108.7,163.3c-2.2-.7-3.5-.7-4.3-2.7"/><path class="cls-1" d="m104.3,147.9c3.8,0,5.9-1.2,10.1-3.5"/><line class="cls-3" x1="126.6" y1="161.8" x2="126.6" y2="161.8"/><line class="cls-3" x1="121.6" y1="149" x2="121.6" y2="149"/><path class="cls-3" d="m121.7,150.4c-1-3.6,3.6-6.4,6.8-5.2,3.4-2.7,8.5-4.3,12.7-2.9-1,2.8-5.6,3.6-7.4,6.2-1.5,2.3,1,3.8,3.2,3.3"/><path class="cls-3" d="m129.1,155.1c1.4,2.3,3.1-1.8,4.8-1.2,3.2,3.8-.3,9.8-5.2,5.9"/><path class="cls-3" d="m121.6,149c-5.2,1.1-5.9,12.7,0,13.1"/><path class="cls-3" d="m134.5,154.4c.8-1.9,4.1-4.3,5.7-2.1.3,1.9-1.1,4.1-1.9,5.9-.9.9-2.3.2-3.4.3"/><path class="cls-3" d="m122.7,158.8c-1.2,1.6-1.9,4.5-1,6.4,1.4,1.2,4.7,1.2,5-1.1.4-2-1.5-7.7-4-5.3Z"/><path class="cls-3" d="m126.6,161.8c1-.3,1.9-1.1,2.3-2"/><path class="cls-3" d="m53.6,175.4s0,0,0,0"/><path class="cls-3" d="m53.6,171.1c-1-4.2-4.2-5.1-7.8-6.1-6.7-5.7-23.1,11.7-6.8,5.2,2.5,2.1-.5,7.3,2.8,8.9,3.5.7,6.3-3.9,7.6-6.7.3-4.5-5.1-1.3-6.4.7"/><path class="cls-3" d="m45.1,177.9c1.9,4.1,7.3.4,8.5-2.5,2.3-4-1.4-6.7-4.3-3"/><path class="cls-3" d="m50.6,178.4c5.2,5.1,12.8-4.5,6.6-5.7-1.5.5-1.6,3.7-3.5,2.8"/><path class="cls-1" d="m89.8,64c-2.8-.2-5.9.3-7.5,1.5-1.3,0-1.8-2.9-1.4-3.1,1.2-.9,9.1-1.1,8.9,1.6Z"/><path class="cls-2" d="m75.7,90.9c3.9,1,8.1.5,11.6-1.3"/><path class="cls-1" d="m105.9,178s.1,0,.1,0"/><line class="cls-1" x1="85.6" y1="119.6" x2="86.3" y2="119.8"/><path class="cls-1" d="m87.3,110.7c-.4,4.9-2.3,12-3.7,15.6-4.1-3.6-12.6-9.1-14.7-14.1"/><path class="cls-1" d="m102.4,129.1c1.6,20.7,2.2,42.1,5.4,62.6-2.4.2-11.4,3.9-12.6,3.4-1.2-.5-4.7-6-5.2-6,0,0-2.9,5.4-5.3,6.3-8.6,1.1-18.7.8-26.4-3.5"/><path class="cls-1" d="m58.4,138.3c.4,4.5.5,10.8,1.1,14.4h0c1.2,10.1.4,23.2-.7,33.2"/><path class="cls-1" d="m58.2,192c0-.9.4-5.1.5-6.1"/><path class="cls-1" d="m83.1,126c-1.5,1.5-2.7,3.2-3.5,5.2-7.9-3.8-15.2-9.8-19.5-17.4.6-3.2,5.1-3.5,7.4-5.5"/><path class="cls-1" d="m83.5,126.3c3.8,16.8,5.4,45.4,6.4,62.8"/><path class="cls-1" d="m83.8,125.8h0c1.9,1.3,4,2.9,5.9,4,4.4-2.9,3.2-10,5.4-14.3,3-5.3-3.3-6.3-6.9-8.2"/><path class="cls-1" d="m58.7,136.8c7.9.8,14.2,1.1,22.1.4-7.6,5.8-12.6,10.8-21,15.5"/><path class="cls-1" d="m102.8,132.6c-4.5,2.2-9.4,3.6-14.4,4.1,5,3,10,6.1,15,9.2"/><path class="cls-1" d="m60,160.9h0c4.1-2.6,15-9.7,16-9.7,1.2,0,9.1,4.4,11.9,6.5,2.2-2.4,8.7-6.4,9.2-6.4.5,0,4.8,3.7,7,5.7"/><path class="cls-1" d="m59.9,167.5c3.5-2.1,16.8-11.2,16.8-11.2,1.1.3,11.5,6.4,11.5,6.4,1.6-1.1,9.2-5.7,9.2-5.7,0,0,5.5,4.6,7.2,5.4"/><path class="cls-1" d="m59.7,172.8c4.9-3.4,12.2-8.1,17.6-10.7,3.9,1.9,7.6,4.7,11.5,6.6,2.7-1.2,7-4.7,9.2-6.6,2.2,1.6,4.7,4.7,6.9,6.3"/><path class="cls-1" d="m60,177.3c3.5-1.8,16.2-8.4,17.5-9,15.4,5.3,6.2,9.3,21.2-.7,2.1,1.5,4.8,4.1,6.9,5.5"/><path class="cls-1" d="m72,174.6c1-.9,3.9-2.6,3.9-.1-2.4,2.6-8.2,5.9-10.6,7.6-6.1.5,5.3-6.3,6.7-7.4Z"/><path class="cls-1" d="m70.8,181.6c1-.9,3.9-2.6,3.9-.1-2.4,2.6-8.2,5.9-10.6,7.6-1,.6-2.5-.4-1.6-1.3,1.4-1.4,6.1-4.7,8.3-6.1Z"/><path class="cls-1" d="m72.1,187.3c.9-.9,3.5-2.4,3.5-.1-2.1,2.4-7.3,5.4-9.5,6.9-5.5.4,4.7-5.8,6-6.8Z"/><path class="cls-1" d="m87.3,177c1.3.5,3.1,2,.8,2.7-1.3-.3-13.3-6.6-8.1-6.7,1.5.6,5.5,2.9,7.3,4Z"/><path class="cls-1" d="m87.6,183.2c1.2.5,3,2,.8,2.6-2.7-.9-6.9-4-8.9-5.2-1.5-4.1,6.8,1.9,8.1,2.6Z"/><path class="cls-1" d="m87.1,189.2c1.3.5,2.9,1.8.7,2.4-2.6-.7-6.8-3.5-8.7-4.6-1.4-3.8,6.6,1.6,7.9,2.2Z"/><path class="cls-1" d="m90.8,179.3c.6-1.7,3.8-4.5,5.2-6.1.7-.9,2.2-2.2,2.4-.3-.4,1.5-2.1,2.5-3.1,3.7-1.6,1.2-3.8,5.1-4.6,2.6Z"/><path class="cls-1" d="m95.4,179.7c.7-1.1,2.4-2.2,2.4,0-1.4,2.2-5,5.4-6.5,6.9-3.9.3,3.2-5.7,4.1-6.8Z"/><path class="cls-1" d="m96.3,185c.7-1,2.2-2,2.2,0-1.2,2-4.5,4.9-5.8,6.3-3.5.3,2.8-5.2,3.6-6.2Z"/><path class="cls-1" d="m105.9,178c-1.5-1.2-4.3-3.5-5.3-4.6-1-3.6,4.1,1.2,5.1,2.1t0,0"/><path class="cls-1" d="m106.7,184.6c-1.8-.9-4.4-3.9-5.6-5-1-3.8,4.1,1.7,5.1,2.5"/><path class="cls-1" d="m106.2,187.7c.8.4,1.8,1.8.5,2.2-1-.4-7.9-5.4-4.9-5.6.9.5,3.4,2.4,4.4,3.4Z"/><path class="cls-1" d="m81,142.8c-3.3.6.7,2.9,2.2,2.7,4.1-.7-.2-3.2-2.2-2.7Z"/><path class="cls-1" d="m80.1,147.1c-5,0,2.3,4.8,4,3.5,1.3-1.6-3.3-3.3-4-3.5Z"/><path class="cls-1" d="m89,144.8c1.9,1.3,5.9-2.7,1.9-2.6-.9.1-3,1.5-1.9,2.6Z"/><path class="cls-1" d="m89.9,147.5c-3.5,4.4,5.3,1.4,6.2-.7,1.3-3.5-5.2-.4-6.2.7Z"/><path class="cls-1" d="m78.6,122.6s0,0,0,0c0,0,0,0,0,0,.3,2.6.3,5.2.3,7.8"/><path class="cls-1" d="m78.6,122.6s0,0,0,0"/><path class="cls-1" d="m61.2,115.2c3.1-.3,5.8-.4,8.9-.7-.3,3.5-.2,6.6-.5,10.1,3-.7,6-1.3,9-2"/><path class="cls-1" d="m89.6,129.3c-1.6-3-2.7-6.2-3.3-9.6,2.7.5,4.8.5,7.5.1-2.1-2.9-4-5.3-6.9-7.4,2.9-.9,5.3-1.3,8.3-1.7"/><path class="cls-1" d="m89.3,128.9c0,.2.1.3.2.5"/><path class="cls-1" d="m42,137.1c2.3,6.2,9.9,9,16.1,8.5"/><path class="cls-1" d="m112.9,138.9c-3.5,3.2-4.9,2.9-9.6,3.4"/><path class="cls-1" d="m47.3,131.2c-.8,2.1-.9,4.5-.2,6.6,7.7-2.5,7.2-19.2.2-6.6Z"/><path class="cls-1" d="m50,140.2c2.4,2.4,9.9-1.8,5.7-2.9-2.1-.3-4.5,1.4-5.7,2.9Z"/><path class="cls-1" d="m103.8,133.4c.2,1.4,6.8,2.8,6.2.9-.7-1.5-5.4-2.7-6.2-.9Z"/><path class="cls-1" d="m56.7,114.8c3.4,4.3,7,10,9.1,15,2-.8,3.9-2,5.4-3.6"/><path class="cls-1" d="m93.2,123.1c1.5.6,2.8,1.4,4.1,2.4,1.7-3.3,3.8-7.1,5.7-10.3"/><path class="cls-1" d="m53.8,116.2c4.8,5.7,8.8,12,12.2,18.7,1.9-2.8,4.1-5.4,6.6-7.7"/><path class="cls-1" d="m92.6,125.3c2.3,1.3,4.3,2.6,6.3,4.4,1.8-4,3.9-7.5,6-11.3"/><path class="cls-3" d="m92.3,63.1c.2.4.4.9.6,1.3"/><path class="cls-1" d="m54,87.2c3.2,5.2,7.7,1.8,4.8-3-2.6-6.9-10.7-16-3.1-22.4,6.9-4.6,17.6-9.1,25.9-9.3,5.3.4,8.1,5.1,10.8,10.7"/><rect class="cls-6" x="120.7" y="34.1" width="24" height="24" transform="translate(3.1 100.3) rotate(-41.9)"/><rect class="cls-15" x="120.7" y="101.7" width="24" height="24" transform="translate(-36.5 70.3) rotate(-26.2)"/><rect class="cls-12" x="59.7" y="2.3" width="24" height="24" transform="translate(-1.2 8.3) rotate(-6.6)"/><polygon class="cls-11" points="23.9 48.3 28.4 71.9 4.8 76.4 .4 52.8 23.9 48.3"/><rect class="cls-4" x="59.7" y="2.3" width="24" height="24" transform="translate(-1.2 8.2) rotate(-6.5)"/><rect class="cls-4" x="120.7" y="101.7" width="24" height="24" transform="translate(-36.5 70.1) rotate(-26.2)"/><polygon class="cls-4" points="28.4 71.9 4.8 76.4 .4 52.8 23.9 48.3 28.4 71.9"/><rect class="cls-4" x="120.7" y="34.1" width="24" height="24" transform="translate(3.1 100.2) rotate(-41.8)"/><rect class="cls-5" x="43.1" y="148.3" width="20.8" height="20.8" transform="translate(-112.2 182.8) rotate(-79.7)"/></svg>